<mxfile host="65bd71144e" pages="3">
    <diagram id="2QM_x01xMpiBVRzLlh7O" name="Notes de réunion">
        <mxGraphModel dx="831" dy="275" grid="1" gridSize="10" guides="1" tooltips="1" connect="1" arrows="1" fold="1" page="1" pageScale="1" pageWidth="827" pageHeight="1169" math="0" shadow="0">
            <root>
                <mxCell id="eyhm42ZrMHMS2FB7j-Ck-0"/>
                <mxCell id="eyhm42ZrMHMS2FB7j-Ck-1" parent="eyhm42ZrMHMS2FB7j-Ck-0"/>
                <mxCell id="eyhm42ZrMHMS2FB7j-Ck-2" value="Gérer des liens favoris" style="text;html=1;strokeColor=none;fillColor=none;align=center;verticalAlign=middle;whiteSpace=wrap;rounded=0;fontSize=19;" parent="eyhm42ZrMHMS2FB7j-Ck-1" vertex="1">
                    <mxGeometry x="110" y="40" width="240" height="40" as="geometry"/>
                </mxCell>
                <mxCell id="eDe6iZY13WVk1iEYjdcu-0" value="" style="shape=image;verticalLabelPosition=bottom;labelBackgroundColor=#ffffff;verticalAlign=top;aspect=fixed;imageAspect=0;image=data:image/png,iVBORw0KGgoAAAANSUhEUgAAAggAAAElCAYAAACBJhoWAAAgAElEQVR4XuydB3iUVfbGf1+ZmUx6CBBIAqEKAoIN7GBBRFTsKxasa1tdXdey9gaCva6993VlxYIdu2IvKEVK6AQIhPQyM1/5P+febyAUBSRo8J/P59GYzHzlfvee+55z3vMew/d9n5ZjjRFw8TF9Bw8LyzOJmS5h38M1bDDA8D0sw0T9T8vRMgItI9AyAmuNQMLzMH0f34AZpQ2kRSwKsw1ML4Rhit3wMZQNaTlaRqD5joDRAhDWfTk+LoZjkrAcLAUCDEwMWdIYCHCwMY0WcNB8p3XLnbWMwB87Ar7nUuN4XDaulHFTY2QaPuPOK6RPbgjDcsAPYbTYkD/2JbVcfYMj0AIQ1jNEru9i+ga+b1IVd6h2HQqjLvVWGmHA8nwwBSy0HC0j0DICLSOwHifDg3NfWMoLUyGUMHBtgyJvBR+N6kmKZWBI3LbFhrRMnWY+Ai0AYb0AATw8FlbVcewdS9ltO5Mcy+PqYR0RhKAWtxFqSTE088ndcnstI/BHjcD0lQkG37wY008hP7OScw9qw+XPuzxwSphh22Thmw0YRFRMsuVoGYHmOgLrAARhJPgSTPcNPMPF9CS4Hsc3w/hBSMxUG6SLpya3/H31oX6Wk/xe4TM/juzacQNM38Nugrye7/gkbIeTnyjhxP5Z7LdtlFMens2dJ/QgN9VSCMHzlAOA4Tv4hqCGjWAkeOCZcp8yxvJ5Tf/wDO1RaK+iuU6Vlvva6kdATToPlULzLTXZPN8nAbz3TjGV5Q3stGs+3TplY8pEbCZ7l68sjRnYlTi+H8Ew5K4FpDePIxhaXBMsP86JT67k3Z9tEqbHmP1MjhvUilcmLWG3Pq3onBNV70E9U5MfMlpiv8Uux/QYNYFNbPLb3JInlJeR3IOMpK3dkhf88557PREEV4+tZ+IaCWKezWczStinRzss21SbmB9MOEOhCU9PwFXG5Pd9Iyraj4frujimScQUw7d5R8IHx3cZfPMc3rukG5YBk+ZVkRIK078wrNIPrif21VXERQsffdVfW/Bilj21cDEcNVy+b+thUwMuxlv8iWZilTdvCFu+3SxHwAVPA1wxm57h8PL4hTx470JWlDWonLhNhGNPSOXvF/THNAR8R/7AJ3FBgIwCzp4YHnUv4qgYCtY0J4DgY3gGCRNs32XQHYuYWZoGVjU/XFVE65CDYYbUWreUhyXH5tuqtV+OOHd4QoCUn8QyuRiGZlL9fzlkdJV5XuWEtXhev/XdrwMQXJVej5PwQ8QbPK6YsJg0o4ZRh3XBt8NYKjjg4/uWegkSipcNVF6GFERoZu7vMx2VZ+EZOIbBI5+WEYs5nDc4b7Ov7nkuxWUul42bz/NndcHCpDzh8th7JfzjwPaYfohHPpjLKYM6KRPlm76Oo2wgaqLGR0UcLBxMbGXkDDzx19R3hQa5JbyK3zo9Wr73ZxoBiRUYvq02XNdwef6Zudx5Rwm9tvM557xe9O6Ty7hxM3n5Pwv53ytDgo3s91nL6x/nwAHBxFUgWtaZiWG4web6R97bWnesnCWDhPKPfPa6eR7zyrMJ2+XMGNWJ1CBqqM1E8r6b/v4VQFC34lG8PEZtzGH7wszfZRon6+F+r+DxLz2UHgOZI0ajSpGmH+vfZVD/4IusAxA8z8MwPFY0eFw7bjHYFncd3UEheFtC68LrD0r9ZMMTQCFIVX5nGQIQNOv/9zoEpAhjeN/b53DJ0HYc1Cd9s68vE315g8fhdy/gw4s7YJoWc2scXvpkERcNLRLfi6klFWybn4XEADxDBWR/3ftX4+QSNwwFsnzXod4xiYYt7KA+QqFeVQLVcrSMQNOPgIB5VXqHwaQvSzn/7Kn02d7ivgd3J9W21QVnzSnj0ou+5cXxQ1QqTP+r6T3djXo6Fbd3cDyTp578niFDe5DfLowp5cYSTfijd6LkQ6i1rVMGMsYJw2TPGxcxvyqFKPXMvKGAcDIVm1zeOse4BQ4PzzcVUBn35VIqnAjn7JHTZNdJVsWvrwLj1/7WZDewESeSGe5JiFcc1yCivEWGeiPuZWv/iAIIymQEMRlh8C+vMzjtsYW0zzK574QCXExSBBebkgf0iLmwqNrhp8VxJs8uYUiPFAb0KAw8DmtVNFBHBCXfaSqjJP8vm2PyiPtQUZ/A8X0ywhbpYStIYSTz8+u+1jVy92K/HINyG3a7aj5PnZHDgMIMfAEqMjs8TQzwFV/C1BuzyvdLeFUv5yC2v+Z79ByqTYt9r/2ZVy/ZhnZRGPXGXPbdvpA92kfUaStqHdKiFikycJ6JZxlUxFwywxZWYLjkeVfFA9QoKxON6cb537Q6bn1tGW0zPK4f0YXt29gqstCSYtjal1TzvX8129Vm5nD2mV8ze1Ydb7+7n1q3EhWUee07Jp98PoNBe26jNuHV6evGO1qjn5PJd/XYKo4YDICs3SBFECxjzW2SP0vUTKcG9TpsvGvqv6sgsXbKibkGhx3wIWec1YVDjygUdRJ8U9J0GtSsOoJLe2r9ax6VzuVp7sWWBDqyttV44RE3LPYYu4h5NYaKHMwck09IWUB96P9uKUdK8qMGCdvl/McW0aljDhcPztxsLKKG0IcV9Q4xxyM/I7wOPvM8n5/mV9C3U47Gb8FTNjgeEUunode06PKCA4uu/iDjt/nIyQHufuk7/nrw9qSF5a3/gSD3F8yBinLI8wbPL5w+tX7UwOnV0XglrTHH187iBynq5KlUHDp4YWonTHLefgNKMhzPlay4RsCuTb3psf8ti8lvbfHcye2w5WYCYY+47/NhcTkXPV7JUgzaWR4PnNGe/gVpRNTz6RXtWo4Ks3mORVnc5LpX5vHZtEoO3z2L6wYXEbMN5lfGOP6huSwpD+P7KaQQ55IDfU7bswOmZWOtd+8W+o0MnB46NQiJBuqsKDuNLuZv+7Vmhw42OxekYViSitMhygXlviIX5kRcldK0Eja+lcA3bMUnWCfo4bo0GBYXPruIwoIQp++Rw15XzuT9a3vSLtVQUZOD7irm5mML2C7PJuFHOPH+KSyp1Qbhvxf34h+PfsWIQd0Y1C1LpSgkDaOCj77PijgMGvMD316zE+O+Ws51r5fx8WU9yI96GOZaRq/57jctd7bVjYBeP07CY7c93mDHvlk88OBeGAog6ASXfMJyDHzLxZDIgeIhiMee5Bl5iqArm7DvyycMTPlZRRU1HPZVDjzYmU0P35fN3MJzJbXm8+V3iyhZVMVhB/XGtx0ipmgCKGpdQI8wNJkX0QuQRJzP2X99jTPP3JGdB+SCE8W3V2B4uWDUB5oCcp0Qcc/guWe/IR4zOPro7cnKEhtgYSnvQJ5ny7w0BRCUNwIJw2D3MQtZWBMmRILiMQWqXuH3ODQ1yqfWgqG3zGdwn0yuPrDVZl9duVi+wYvflfHu1GoeOKEI2fOTLpDYZHHaP5hdzcAuaeK6E/E9xcm44pmfuP743qRIeksbQn1IpLYuwdyqOga0TSNu2YTX4ZYk2QQbP3ryjeH3FHP58AJ2KbLF+jYjx0vmqYbErkqZia6OROLDhAVjqlB0EkhLFEQDZQwdZ1agW7vbwRCauFi4vsfZLyzDjsXomu9x9K4daZdmEcVV0aSw50KjQgNdibfhMTU8z/HFq/ak7t+DYXcvwHAdnju3MxkRl5AQ6fwEnhnitEcX8dEsn57dQ3TLSbBtrs3pA/OxzVhAiBHCXgzfD5PwfR78rJTb3o3hxS2cUAo4MR48MYW9u7di5+sXsMLNIOQ04NhhIl4dZwyIc+mhnQkr4yK5xjUfQE0VzyVhig+hPff35lcx6vkqptaGCblCEHLIyPL54l/tKF5aw98eW0angjCT5sWYes022IbHvW+XMnDbKDt3zFLRBtNYsxJDAIDlukycW8nV42vp30nCmnFuO6JAgaVqF3a6ajZTx3TG9kye+6qMdm1TyIgYjP7vYvbpk8Kw7Vozo7Sa7KjNHt1y+Hj6MnbulkdmyGJ6WZyXvpjDFcN6kDBchv97Kbt0DXPtsFxMQTYtR8sIbJER0ABh/pwqjvjLJ5x7XidOPmFbtZknQ8aSBtNpbJmHAbdGfiFAwQ8rcO44Htde8RVTpq7gytED2HmH1hieqIyK2mg1tfUZeAmPzHQRFAvAhOfx/TflXHzpN9RUiZG06Nw9REbYpPf2rfjnBdvpuIJnaodE+DqKmCiVFg61tT5pqXqDcV2fSR8uZvGycvLzs9hzzyIsy2PhglpGjPiShvoUCS0SijhcfGERhx7RhZCsK0N8yy0DwJMAQaIWUlG125gFLBKA4DsUj/39AIKMm8Qp51Z7nPNUKdt3tBkzPG/zmU1BumdepcvI+xfy/r86EpJUT3BmXTgQcNcSLtGQrSpNZB6d9vgc/n1KV9IVYXLN8a93PMpq4xRmhPFMU6XA9MYV8EySoYhNWA+yTzwwsZjXfrZ49dwiQureN2I33IRrbM5HdZIvDl5Ip6dVRU6w4Xth7fFbWslXgwIfW7inwSOodSIcwCBSJpWGrucxrdyhPu7z+cyVzC+tZdKMeob2sbnwoO6k29YqBc9NGQvDc11f0LoAlctfWcxjX4cZfajNSQNyCKsQvUfMtIh4Hl8uquWmdyv4do5NnWdj2VV8eF4RPXItXAO+WVDJRz8n2DbfYKdtchl0/Tz27JXCSbtncsW4FSysiPDhv3KZOqOC01/yCBkue3V1OHiHXHbpaNAhN6quI4ZBh9vXJOypKePr8krPdXjw0wrGvlXFiP6pRELwzFc+nfJtZi+s471LO3LibbPZs38Wb0922L2jzz3HFnLbW8XMiqXz47Qyvr6il/J+DEmdNDo8vwHHD0txJ4PvKMFI+Hx8cQGWvEgjQsyD7a6ayydXdqJVis8Zj8xl+opU+hbWcmD/PBYtrub0/dqr8NHQmxdwSN8QQ3bK5t53lnDH8V059q4FjD05H9eBN74r495PXI7ZHsYemd8kZZqbM3lbvvsnHoEgZD9n5kqOPvYLLrm0EyOO3na1K6Eivj5vv7uIxx6ahesbdOiQwj8u7EOHwnS1gXuGx9hrvmK/AzuzsjzGHTfN4LkXB9KmjUQZQrz22jxuGTOdWCLMwH2ijL15F8LYzF1UxfHHTOKCS7tx0P6deOKpGbz/7kpG3bodJx77ISeeVMTfztyBlVX1PPnoTNpkRxh5anetYRpEI4Rr9OU3K7nmmuksWV6HRYpyGNq2tTjz/A68/EIJP091uOK67pQuq+PB++cTCYX5z/idKWgb1SmGjXWdNnEarAMQbljAotqwclgEIKRsjLu2iddc78clw4DHafdPY5sumayogduO6rjZAEFHrF3imBx7/2z+fkAbBnbO0CBSop4aIWivVo2xg6OYF3HOenIZp+2VQf8uWavSr0EAAc8Xa+7gGbbic0n0SZ1Kcdok5L5xnm7jsZCvLKxKMOCmxXx/WaHypJuNamXARVPxOVciZTFKG2zmLK5k126tFLnS8i1cJaYlUX1Plc5Weyb1MYOcqEFYUdx1ykwqVCQSoSC9GrugdsPwVLSuZGWDSgl1aRPBMkJqDUs6UaOwDTujhuu5CqRUNHjseP1C6vwMbCNOt1yPPbpYdM4L0a8gzI4dMrjof8v473cSsoiQ4jXQLifMB//MJc1yeHhSFWMmNNCzncfB20eZXRrn2ckWQ3uE+G5eNeUNYc7e1eTiQ9rz84oEw+5YoTyDZ07JYnC3ND0PDE3ykYcWTYO163fV9AsAwpwVDQy9q4TbRrTi4N6ZVDk2e904nxX1IfbsEOfRMzqy9+if6Nk+i+EDsuiXH+b1b0rp1TmTvz8V49x9PC7YP1/nydaqExZDNK+8nuvHr6DGNZm+KMGNJ7TlwO6pKl/67eJabnh9GW4Mjt4lwgF98zntsdkM7NGKqOmxvLyWK4/sJNVGnPjQQk4f3Jq9O6cwZsJSvlgSZ/I8G8+U5xRJ5zRyMuv5719b07NtqopmtBwbHoE183PBzidfa+woJNfBbzAyG76D5v8J7amsGdIV493Q4LHnHu8w5IA8xo7ZsdGDOPz4Yzmnnfo1g4e0pkNBK8aNn0Os1uDSSztz0CFFlCyJ86+LP+Dppw/GNeKcddpX9N4unfP+0Vddaeje/+O/rxzC1BmVXPTPyey7dw7Xj96BY/8yke49WzH62p0Z98pc7r+rmOtv6Mfuu7XlmSeKufuBYo45Ip9JX5axeJnDice15e/n9tU1/ZotyYKFNYwc8Sm1MYMuXbKoq6tn6RIHz7exLRPPi7HfftmMvbGvihQ8+2wxd9y5kL8cns1lV8hzine6YaP4W97s+gFCBNuLM3tsoQIIW9KJDTL5amedUlbLCx8vp3tRiM+mNnDfiV3X2gqSnw7mx/rWxxpaNsJa8bBdC9f0eeLLCib+UMXTZ3TEEj0HNcXEduuNSmdbxIb7xA2PK16upHeey8hdW2OtRcL2VLWBJnlr5plLApOyylraZqfrSHGjKMU6cYDG9540CkCV49Jv1GJe+KuknaPYqjQ2OFZ9R1NL1R4Q/G6NoWhsP9TtBTmARidSzmoj5o08x6/W8an+HDJGJo4R4/VpDTz+7iJ23iaHnYpgWI+2+OLtiw6R7/LZgnpuem05ZdUJurc1yLJ8OhcY9CvMpl9ROrlpIRxfktjCFLRVKb2a4SriIPDaVyX7Cd+ivMYjI80m1dbxwY3huxme5/kSKCip9hhw43L65EtuP8HyGpclFWFCEYMDuoiXH+Xy/zXghKBvns/unSOcvm8bwobPytoGjnusFMezeP38AtJc+GxZjL/cV4nnyaRy6ZUHg7qEmLuiiunzXZa76STiBiN38bnhsLZBGMhcTTBc3ypVEUgJgZpMXVLH8Q+VcOWRbSjIinDD+FK+Wxaif4HDw6e0o02Kxazyeh54p5SOOXFsM8rw/vmc/NBM9uudxYUHtiPVlOutR3vAjfFNSZzlFfXs06cNX8yr5oLHl3POwVns2iHKXW8t4uojO9EmM6LIR5ZvUOv7fPLzckzTZ88euUQ8CZLZ7DVmDtcd3Zb9t4lSGfP4ePpyrPQsJnxdQY1j0zvX4Zg9W9MlK6yn2hYyYL/F6DXX72iynQ6X69I30e4Q45JMSwUEtYCMmiQ/NRsvYgsNrOcnMDwRxkmofiESiTMlqblGmNZFWEennTKJlStjvPzKvvh+DEvlJx1uu20a036q4KHHB6lgfCzu889LPuWbL2p54YXdiTXACSMn8c7EfcjOMHnuuXm8+N8FjHtpP3zfZeg+L/DWx0dheSEeefJnHrp/IU8935+TjvmM4Ud2pqJ0JSWlDhdf0Ift+2epqIMg6TvunsYzzywFP8JNtxYxeFBHTCtOwgnx4CPfcsZfd2TCq3O59fYlPPhwL3p1a4Vh+cxbVMPfz/6GlSsMRoxszf+en8Ob7w8jNeLgehEOGDaRzh3SeeiR3X6ZlNwU78OX6IoOkUul0q43LGBxbQTbjzN7zJYECIoQIrxELC9ORdzmL3dO4+l/bKtszYTva3j8tG4BQNA7m2z3EqJ2cFlW5dA2I4WQ8FCCcLYAy/KGBDnhsAZncgkFNi1ZaXy5oJbTnlzBXSe1wYp5pIQN0sNxFR2QlFF2NIWsVB0qj5s+/55Ywazlce4ZoTltqw/hsySoT9j8uKSGXQpFYTLBwiqXS56dwdNn91VbXjLtKgkicRzlTspqXEqqakkPh+kk3rGnSfCS03eNEJMX1XH4o8vpnGHSKdtlp6IUDt0xg46tUhSvxfB8ppTWMf77CtqmRThq5yxaRS0FTmw1PgamaaowflXcIE2yW2YMwxOxfbXtUhbzef7rKiZOqWXaEp+o6XJAT5eLD+lEXpoAAbHpax8BbPfgu9JaLn1mEY+eXkTr9AjVlTW0zkxTKTaxaT8vdxlx72JO2jeTMwa2JmL4isIhdAAp+004Dne9V8rCkmpCaT6H9Stg956pRGXPVZwe+GxeHc98WsZPCxK0SnNYWm3TKs3gvCG5HNQnZw1KyPqWgeF4kg30qXdcht46k5XVqdx6ai7d2kZ44P0VvPGjzw+Xt6PBMuh/wxyqY9lcNNhgQKcUKuIGH08p463v62mdHaZ7boi7T8zH9qUyweLK/y3kpakhahsMHMukVYrHDrkOt5/egRv+O5+XpkU4dRef6w5pp7z4xvyV9d2sZmm64Jg4psd3S2r5ev5Kxk4wVLe04X1NRg/PI6KIki52wlYNl1zT0gAEj5hhEXU89RKk8sBWJ11TNc7xhMvQoG7BQ16yT70PFzy3nOWV1Vw+vB3bd9AhV42ITYS5KOFX4WuI9+JYMgk93ptRyi6ds8kMiwFWNR2EPElVyDQ0dGmoLD9D55u2jH/TFBaw+ZxDAILKUavRVG9BGUh5l5oMLW9M/6PNoITW/uQKE1Jy7MUoWezQLj+MJR5cEmyqSh7t/WgfzeG998q48uLJ3HjHdgwa1EaHNQ2Di89/j4MP7ca++3ZUZCrfiOF4IQ4a8gn77ZfD8EMLOG7kZCa8viuFeVGWr4xx0EFv8/Qze9G1Szr77PUaT/7nADq3T8WxDEb8ZSJ9e+expKSCSZPj/OXIrhxzVC7hdKhaWk3vbfNxLZ+zzviS8nIXJ1FLWsTn34/uQ6ssUzkd++7xNrfdsyNpqSYXXvSl2iR22TVHvd0fJlezcK7NwEGpXD+2P59+OJ0hQ7tjCXT3Le68+weqK+q46prd9Aa4pVLR6wUIkmJIbFGAIFFKAcvyXDEf7n5vMTsXZbHXNilMml7PZRPK+OjiLmtJSumKi1rHY5/rf+TKw/IYvlO+juL6LjHDZO/rpjDxyt6kmbLhymYv13B484dyRr9Wxey6TAqitWzXPoX8bJveBbW0Tw2xW798Pv5hMUP6FSq+l2NYPDupnKe/XcE753RVm25jR142uue/XclNb5Tx3b86Y4d0CevYifPxYwYXHSL8DbGNCQUkE57Jk5+X89wnleTk+tTVxumeH+VfwwrJzxIAYzJtUQNnP7mIBbEQbsLmubNa0z8/TEjsvShd4jCzMsH5j87n2iM7MGlWPe9OL2XC2dvSYELE9bFsiS4IRHYZeuNM/nZIHodtm4NnifPhMnmJw0n3L2KZ2xrfiLNzuzr+OjCLYX2ziXgOhhHCUxv9uoeOs7gcevcczto/j6E90jVJ2JN0jY7GSMTm8ldXsryynkdP6KhsmcRopAxeuUSew53vLaPeNbh8vzzitsnFz89l506pjNy1LQ2ez7UTljLp5zgXH5jFPn2zSBV+DAZvTavm0idree/KVnTM+nUhNMN3HV8eRCI91YbB8LvmMrfMx3VNop5P784+488oUjc39o0yHpwUo8FPVZ6J7K2e7TD6IJtZyxsoXpzgP2cXYYknY4YwXZN6w6O83iDThlBYRJF1eZKUxMyo9CnKNgmbQsJwg/4Gv7IRqWiTZFZkIngqh1NrGkz8YRmD+uSRbcZxLVvl/RJGWE0rCQFZKqyjy0ZkorsBKVGFZVxrnZiQJxKlfij4jlxNyUFp9TbfVy1bVQlFUG6iCJWCbDW7RHEPfEXcjOjrK5dXRJ0UNVuBHEHDwqfQRivI4bVEEDYOhXhxPCOkxtBWtbSKQ0295ynvOGxZRH1XGSdVXaXCpX/u1I3j+fzrgo/4+ONq8tpncOSxrdlzYBda5ZiELIjaIaywhqC+WgMGp5/4ET/+3MCjjw6k73YhFda8YfRX/OOiXUiPorw7w4jieXFOPuEb+u6cyvChRZxwwnTGv7kdHfIyVLnhZVf8QKeCNE4/axv23v1Dhg1P41//6q+0U6ZML+fBu7/m9nuGct5ZXzB9Sj0NnkvIjHPhP3tw2NEdee+9WXhGhH33647leTQ0WIRTBWYL6Pa559Yf6dQ1lUMP64r0V505q5K335zNN1+WYZvZHPmX1gw7SMofA48tiBlLebOqelLVFtrErs6/btxU2+hPNQIIMSEp3rCQxYqDkKB4bKFyWrZEikHIaZKqlDTLOzMqGf/lEh44uQeOb1Bdb7DLqHlMG1OkmswlI2gq9uaJOmwFo1+vZNzfO5Hqid/lYrs+syo89r15MS+e145d26coN0kcGDGgjiGes8GR9y1kZXk9k6/YhnBE/i4+UkhxDh7+YD7HDepEunATDJcviqs54fFKJl8vv2s8ohL+hjOfWsB3y3wmXVCE4AOl/+gZnDNuIT2ybc4bIk4nJHC5471SSpbXM+bYDqR6BnHT5uB7S4nHaphwXidSbQNDqtAsm0NuXsC0lVHGHmZz/K6pGJ5EGrRzOOSOWVxzdAG7dIxQD+x61WK+GVXIja8t5LDtcunbKQ1TnFHP5sLX5jPhsyq+GN2HHNtnYZXDfrcsptIL0yoS59W/d6BbK6nE8YkFxbcq1bBullyNoczKmOGwx1Xz+OL6rkSSMCIJXl1osHxOfXAhfTpEueTA3FWRF+0CGVTGPQ67eRZvX9FDwRgxcVKtcNTd03j6nJ48NHEFL/1Qy0cXFBCKaAdJAIh8vbzBYcANs5lwfld6t5GZ8cuH4XlCRZLBNwl5NST8dKpiMco9KZGA1lHZwBPghkjYCaavgAfeX8qMpSZ7dElw1t75tE6RcKZLzJH8hjBVhfWf0AZaaqJkVMyQKg+UuJOtQmK+8gQ8w8KWEFawT//q3fp+4CnqUqKQ8v4b8CXvYQszWkpaDFxTwEPQM0H2ZDUwyo3CE9VDQcOq5Emun0BoH2vkY1QWQ6NywzW1vrqkysT3srQolMIHyXrURgxTDUnkMUVAyVMgQE6kxkJ5vEG5ladLubTolL43PU5bysXZaFPX7D+oFTwltZOg1g/x3GfLeOKDCpZ7qWqss8wY/zw4m6O2z1Yeg6R6ZBH9mUe2eHYlt9z8KX85oR//vm0KCxbJms1QoDgc8UmJxLjr7l3p01dq4n0lplPfkOCcMz5l2owGunVP49BDc1iytFbJLz/08GC26Z6DVEf9938zuPuW6bz06gFkZ0d4+sKF5RUAACAASURBVOkvOfHUXUhRzp7J8qW1fPZFMYcO35bPJ5XQEHMYuHeXoFeJ0NUkxSezO06sLkJtwlfeXEaa2AnZ3KRCIgVDQrjyX1U2KRE8CQfLBl+P40cIqWoLeffSaVXIzA7CsJa+Elpa2FUpPpFg1pyAQPdBHAK1vtZnsZtouq8XIOgUw5YECOIuian6pqSeG19ewJNndidDULEfo9ay6X3pbKaP6UnKKhG7QF8Ck7dmVPDqV1XcP7IdeGHilkfI9XlvVhmnPVXBC39ty66ds1XKKoFs/rrL7bKVDTz4+Rwe/CyV9y4tZJssG0vV5wmt2+DOiUsYuXchrS2JQHlUe7D95ZJqzWTkzm3XGPC477DX2CVkWw6v/atQr9SA7Njgupz+1FJ2LLA5d0geDT4Mv2U24y/spnLxsndIFPHQu2fx5bJWHLdDnFuE6C1j4hsMu38hU8sjtLbrmSRVF+JWGurf7Hj1fH64opNqH/DZnBr+8cJCPr98W/a9bQZnDc7n+H4ZWhvENzj7v3OZ8EMur5wTUXy8i18s4ekfoxSl1/DuPwtUWkXqe5QFb+QkKvu+TqZfh/6/W1zL4x+UcdvxHTVAaEyQ8F0k7/+3cUvBCHP/UbmqbLQRdYKpS6o57T+lfHpBF7XnCSVRNtHb319OWUM9b30d44OrupEh5fxmREXQFbvDM5gwq5bzHy/lq6s700ZyJ78KEHwZgkC7epWnreswVW1yUP+sNzz5fSBxEpA+JJejQrpJcSJZuCrEq0Ugkg2e9GINCCdKCEIbeV1gqBUatUS53lA1fTWge6iREZTqqZrPVYJHSgwl0EZQ0UNNVksSTpLaZppVG3j2jcKMWrRl3Z0jwDHaMw3qwzUFR4doFQhYq6Za/04rSuiUr0YPgVbTGiSY5IvWtawBwW5LuBdNZPv+8NOo9xR0s1IsYN1k6NUptVz1eikrK9JwbR0N8gkTszyiNPCPgREu3r+VqrBRXS/+VGOclBvWK0W0DerqYmSmpSgDWF4Zp6IiTmVZgjfemc9L46s47fgo5/xjQJBXNtUG63kGkydX8Or4OZSv9Bg4KJf2nTIZe803nHhGF96bWM4P3y5lzI17MWiQcAZWC+Qk5Y70PNd8B7WylbFLihXJz9q4yfrVnIiA8KWWiLlKpC2pb5JcO+osai3pvLM6p7JHgR1pNC8kSrB+jklytWlYuaXKHKVGfA0OgipzFMMsJMUOAnU2G6DKkygrJGkARDNANmSbxSsbOP+pudx2ajc6Z4rgmqnC8TWmT/8r5zLxks50SBesFei9etK3xuCFb6uZ9HOMfx/XWo+NZyk7/u6scs54opYpowpJF+8tmYaV0jofvl1UwfKqBv79aQWWm8LLfytSjpbtaz2Lt4vrWVJazUm7tVcbuCRdz31qCcUrE7xzfpG6PyE3yrMIUD3xkfn06mhx+QEFCsgpb1ela03qHIeRj8xjQJcoXdpazFzic8UB7VUkWaKCIrU/7J4lTF4SpmdeJfePzKdL65DaCPe/qYTevTN56fNqrjs0hX26RGnTJk1FHve8ZgYPn96e+yZW8Hmxw5i/ZDJ8u9bsd1MxGalRXjs3T+nXqPTBDTNZWpNDj9YxXr6gCwPHLmF5nc34M9PZrWOqbm6omxRpomUwZ9fXm0cLakFpAxz/wGLePF9SMQqya9K6cHICIuNTX5fzxCeVvH2hROXlWV0MAV2YVNa79B8zmx+u76ZSMJZyen3u/LiGBz6JU5hVzdvndVbrJuxJRF17o6Jjcfn4Wm48Iotjdshch6C/tq1vPu2eA9QozMvkklaevpIy1l6DytInN/Vf2LUExDQ+BElq4xTYJdXcSZ9TGSBpnvKn2jj+8O28SW9gtf6kLvtRnS8dn2+WNXD8AyuodMKkeA47doPC7DA/lbjMWCpbZITWoTq+ubqIsCVpoi0nktOkD7yxJ0vycdTs1hEx5UPrvJ8y1GK04nGTv53zMT9+B089sz09txXPKGBkBOVRiqOuyI16fSU8l7den89H75fSuWsWBw0vpFPHDN0vRCm+bRktgY199Gb5uTUAAuwyZuEqgDBrbAd0bGszD6X75imitpS0xU2LRWUxzn6uhJv+kk+ftsI9CXj0PsQMnz1Hz+L5szvSvVVoFUBQWhdY/OeLKj4rruGe4/IwPQvHclQ6tLTBYODYxXx/fQEhQ0h7YoeFCGyryO0tb87jwqGdmFlaz+F3rGTCea3plSfnl83RZG61w+G3z+GLyzoTDemc+Sezazn+yWqePiOTQe2jGCFhcVvEhMT4cSWvf7uS9//eBUNCTQoA6qiqzOl61+HYR2ZSH8/g8B3SOXOvbAUAlBNqepz5/BJe/7GePXrYHLtDhEP7tKfB8Ok/dgFjj87lkfcqKas1ufukbP523xyyclP5fkmUsOPTtyDGJQe1YWDHKNUG7De2mJKadO4YkcLh/bKYV+lw9N2LOHFQFne+Vc+I3U1enASZWfDlpe2IbmrqMngv4jzvPnYWj5zake3apQQkS4lwuYponDB9KmsT7H/bYk7fK42z92qrI9kBSV8s3DlPL1Rp+XuPl2o8T8HFk54oobpGYigOE87tgOU5Sl9iZb3LZS+UMGVpnCsOacOQ3llKb2hDxO3mAxCUymBQmiG5+aDhiM5EatqGyoM1KohJOhBBdlFv+MrTbFR3on4O0J2O+eCbOve/WoKy+bS23UwT8qf8uqqNDpT7tI6mwdnPL2L8VJud8l3uOa4tRTkWhmexJO6x06gVKtIkKnaPnRhh2Dai7Pbrubatb+CEtCWhdMXtVgB6+vRyHn1kOrN+ruDZF/cnI9Xmmf8Uc+etxey/Xzajx/bHFpJVUOS0yhCLLxdEv9QKUkFBCePrGL1uHZwkf/7JAjFN9eJ/BSDMvKEDaU1kYlQZuK+Fcb5dWMe1LxZz3Yge7Jwv8tMSJ3MUR0pI2hId2v/2+fzvvE60Cml1SxWJEUIr8O70SsZ/Vc69J3VSMR7LFcl4hyU1HoNuLuaeo9swtG+m4vVYnkXCjPOfzypwDJeTd22vyK4H3D2HvXpmcMXQPEWEVH02PTjuobkcvUcOR2yXg+nJ5mVw6mMlfLbA5bW/taNXu7BidlU3uFz4zFwml9rc9Zc8du8mpY1JbpYuexeTXuka7H/rIrq2MXnq1PaEDVcREqVq5PvFDQy7fyX5UYeHR+ayQ8c0pi2Pc9Cdy3n3nLZ8XVLHJS/FGH1YCvv1yODVb6t47tt6CtrYPDKyLemmQ8y1uXJCCTt1jvLQxDrmVZocuI3Bj4sa6NXB5P5ji3j+mzI+mF1PSZlLj9YWd47oEKhJbsIkUvNE8xAe/3AFE3+u5Z6TOtBG0vQq+qwBuACghOHxxrQKLn22iltHZjO0Z5qmWgeExp+XORzy71JO2CvKjoVRXv62jLJahxMGtufWV8r48Arhvmju2xs/LKHaD3PETrkqmiq8PAUONoBamxVAUDWpKpIcl6wlNXGP0ooYFQ0WCU3XVc8jlQOSZhOzJVEzyTtKNYBtieyrRp/JoIAg4GjYJiNqEbIkPCf8gSBKkUyTbDa034QJ0vLRTRsBAY1unGrPpaLWo11mqmJHH3XfYj5dEubhY0MM7x3FcCPELJ9736/gtokNxM0ULD/OrYebnLBjLobVfFoDb9oArP/TSY0DKS2UCqT//Xced902T/X6GDw4nRtu3IXlS+s5ZPjbFBVl8Nzz+5AS1qm2dRB0EmkHEFuTb5I130LMFSAiXxMwIltASwRhnbeyVophl0YphhmjO5DeZAEsIeLCTa/P4/PZDnedXETHTOEHyD9iI4VAZeOaceKezaX/mcWtx2kim04JyaHTpfPKEox8bB5vXrANqYajIgzC7RgzYQnZuRFe+KSCm0d2ID9iUFLvM+6TUrrnhTh573xSBIiYMG1FnL/es5gPr+2OLax9Kb8LPP97X5/B6Qd0Ji1YeysaEpz6SKkqUd+7W5TMDJfZi+GiQ9vQpV2UK56cwiUHd6BXYbaepYapyvUs6XVjwo1vLueBj2t4eGQ2A7fJUj1EFlU4vP59JaPe98lLgUdOzlCy2mc9uJyc1h6vn9OZ8d+X8a+XquidF+Kl8wqVuuXclQ7HPLCUjm0sRu6WzeOfVOBZ9Yw7rStLq+Nc+PwyFtf77JhncdPxHUlXjUqEw2DqSgcvofYd09jEduhKyEoI6kLQ9Llx4jImTa/mpmPy6dUmqkT7hIYm70oEkCR19uy3tVz90gpuG9Gaw3tmYFhaK0igxIOTlnHtGzFSIzYjt7O4cFgbyupiDLllCbcek8Hw7aShoFR5SVpH9yCyfAdHCVOpRf2r5qj5AISgy5yERusdeOX7Eu55qxQzFFUlIzJwQRGbZiYEYEGUEFWzGZWOEKNmK3QtXSkVUpYNxnPxHE8h24zUCP26pZCdkqBfp9b0aJ9CWtgiahukhyzCUmvZSCQkqXm9blhCxyuSUQuF7FblRJP5i3Vt8epvbejVNMU2spWeozEbxzdYEfM45NafWVSVw7l72/zjwDZc9uISnv/Wo18BPH92OzIsgw/mVHP643XUejod5ZkWn1+QS1ErSwPJLTkcq+45OS2CX6yqdNFbeuN2RtpUQ13Cw3XFsAdyO4ZBWthWpDzF7QmyZsncrGp6HMy1mvoEY0b9xFtv1BJNj3PG2YUcf1xPJXn+7rvLGHXdHF59ZxBZKR6mrZno+oRaiS15JEl9q2elZvCs/nxArt2wTdmSo9x8z53kWyk2uY8AhMU1AlJjzBjVkQwBCJvpiKhUqXJwfFXmLSF6FeH2nSBNKiJ2Ur3lIfK7Uvo7p6yO7q2jwdzTnCfJ+yv1QgzuEsL5wgYuP6IjEcvj6Y/KSUkz+NuebZhYXMU1Ly3HjcXo1DqV0cfm0y1HcuRaHth3bSXbUodB1Pd0Tw41p4Q8KiRsLfhjGlIVJhE8RSNlZkWMz2eUUpidysCeOaRISXkilQb9EVbWxmibFla5ec1J02mH574u54KXGwibHqF4XAGImIkiwJ62R5TP51QzdXE6eAnaZBi8fUE+rcKy8BM8+kUdMxZUc/OIDio+ITy2FQmfC5+Zz8KlHkN3S+GSQXkqreGY0thPlCBtwq6UecpFYnjCv9FFhphuGN+SZ97UwnTdOFDxaZSqucdn8+sVIBnQ2eT8AwrISTXIDod0Sk/AnOvxzZJa/vn0Ap45pzMdsiRhJekgKaV0ufGNFTz0aYyT97Y5Z1AeuSGb2z9Yxl0fJnjhnFb0z03BlpROoNOhLWHAYQpS+r+0rJsNQNDbu4fte9TGXOK2rWpmUw3hJEtARkpmNn1TFXCgq+GF4CjVtILcTGzXZcFKjw+nLGPOsgSfTK+ixg+RbjkM7p9F77wwB+yQT6blKX0GRfyRya7KVxxMS0KwstB0KFYxqmVxBKI0ugo/aO2syrU0atTdOJKky7Xt3XpEm5qvSdxCd6YjQFq2Re+M3y6s4ND7yqk3M1SN8SeX5KjpfcCNS2ggg+3ySth/l47cNaGWmBFShB1JMXTPauCTf7XHkiYxyrtqbKH1O2l8rGu/dWOU1YeKXwUEPGmrqw2igq4K7WtSrtIPWFXWJgtcR7tipsmspVV8N3sRs0qhvNKnd0eX1mGb9q0zad++tSpXmzlvKVOWl7OyMsQlh3YlN+SqsmF1qEiah+9ZLFxazV9P+ZyVK2y6dfN49On9SY0I01zywT5xN4YbCxFNDVj8SXLfFnpz/19Pu2qGqNC90PJcdh2ziCU1UgdWz5Rri8gNbz5AaKrxTZbE2V6CmPAD5tfyzMTlZEY9zh7Snh6tJUonBD0l76I83ZBEbZvqBn7lPLIZPvjxPN6cFufyIXn06pLJtDKP5z4o4aXvM9i9Sw1XHtmWi56aw4/L0ygMVfHcBT3onCZRE6h1dWVcxPLJUF647BsSOdaAfe2cu+5lrPeVDeXjt8Tjy7UT8i/HZWHc58VP5/D+9HoqKuN0yknlgO1NduqcTd+CPGJSrivVe4IsVFdisTxxGgjzdUktZz6ylHi9T+88jx17RHj8Y7FFaTx6UoQ9t00j7DtgapViQxzpVd2VkzO4cfvhYJtS3Z6bw6HBrXrJrqe1B1QQRbEvk1Nz0yG4yDknN3e1LysELgpfegOypGmGyuFa1CcMahriVMahNu7y0/xKildUMqMEqqpcclN99uydwTbtMtilRytCSsVPww8BMAIfNLEy4HCrcsgglyvDrPaW1c+g6RGrh1/9RbuGq7gWzeHV/L73EEwEpRmh22MnEj5Xv7GIJ77ycbwMztiljuuH5/HIFyu46jURBNLvUsKRUl1iq34eMe46KZPDemTp0Gpy8w7klfRQb/rUV2JYEp9woLbGYVl1Hcuqaqioa8BzElTEDBav8KmLQ26mTV6OQzQUpl+3doR9UZ0zSYuESA1JaZgWn1HlWsk8f1DT4/oW8UQDj360hO2Kstm7Ww6OgFXJHSZM7r7vR154YbnyZ0aN7snee7VTyoJqDpqu1vAQCyDPqYQ45Pg9TPzvO1uaz9W0+JCjAKLP7jctYGFFKpgxXj0zm/4dUzfIGP/dnkVVfomrFFYN+qQqQvhdEn5WdHCxW4FWjO7EmZSo3qIxOPX4jjD1gc/n1XHta6X8vEzq9y2irsORe6Zw0eA8cqM6mhx3fEK2rAkpbReXQJa5bHxaFlqBdSuGpRqJBWWCa4Vx1rC/mxvi+Y0vUIinUo3hipyALtJUY2DKO1LtB2RT1yXyAmJ0DY/+hIdolfj4boiVCYcFlR7fz6mjXY5Fr4Ioj72/gke/bmDoNjZjj2xPboqkFnwlK5AsyQ/gkQJKUjja+GhWEQTljyndhMBjD6oX9FAkyx83bZIGImMKGQRtQJTnKBt3UNy5qjRFAYhViQzd4VJv9qITAUvL66loSLCk3KW00mFZWTnLq+RvITq3idAr36Bf17ZkpUiISoMHlbqS63m6ZlfPQf1EmiS25iEbopoMKvSzZpfJ3zj/trKv+UpES3nJymG2KK+r5+dFtfzzxVpK6pT14t9HmKRGLK6aUMecmii2G8E1RJbVI2wkOHZHi/6FMVJsk8wULf1qhwxijkks4eOI8mUwIzSrf3U6Lokbkr/X7cB1a2MBhUL0C4WCXmumlAtapIZtsqNh0sP6velFHMhAByIzmkMTNGcPQKCqygjqtpPzUSty6pkoOeHb3y5m+y7Z7Nu1NRXlDv+85Bt+/KmKo49qw2mnbEvbtimqHMtUkRKJZUvsMvhvMkQrf9t0fL2VzZ0/7nZV7EDki30JolsMvms+05ZFVfnnnUcJu77VOk3h/qi7FWhgu+JNSxpO37dEvBSDPqnnGnC5xB7JOvzV/gJN+CCNN2yJ+NbWu1TGXNqlh7GTUzgoPddsPa2oqssLNQDWonUSSZP/U8LJQbqiCW+0CU+liJjJkVdR5gDgJ5tVyfirtavbDOhNJHBKAx9HAJ+QERWPRD27pWrs5f1+UtzAteOXsbTGYY+u6RzTP8xePVsRFjsb7LW6QilIKzZ6tmYDEJLs6STPIElITN5rMn+7qe9FT7iA4KibbQchJQkHa7JOUt9bE7CSG0UjNrecYVWBt2wsshHpTUCWlAzrzIXlLKx0KV4ao6I2RkpKgpXVJu0yMwhbkJ5uU5CN6jqpw0Or2Q36mQwilkHvomyiAi7MxrUZm/rUW+vn9eZZ78H8FfWkpxiYbgLLtmiVnsqPixvY96EqUh2fB0emc0DPKPvfvpgZZWl4RlwJcO3WOc5lQ1vRr2OqFm9RYliaPKXjOklJrDUjOcl3sEZGIVkREwAJnaVIvrfVHAM1OVallvSGrwu0grpzXWi7ajFqg5vkHCiFhlXplOSbS7ZydVwpVzO58rnZ9ElP54nbJ9O5UyYXX9iNXr3bYKqmX3J6yUcnAWcS/AbodJVnlAymbq3zo5net2pXoKsLPDOhSHXHPFHKJzMlomBy1h4u1w1r32zEPD1PQs3aBimp8gCk6hm6OrWn5nDgJG1RmepGr1UAcdKR0zLqulJBSwzoDVJtZupm9UrT22tQ+bAqv65TJNrOOgFXoJkiZGX2dNso/Q5Wl3lqOR3hcejKkyRQ0wnsQPBPWxYt0Sd7h2qxHnSDlPi2Sn35fDKzii+KY0wvqcF1DXoXhNinVwYDOqcpvpN01Fw7xtiMAIKeJauyIeoHLZDi+fVaYU11qtCaCOIpSvhl7XiClhENhDaS2FcpKEoDDhtDQmYqL7Uaeujr6l+sVmFYyxj9im1tlMFZ9XoVpyJQfpxZUs/ilVUkXIflVTbLKj3lyUpoSQiVIjcadz3KaxzK6xOMO7u7IksqOWkV6mumE/s32GvtnUsuSXpkhJhVVs/CsgQ986K0y/YJ+RYPfbqUUW/FefjktuzfLaLC5rIgFtT67HFjKa5nce+IKIf3TePdn6sY920draIGw/qlsXu3TMKNZW2D99Z0W2PjtESj97LqOqsg7lqzae1ZEgzeL97Y6uvIT/PKY5x+wwxO2T2dYw/uBKHAUK7zDtY+YdM9+W943f8Pv6JB7u3vLWPs+xKptDh4O49HR+RtYZbsJgz1WlNi3RnS6DfJ9fo7hd/1lVdfX/2kqtSDdZVM0QZLr/Fq1PY72ESSujeN/n8TRuh3/6je8JPH6sj1ep9n1efWtEWrLcwv2KhgaJLMKu2orK5rWt9DNzuA0Pgmk/QRx/dYVp5QXRsTEt5V3pf2vNbYO+WJhQluBt3sVOmPBNTEg5QogDRvchGe75Y+9CsKqitUyEv+T7I/GhcbhqOIIkpKVnmAUJPw6HfdDL6+vCtZ6SHdSGpThTi29INt1vlXE/mky/gzX63g+vE11FkZ5Jg1vHZhIZ2zLF6ZWck5T8ex3VruPiGLYdIkBZdr3izlyUkyhj4v/zWTAZ1TsZw4mDauDaYrZa+NVD03616b15cTntREl1O6so7T9sxX4eo/E3BsXqO9+Xcz4aflnPacTinuWJDg1b8VKOJfy9EyAlvTCDRjgKBzxBIiisXjnPjwT9w5clvaZUSDBkearbrGVh+gXenzII2ckPIZQ0grupGGlH5JO9nfrd9BAOR0602dm1xdDilhoGSATIMJ+fj+t5bw4F/b0y1bnl2oz1vTdPr1e5Xnkx7nEjKcVOIw/L5yUg3R/wrTYMApO7rceGihUgTb78b5zKpLw/AcUgxHNfcpJ4eolyDVXsm3V/cgw4rhG6LzZqp+HkqUXpXmNVnRefMYfN1xF9dwGHLLdN48f1vCYek70nI01xEodWHHKxYTN0yKcuDTS9oqSdyWo2UEtqYRaLYAQe/1eocVsmCN5/LIhyX8Y582qvmElEO6qvSmsZmUMIGw2UX5K64a+dT40MqMYfkh1XI6tIW6qv3iSxfLHgAX6Zqp02eSsRSSW1AWGRQ3yMeG3DSfR85oR1FOeJVm5NY0oX71XpUmhdRww27XzaA0lsJnl7bn5CcWMG1pOif1M7jxGKnxTWNpDA69dQGL6kSSRfJq0uY7C9OuYvyZ2QwoiKg6a4kRGVKTrTpqBqG5gIH9Zxk3Ta+V2naLyaX1fDmnjNN3K/hDyrL+LGO6pZ+jwXfoc20p1XGbNCvBlNH5pP6Z0P6WHsCW8zeLEWjmAEGTT1SZh+Fy+v2zuWZkB9qnpSgsrshnay06VdeqNmSXKStdRtxazAdXdKNtmvwyogldv6NXruMgcgRKZwr4BDcQaOHrchWNI/peOYP3Lu1Mm3RRR9MldVvNochEAQNfEWOS+rIqdqB03uWnuTUO+98wn5P3SWPHTpmc/nSN+sNB/Wz6dYS9e2axbTaUVps89Gk5L3xdS13MpV9hlEuGZ7N7QYrqbqbzcwK6AnJeoDGxxvCqDn7rvnSV81OlRcnK0kB6tBkOth496V6JUk3cffR0PrysF1m2pcRaRN3NkraL5lY0V5rhODflLTX4HnvcvITFFSJ4E6d4TAES+2zqQ3OuVJ8+1SUzKyRVNRu4jrRLN0UdU8toq8Cbap6keuHqIjpZU4rzpn+W+GvyrCqT+/+4ELup32FzPl+zBQjrG7QnP19Et7w0du+cqagVSnxorQ8qRTiR5jTggmdn8eNSm3cu6oyt6kiDid9MN11Zmr0u/4lPr9qW3KgsyN9au/HHTDkFhYLm4dWuxXOTVvDKDzHqGkLcclw2OxaEFa9iVnmMfW9eyeVHZ/HkuxXMrQ7rdItrkSqql3ack3cKceXhbdXnRRNAtenWvTyV1PYGUZ7ifQRdBNdTpqWMo2voqiFiqiW0qKI1vQlvmnehgKbi0fg8/mkpO3bLpk9BCiHFSNeKdZst1dc0t9pyFpBkJvvctpDiFSIP6DDnhgLVj6GpD1VAQ5wnv6rija9X8sS53UnbAKFQQwCpvRduu6mUA4UwLU5VbcImIyTS9RosaIE60UIQvpS++7V4gk39SC3na0YjsFUBhO9L6plXWs/wftnKH9elkI1NusiIqsJF6jyfHa4r5sy90zh/77ZapEQJRa0pMduM3oXC7r0v/5FPr+qlAEJQ4NKcbvFX70Wa0JpOhDInwYUvLuGdqWGwXXbpatAp3MDNx3ZURK2SqgQDxpaRYieod0wsO0TfPJdZKzwqHFvpQGS59Xx0RSFt0yIYltRqazVEZdJU9cqGtnKtoKm9JCGLBV3ugifQTF6JTRlKLU719djQKf/IN6GiM5Jmsaiz4LpxcxlzVJEy9bqV9er2z3/kbbZcW49AHI/97ljIrNIUNc9mjW5P5pYI8HgJlsZ8znx4EYP7xDh7756qJ8KvHWoNCZlbyjINj9qEx/uTF2GaIfLSoLzeZ9de7cgJi30NqQoCKeVVSoMaUTfSkGl543/mEdiqAEKtD89/Ucapu+bqXgxB7XnjF+QpGUlY1uAyYMwyPri4LZ1VMxOdkpBjCwD5JpkjYuL7XD6Zz67uTauIBghbUxWD58dxfJt/vLCEcZMtcqIOL5+dTYc2gNuHXwAAIABJREFUabz17QIO71cEthgbh13HzGFefSuybI+++XU8dGoRURO+nltNSXkN2xfl0qONbkssRkqLAmopbi0G9OtGUBdKSYtaSTlJ2HUtSKHqrXXlsYRmo6FE0Hil+aGEoDhHC2+J1j9w6G1TGHduLyIpFpbhaQVPKd9tOZrFCEgd1X53LGJmaUSl3WZc157sLdAvzPfijHlzKaFolESshsuGdgo0/H95GLQkuFbtjsfi3PbmbM47rDfpfkLxujzP4t2v53FQ/yJ1rqSm3Cpwvp5eHs1i0FtuoslHYKsCCA2+z81vLuCqoUX4ZkK1NV17txehDSkjnF7uMeymuUwZ3ZWIZanOVQJ+m3NWX7a+3lf8yGdX9aJVRO5YN9jYag4H3plXwWmP1OCaNuPPTmWn/Ewlm60DN5puJwbn7enVnPBsjNaRekYfHKFtRoiB3bJ1YxRf9M9ERDSE9BiRogS1AaoSVtn4N7LEz3dI+DYvfjGPQf0KKEgNBQqHUhGgpZaF3njErd9z2ym96NFaOrMl2yk1N6Cgw8FxYkScMDd+uIB9e7Rm54IIhuoRn7IhzLTVTKM/w43KvBp8+wJmLBc1xQQzri0gp0k6jic1AnTlvOPBwFtmccpuqezdLZsu7W3sDXUYVKmCGA4hHv6ohBMGCoFSlpeWKxZOy7ivFnDEgI6rGoZ5nsmCkqW0aZNLakTzo9ZO8CY1C7S4zwaTgH+G1/ynf4atCiDUSSvS8Yu57ohC3adhbflY0d9RXrfHEx+Wcv/HVXx1dY9mGzFYe3YpgHD5T3x21bbkqBTDKm3HrWIiCs3pxMdW8Haxz94dEzx/Rn7QJ0GIphrwSDh/ZkkNndplsP/YKcytziPF9jh7T4NLhuQpACB6WJt3JFUoXJZUeux20xKO2N7htiOLlAa5JSkHX6ogYrLdMuTmYs7fvxVHbZ/dqEnUb+gMtnk3vUnfnlvj8cm0co7vn6srPNZRUd+k07V8uIlHQDgIB95ezJTlWdhGA1OvLWwCgBC0gAtSA2Id3plazgOfVzK4s81Z+xSqNJnuAvjLh+vFMP0wn88rZ/qCak4c1AFbQKYn6QRJjoSZ8M18Dty5iEjQ9U/kiitr6sjOEIXStRufybU0OVw3QBPdGeEtCJpv7OAEZchNPNYtp9tyI7BVAYR6H0a9NI/RRxQFvc/X9a6VvLThc80r86nD4pZDO7QAhC03f9Y4c8yHoXcWM3NZOufvb3P+vjlEgvylZkmH+HROLaPGL+b1C3pSFU9w7EPzmbvC4Kj+qVx/cDtCxDCMlM28Y50zFZ2MT+Y3cOK9S7n5mBSO2qEVJqGAu2ISN1xs3+TQfy+ga0EKtx/eVsUmVK+OVfLIzTOCE/N9rp8wh+sP6oJpiPkWrY/NHLaWrzfZCAhAGHZ7MT8uzyLUZAAh2IiVbJiF7Sc49tFSVlTWcfvx7emdlyqUQzA2EKqQyJnvMuqVeVxySBfSLDXr1cYuzaYM3+eJj2Zw0qBtlFy5dKoVvkJNfZy0VGlhrQnA6043nbaTEKH6SUmc6wqJpCxyyxRtsin2u5zoDwMIyaYcm9JiUwDCja8u5JpDC1R5juJmrTVMkmKQENmBdyzgkO1czhnceesDCFdvS07K1hdBaMBj6K0lTCm3OXGHKLcekYJBWBsLD6ocg2MenE9ZXZxPL9uGFNelXjyMhMcHM8vIzw7TtzDjN/RYX89a8aWPu82d7y7kwQ8bmD6qiyKveqbu/iYgUhpBCZflpMdKmL08xsRLOhElgWdEtOb5ej2l32VdbvAiItF9xpNzuO+kboSDhjsb5G1u8KwtH2iqEZAesQfeUcxPpdlY1DF9VAeym4AiolKohqFaBEtTot1unsthO2Vx2eAc1ZhI9RzZENvW95mzsoHnvljBZcPEgZKugSHd1dH3qHMt7p+4mAsPaE/CtAkL68UzqRaAkBYNhM/X1vH0cV2HGsegurqacEqUqvJKOhXmKarw6iZ1TTXCLef5PUbgDwMIQrQS0RwpWZOtcGOQ5Yo6eHzSSi7aLzvohrhmFYMOLDuKm97zyrn8e0Qu+/fJagKAsPEZtY3/5Lqvd1WKYSsFCNIU5MTHS3h3tkWuneD0fdMZtE2I9ulRllbXc+s7K3l/ZojebRze+WeB7nboWjimS2WDz6MTF3LxQUWb3fVOk/rEgsJ1r85hwnSbLy8pUm25ZZ7p9spi4BxV3njnu8t4/Itanj2jDf3apuqOaEEHiNUzc0NvNqgB26iZvKFzbcTS93xuenMhB/bLondhRqCDsAVYcBtxKy0fWXcEkgDhx9IsbASgFjYdQPAMKWZBOFkDrlnAC39rTR/p6CnCYRshzy4ljY98voyO2WH265WlO/+ZugOgh8P4b5dTkJ3CgC45igysKh5UGkv3sBH+wdqdZiX5sayiVnW77do2C2H71GJTUVFN+5wMbYMbGfm1V4DW+tBHsog5kD3byN2hZRZuiRHYMgAhECpyDFG6kyZJOkwrgaeEb/LG91Vc93o55XUOedkG5x3QihHb52AqlT3JVuuStrU7iH06t5o5ZS4jdxIdBOlhsG5DZNkYRPGg++Uz+OCy7nTKXDNErGr1XQ/XEG48irWr7k0hc81klJp8SxZh4G2q9pnq0798iFSJ4Vg4VgJbkSelHG/T6ppkgfS5/Ac+u7oX2SnhoD/Xhgv6tsTE+C3n9D2HTxY0cNYjZSwjjUjCxTBFOFmLXTlmmJDvceWBJufskYtj2lIFiWfF8fww971bzFn7d8ZSUtnye1FH1B0UN+VQAMHTZMjrJsznrSkJJl3WXXXCkF/q4hdfsCSObfDa5KXc8k6Co3YIcf4+rTCV4FDy3WndS5nHCSNC2HdxFcCIaw6MMmyGqq7wLKmsEQAiMsiiW2Ako6tBu/Fkv7ZkO2ZNCBMPa+MgcqNR8B3enrGS6nqDw/q1xpKujs1U32NT3t2f5bPiAB1wx1ymloo8ksfPo/J/A0AIuoSqtJfwZuRMol9gUGcY3DJ+CY98HWPyVR1plSpzS2unbCjXJOvxny8sZET/bAZ0ztJ2VDQRjBA1hs+N4+Zw3ZFddPlsMDdnLK+ia04alqUb34kyre4CmcD3LGpdhw9+XMHBO7RVZcgyox3fYO6KSrq3zkRUZEWQyfV9qhKOao+uYou+SYPr8dbMGib+UIFEITPDJv275NCljU3fdiGiYdlH9PwWW6w0GTYKiP9ZZtMf9xxbBCDorgL1GG6qYovLSxXj7Bg2C8sa2PuWMkbsZdIzx+Plrx2+XBrh3N3iXHFwe0WUwRZx3aSI8urN4aXvS/CMVI7sl6VGTMqHxLw2PgQgxF3oeeVMvh7VndahtXLInu6k/cZPizi4TwcMNeFEdClQ0ktq/fhSOqaJkK61+m5+6VUJKq90fGpqPXLTLcJ2AmtDbOK1TqYjCJOZdPW2WydAUKn/Wt6f43L5f1ZSUhcipjwQCX0miNoOx/c3uO7gQqWEKJuuzAnp2C6b6etTV9KnMJvCbNlgdbtSjd5WN2nemKWi8Gkg033TOyU8+nEVM0Zvu0bkVWVFpZe8b1BcmeCUxxazc0GCUSO6K0a3FBOKSIxoKOi5ZmGKmIwCKy6eG2JRXYIax6V9xCI1zSYixRpK3VP18lSbvxyOb1JbHycRyICn2BZZIdXIFt8zNI9rE0GQ6H2UuwZPvr+ICwYX6rWwNVW8bMyL3Io/Iw3m9r1rKTNKdVXMtGvakytFMpt6qHmsBYuEGyN0k3rf5fa3l9KuqDWjnl9A8eju2IEdUwh1A5un8A+u/s9ihgxIZ+8u2erTCQNsL8GDH5TRpSDE/j1bB2Xkmhh53lOzOXtIPj3yUrXFVdVFqngcKbV85fsKdu6WRWGmOFL6Xj3P5acF1exQlKbAh+M5PDqpjJverOGMgVEu2CePcMhn9KulPDU5Rs9ck5072Xy/wGVBOVTWQ5oV47Ezi9i5jYlvC8iQtuabOogtn/+tI7BFAIK2qMqN49WptYz7aDF3ndmTLDPO89/WcN34MqaP6gSWSb3vM+SWeSyrDPHVmCJypJmP4GAlgpTsfq0f74kvFpETSeOQ7bNVf2xd6LMuQKhzDHpfNYNv1gMQxLN0aeCL2RXs0a29Cm9LtECMufb6JJwmi8WkwYQU1Sq6sdDo+oc65v8fe9cBZkWVdE93vzg5MQkYhpyTgIAEJSmIERUVF11zVswBzIAYWNfsb1hXWUVBBTEiSUVEEUkSJMdh8jDxpU7/V3W7J4HODJJ97ccHvtevw+3bdatOnTpl4LzntuO3fBfOaK3hjSvrrkeufSQWSnpgDX58pD0S3MQo5sbWB/tsj/jvmEtPDpgE+Ij17NPw5U+7UKZKSIxyYHivJkh1ETfAyXA/DAcMgjYNGbpsIK9cxSMzd+P1KzJgMg9AZ7lmYmU3DEOwRd9MfL05gOve3IVNk9vCKgypHBcqcpQ0J3yKiS4PbsZVg6IwblgaPKwrQPXgNA85KcHzw2lWQDcjEFAkvDp/B976JoAIjxcVoQD+fVki+ndMRCRF8iThTFGUoWFLBXDj81uw0+eBX/LAgXJEmMCNZ8ThtoGJrGYnOWqKONXnwREtkZzS8bO248nzM9m/aChiVZ/zhPc5uBHQTR1nvpiLVTky25TZ18filEzhetZ743RBECq1edJJ3yWEYsODO/67FhMv64QFvxVg4qcF2DCxXRWCVA8HwTA0zFpdhF3FEm4/LQKmQbwCAyvyAvh6dSHuOb0pHBa/i9vJSQYe+rQQg9q4MaxdpKW3IVBBRQN3yH1zYTauHdJY8Ht0FZJMQVg+mqXGoF2jCA4Apq8sxNxVhShTPdiW7cBFfSVc0CMB503diaVT2uKdb7diUJtkdG0cBWgqskMKrntzM9bmRGDh/WloHk08CQ2SHEYQ6j2H/uKOh89BYHRMw2Ozc/DKMg9OaRbAtKvTMHDieuQForF1cgYcChAyJNw0PRefrnPj2eHluGIgyeu6K5mv1b3hl5fsReu4SAzuECPg4gNo7FNk5WcHYRN+faIlEsn4VovOKLbzBXSYsoEoIvsahB4EmfS4tgC46+3tyFcduO7USFzfjwSZrJrfOtIFH6/Jxc3TgTO7mvh+QwjrHs2Au4GrGhGPOo9fix8fbntcOggmoUbUgZKEWCwpbNZ2ZzqAWASJFGjSeOsu6MyepiheuHpUh/3kF1tx51lt4DFMSKSbYFIfjobPcotPjZ0lKgZOzsLSCY3ROLomu5tcRUopEVZw5vM7cGp7CU2ivLjylBRxQoPSCk68siAL7/5SjqFtvZh8XlMs2VGBhz7Yhel3NkeiR8bWIhM3vpnDlRg3DSKIVcR8n68qwriZQYR0Lr5FRqKETk0l5OwLYOMuFf+6NAlnd4yEqXjqoQxZcwxMU2VRqomfb8H4s1uR3p2lFtnwsQr/4tCPADkIt/4vGzPXi66b1/dX8PjIRuwsNCRlxvIfss6p2bnr8vDtymLcc14GUqK8+GB5Nh6cXYLNE9uxbogoK6xbUdPUdRTqwHUv/45p4zqAgI0FO8vw/twdeOHKToim1qhcpUABkwJVNvD9pgqs2e3HHYOSuRSZ9M4oTauYKmuN/HvuZowb0QZOw4QqkSWQMeWj3/H4qFacMtxdauDGN37HjLu64Nxn1uHhS5vj8v/LwcjuHmzK0jD3lgz85/ud3NzqtqGiPJqsQmHARO9HtiMlFlj4YHO4GaGz1RwP/XMLH7HmCOzvIIiKFKueVYjJsMSr6RCSm4KTzrWwVPpCO6/cW449+eXolpmAxnGUZ3LCJQnj6tRUPL2oEC/N1zDj2ggUaR5c+98iPD7KjdJi4Is1QWwooogLmH5lBE5rGQWJ81tWmYzVPITOeet7u3F5/3j0yiBP3MrN11o8SEkxpMto+/BmrHysORIsB0EAbwJ12JCvYtHaAtw4KJ1hNHppN+SpOPfV3bh5UDR6tojCja/n4aM7ktGGcEFapAwTi7eXYs0eAyO6eNEsnl4rTk5wdPnonEJ8scGP60+LxnuLCzHvrhZwNRA2DhpAtwfXYvGj7ZDkIe3zuvOJx9aEFvwPMiwyV5mwdbPmErsAIo/K0YlIITByY6US6BltKgjh+98LcVX/9EoyVF113QcaA+7JAQnFPg09J2bhk9vT0CnZxciTmDKCaMXdP00Jt0zPRlyME9v2FOCD69tbPiWp3Et4d0kelu7UkOTy4eFRLTFi6gY8dn5TnNoyAhITvELILXdg8KRNWPxQSyRGuLCnPIRB/8pGKODEvedE4KKOHiRGkyOgQYOMDflBLP55G24c2Q4yqzw20AuibqYAnv4qC7ePaMKNgBo43Y6tqXOCXQ21NZ/xcxFumxOCZESiY3Ih5o1rCVmiFuVOSOQAyzUR0v2GgNKlkgmXruPT1YXsWI49tRm8CtleCXkBAwMe2YXFjzZBitfJFTqi7Xlt3pV4F7jk0LKBRBB/ckE+1JAJX3kIiUkKbjstFV6ZGpjRO2lxwAwdG0t8iPV4ceu7OzD9+pbsiCisNBaACSc0KJgyayduPDMNiR4JRUEF495Yg6ev7IjUSDqjjBe+LcRJGR70axGBEZN/w5wHuuKa/2ZjwVaqeFIxZVQqXvtuFz74xcSCuzKYKCxkxHVM/HwXXl+iYO6dqeiQ5PzLJOYTbKod1tvZz0FQoXJDHJpMhABwHtYgAyZ4ATzFLBirPGTi0U/34IPVtDDoaOp1YfYdKbjnrR14/eaW8Eo0YRWUGCY6Pr4Ndw2LRawHeHS2jhC36CU4OgIRuh/ndffg2YsSmGYjM7ROcrqC2GjXKlz40hY8ckEaOqVGCA/3AAsolekQOabthC1Yzg6CYN6KC+e8B3b5gP/M346Hz23Ok51yw3e8n4Xs8gBmXNuCKvExcMoOvHRpPPpkEolHxxfrfLjpg3zulhbUgcnnx+L8LvGc+6MFb97aYlzzfjGGd/aiY7qCWwckQ6n1otb1JP3UQ37CWix+pB0SPXYDnrp+dWJ9HzBMjPn3Mvz35p6Idon8rYi4GrqAWsItJtD/qS34R79o3DggWRyFn4uYC9wt1HDgPz/lY/aqEFonlGHKxe04qhKERgM0z++YthUd2sThmt6NcNKTW7DojkykRFHZpEDBFm8qwYT3d2LBhM6Id8n4ZFUhbpqhY3SXAJ65pKngJ5BIk0GQswFNNuEPaIhyiyZRB3F7XLHz5uJC9G0VgY6p0eHc7LH0Kpg6dvuAPhP3IIgYNI4qxvIHMlkWmx5UvaoNOEqnLp4SdhSWIzkuAhGE/bMgHOX4DfSevBMv/CMFA5pRSpLQUG4iXxtuEk45z2edMr8IQcY7S/Lw1NclGNXDhUnnNoNHIpI45fmFE00oq2QYePHrnbh+WHOMemUzpl7aHK0SCdUjeiKQW1KOj3+uQEyyG1t2BhEfJWPbzmLccUFztIqntUNBma7j3mlb8fI/W8HUJYz+v8144bJmWLqtDHd8VIHnR3sxqmsjTPp8E7763Y0XxjRCj3SRjiG9hfd+zsGdc4BPro5E/xZRDUJgjqUpcTxey/4IArf6ErKuZCB1XqyFNC0ztbkywYCqSxg3Mxufrg5i4ohohJwmnvg0gDfGRuHx2ftwVjc37huZDsUgLxjo8tBO3DAgFh8ty8b2ikZQJAUpCX50SpEwtk8cBrZ2w0ETk7xr4u+zF0vns2MrHWf/ezuevSQdbVJJEMQuK6vpLdtVDB3Gb8SyR1sh1mUxe1l7nzYFm/YZeG/xdjx6bnOOdEOmjrbjd+Lx87y4qGcq3lmSj9cXlWDRAy3gdgGqH+jyeBbO7y7h8dFNcNPbe7Fmj4b59zZGAi9iEoKmhKHPb0VJhRc/P5AOtxKCAleDIEW/BvR4ZC2+e4gQhL+ng0BPafXeMuzZZ+LMjpEWKamBzoEIlHhxJ9b0h78U4NVvy7DgruZwy4SIcWW2VVilMw9hd0UIQ57ZgasHx+G87rFoHSf6Pzg5/WEg2w/c9s5m9OnUBC9/VYYxp5Qir8gNU6NI0EQjrxuXn56MtvFudjpe/b4Yk7408dLFKs7vmiLgWG7hQ/Pbcnx5QhJJsY5I8gCWRXAwTXy3pRDFFSGc2zUtbDiPIQtsmhoCkNFnUjb2+BVEKybWPd4IbtMhnAQus/1ztU4mezPipkOhNBWbZEIzFbbLFLZN+GwvEiOcuGNIIttstos1WHx0FOEEEyG70Kdi8dpSzFydj5Nbx+O87sm4673tGDsoBSPaRcAliSouigGpYLy0HFiZuw9DW8bhvV9K8Onqckw6Pw3JMQ78sCYXQ7skYN6mID5ftg9ZISdaxWt48qIMuK3u4/SezfmtALllOi7vl4p5q3NQrJloFh+Jzk0icNLDe/DA+V5c2yMZ572wCpcOaoof1/vxrzGWCqsJvPb9Hjwy14UZ10Th1BaRPM8PwiIcQ7Pj+LmU/RwEjm6o7MUUnqRPD2LpbmDhbwVIj3Xh8j6NEOUy8d2OIMa+nYf3rk5E/6ZRuOXjfHyxogKfjUvFnN8K8faiIH54oCmSIwyszgXOeSkfb/3Di9M6EjFLoAJEAHMbgvWtKaLVrmIGAcMtKgeYMGgwiS0gyxj59Ea8d0MLnpx/2JXRNLnavdv437H0sbaIcgpom8mHXCYj4fd8A+//sAMTz89kB0E1dLQevw3jzkpCcSCImYtUvHhVAvo3d/P3P+yuwOg3SrDsvhRkxMj4dbcfZ71SgSdHmriqXwq/xJqk45dtFfjHO0W4opcDD45Ig8Is3/qX6ZGDcNJDa/H9I39fB4HMWUg1cc7Udfjwjo6IdpL0csNzjmQUCconXoNpyOj22FZMu6ExTkpzM0LFrHALl+DyKwm4efpObMoHLuwu4bqBGUJSlrkRQFa5hokzt2FDqQub8iLx0XUROLlZpCDUyhqXhImUCTnQEr7YUIYb3inFQ+couPqUNCgIADrJO1MqQKReeF6ysTsYCVrR1nxjfhk+WFqMh0k8LEzvPmYsL7uVhoHzX8/CzzsptWRg2eMpaEydSWkO8JXW5RiKVIIkhWCaLlGeSzpIVEorM30QAQO44a2teP3qViDXlNIMtSu7uDSSWptLKtbsqQAUBW3SYuDl9LEEn6ri9mk7oYV0XDeiMTLinOzEZPsMzPl+Gx6+oBOYgmWYmLmuCO8tykGqF3juuk6I0DVoxBnUCb2Q8Ozs7YhP8GJUr2gkeSMYWb753T2YelkT/LK5CM2SI9A4IRJ3z9iApy9qj44PZWFgKyf+fUkMZi7NwdghzXDNq1no3d6J6/onwq1ouHVWIWYtl/HR9XE4JYN6jhw/xO1jZkIe5IXsjyBYgtqmVIH1+xy44rmt2GUmoK2nGAV6JJ6+IArDO8Xi1g924eftJhbem4lvtpbg3rd86NbOgelXJCGnNIRBU3O5zvySPjo+XyEhLhaYPy4THiK1yE44uPaWbRzDSAqVkBFioYgsGaEJ3EWMynd0J8oVCcMn/YaFD3Zm0065ZFrwa+EHnEYgB+HkRzfh+wltEOUwuczMp5vI2kdVtuSFuPH+4h144rxMJifqpEj2zF7k+ZwY1b4c953bDMku0U0xt8KP174vwftLVSwd3xjxHgmqJKH9Q9twWmYU3romRaRBSOPZcGDaqn24/xM/xnQJYfJF1N6YijXqN6HJQej+8Fosfvjv6yBQAERtZJZs96Gk1MQ5XanZk9jEYlp3GZcIrgXHQDYDXDVx6et70aGxE+NHpsJJTgPDscLYSpLGEda8LeW4khy8ng5MOq8RZKvKImgouPbN1Xjt2q7whkyc++4ObN4h4dN70tAyjqobiC9C9l5waagqZleFjn6TtqFfpgMfXNscpiL4GeQACwUOmt8qJMNzkO1Fxcvjl4G739uBl8ZkhA3nQRrBw/Ezgt8V3cQtn+Rj1q+CPPjIGQFcPyANhuLi4Etw7f44FiYLxx1rOZjShHqspWNIH5OdpABmx74KGCEVzVMoHVqrrstSIDKVEGBY2iqWg0FVPA6yl5IHIa7WMvDBj3uwdD1JKqs4q1s8Tu2QCrcRgl9ywE12V3NA5csgBwhwsfAHlSAS10JCUHKiKKThqmfWoH/HKGRmJODVhTlo4gWmXNEOGVEivXLz9L0Y0T0at71Xgg7pEjok+PHABa2RYEooceu48qXtqAhoePbyljj/pR0IhNz48s4UdElyAKxTEsYQDse8rX3M/RwEgyN4J37O8uOqV/chPbocb97eEhkeCav2liIl2o3kWDc6P7oXLVMcyC/QsDvohKG7uDysa+MSvHNTK+wtCWLMizko8htomQy8dEVTdIwjYyw4AXVX44gcMu1Ihl4zNQyeuAmLHmrPDFqKwvZ3EISCHrElej64GpeekYhVm4HtueUoCQGBoAsZUSqm3dMab329E4+c20yIb8DArPXleODDbPz8UBu4HRo8JhCAAyUFPsxY48fzi1T8NiEZbqqVM3X0ejoLHRKceOPqNLhM4NedxXC6JXRIj8OslUW4b2YBzmnlwAtXZnC+TvQ+q1lRUfthELeh08O/4aeH2jMHoaZO5JGYDsfCOSgtIBJIl7+0Cq9e3wnRJJRCeVMZcJFVYgPRsK0gpOKUSbvxyS1paE85VI7gFRbKEnoaEkK6iTNf2IpR3T24aUAKJNnFcOvMX/KhGgbG9koESdiVKxpGv5SDdUVO/PMkE/efnQaXZbDFk3aA+lKc/nw+gqEyLLq3BSKYvU6pO5G//aubeDVInkvB+E8248nzW1PVcHg7RkaAUlvkzL79cxnGz6mAYTrROioH3z/YiatcDtSq/li4dDtxy8hnAy9IuO4Gox5E7i3xlWPRhgqszwYmjEjmzpD0IlO6rUIzcMtr2zBvbzQcsoZ3LvWiX4d4dkKIQEy8nj3lwNyVhZgyN8g9In68KxkZCUQ0PghOUgPvJby7GIH9UwwGtdklzfxdyNEUfHldGiKdIW4hKlE0Bg9DtwOf2IiCqNLvAAAgAElEQVTdcjwUfxnG9o5Ay7QIPP15PnwhN07N9GPatW1Y9as4aCLGo8JpErxPCoP0ayI6/LlqiMi/iVnKbU1hYPDEjfh2QjvqGvwHDoJIJdC2PieA7HKdf58Y4UCix0R8rBcVvgC8Xic+WLgV1w1ryXr9lFZRVQOTvqY63TI8cFYiRnSJxcptuejdKhkvzivAi4t9WPlwU8Q4Cb8wccv/duHH7QE8OzoOA9um4O1FOXj+Ww19msnolunF80tVqIEy/PpgMzTyik6GdUFjqgF0mkBCSR2R6BbpkIa+pMf/xBa6hYTCf72hCHtLNFzZN8mqWiEBW9dBsfUJJXr681yszglh2lWE7JisVUDoATWkIabNPr+OES9lIUL14OsH4+DmSN/A1PmF6N5EwYD2CTz3ZF1CVkUIpzyVj/N7AotWlaJ5mgc9m3nQNoUiRwfmbSqCKyoZny0LYvnkVCToxDVggo+Y1H/1wXLkR8x0A5O/2IZ7R7ZscNXM8T9XjuU7oOoYE9sLVfSfmg8dbsQrxfhpQgvEu+uneHgs392Brs12EFiklLiYMLGpOISt2eU4s0McNImqEihMCkE3nNina+j5RC4yYzV8c1dT3p++t9N6ZGezK0LoPymLbcKaxzIQ6yIS+199eY63kT1617s/ggADhT4DvR7PwT8HuPDwcKrrFrkqisxJXZBM+GvfleOJBSGMbBPA1EsyEOcE9lRoWLkrgLZxDrRIJ1ldZhUIuJfzyJpoCEJV21zP+mfwmlV1wAgCMWYlDJm8CYsebA0H5+XEQlI7aKLiL6F7GIIOF5chMhtd0ME4T0yNbspDGiIjiBgpih/p7ggxWLO3FKt3BJAYCZzeIRFel4z8MgNLtpXgvK7R1EONF5aiChVFviBaJ7hZuKNCNXDJu9lYsZXGR9Tbt4ssx2f3NUWE08Ud0EDoyZ9s1Aq54/gVWPJQFyR6qKz0r68jR29qHeSZmZdF/AEysDLueHcrnrikGRKJoyKLtAB5D/s/+T8/H5V1lRrA9W9uQUKjGDxzfgLc9Dx4buhYtsOH577agwFdEvHrqly8flMHUL8sUjp8cVEhorwGruqdKPg5UFAKAydP2IpfH2sDVTewIduPbTkB+EwgxgUMahPFqNUZz2bjhv4y7hlOuh8UCbm5UucvmzgywsxwB6Yvz8egzklI84QhhIOcdYf+Z8yfMknVHd0m7kKBLwIO2cCSB5OQGUnooChhPgQz4dBf+18+olBApfeXHFjOvsmUcaYUm6iCIzusSjI6P7oHqdEuzL+T9G8sXg5PY5KWlpFVqqLblCJESn5snpzJpGFBiAhvR2IEDiCUZLIgx5XTNLx8iQvndqVmHi7onHMykF0aQnK0hxfEG9/Lxs9bNHxxZxo6JSmslkWRGEVlpJfNAjjsGNia4uKlUQxKM/x5jT8XoTEsy9OLKF4Y9uRmLLq/BRyshU/H2l9nkN0GIp1xHwWr1oGcDJ6YorxNVDsakGW6Rk1E6oRw6NQqVdSTUztVchqEYIelA0ETXFZhmFS+I+RxKedM1yhrIQRlN1buLMWqbBONIgwM75oAj0GSy4QGUIr6zw0492IYvwKLJ3RBgo06HEdKiodkwlpS15JOBkTCt78XYV1WALcNSeHaaKGvcBDJF50UHIHiAPDo5zn4ZWMAfVq54XIa2JCrIkIGrhuSjIGto7isl50QfvYatuSruOXdbNxzbiM0i3ciu0TDq/MKWJf+naub8VRWFKErL+smK8sppBti6vhqYwWaxUtolxIJltyiuXIoSFZMQaA+JwqWbC3DnqJ9uPTkZofkEYQPcghGwBL/onDlsv/uxveb3NwldN6dkeiSQFLEAlE8MR0EMX4ktWwSIZM7T4pUngjTZC7fJOt830dZiHaqmHBOc1GFYwolFaHgCOSUBdFrch5aJUv49vamjMLVVtg9BE8rfIg/GIH9HARSAFu0sQiXvxvC5b0cGH92I5iagbW5ITz1VSFW7FAx4cxIXMvNdoggA7SKJznc6uQx28oLIo2IlkT9rpBQtv6/rsdipQvIB1UhY+iUTVh0f2tmBIsOZH9AWKs6fRWlrXLXGldU2YyELkX0kLDyg+IflrxS1YVWkeSsbJ0d5te6ffFbq+WU1VmwLjyAXp+uD63DvAfbItUjBIb+HGepawCP4++t8SRJ4Xumb8Kjo1oi2k2VNVQ18NfMKgH9+0IGFq3N4dLdHu1Ske6V4bD1EdiYVc0Fw9SwcEcAz8zORWlAg+RwYkBzB+49qzESvaIc2H7eNWEfeyKKOSemU90ky3o9NebaUNUPsL3Yj0mf5OH1a5pB1jUYslM4rX9LCKpeo3fYd7J7fdBzf2Z+Pv61kEq3JUwYqrEgkWBWNbw657Bf+KE8QWWKWFi+SvtaDT+jOfxnQuMhw0SfiZswsqcHj55JzjitBBRg/mUM7lDe6Ql7rANyECjTe/KkPcj1ERxawR5dyIyCIoWQ5vFhxu1N0SJKZmidqYKsjX0YNstBIDtHOgOnT9mMhfe3qttBOAyXciQOSbd7/v/twAtjGqMp1fcdoKPlkbiOY+kcZFR+2FKBb3/Px4SRzWFKIUa0/jJGTykfnTgqpHcguAHUerzGZhLqoLB6rWxo0GQFAUWG2yR8iSBQUnU7SobK0nkgn5YIYaOnrsGsu9rBgJuZ6VyhETaiR20qCweB8VTMWleOm6f7QEqpF7T34bWxzfm6GE88StPnqA1MA0/Myrd5AQ5SO5B4EqeXG3iQ8O4HPQIHKHMMwjAVrCpQMe7VndgSiIRTNUGKxXeeGYEr+yXA6xR15DzJzSBDZ4cl+1npIJgImjLOeGoLFtxHcqVUIin/MYJw0MNxdH9Itzvlm004u2dzdExUOP/NRv7v/EKY4AqC+2ZtxZOjWvIiLtrQ/rWNDDgFOAp3a6Q4hqKSWrlNbtUglDJZRdQ04dB16KTOSZ9QqdpBaDT8tSu3fs0Ah9B6oGuZ8sV23HlWJqugug1LPyScqz0kQ30wBxFgEecy8eOOAC58vZgrTton+LHo7kyewUfLtzyY+zmav6FhpJQEyUgzAh2uYjhij+OASoqGIuQ4K0wZBeVBvpikSBcITWUpZFKjI4qhpaV/2IpOqiEIVKd7xtNbMf/eFieugwATv+wNYsmaPNw2nHoRHBI62xGbTIfrRJpu4Pc8H75ckY9bRjZFBOkO/GUfgXtTMy+FUDCa2bWpT1TPw5wHi/fAJeWk2cF1LKLMVsh7HYXNEhEjARzSDvl+Szmio1zomUyVQrYM+WFx24/CzR6Hp2QHjoSzgLV7KnDGKxU83+IidKyb0IRTQMdTp9aj+QRYHZeVfK2cRRhCOGKP44AkxcrsORtHqjsnOgnBZUTwo9IwkVESDW+skp3DYSi5iY8gtFATptOf3Ya5d7fiTo5cbW5Bw9VHi0vkOIdclRbmq60eiDMnwFKvO8g8bVUmmRYaAekK0FBwLERthCWEwtUcNa+hMsLgrwSzgY5TqBm46s09mHVDE/6cCG1HaQk6YpOwrhPpFBFDw7h3tmDK2HaIUuzOhUKRkMfyIAdJPCPBuv4jxSLBw7ZyxlwVU23hPcjz1nXPdX8v3gES3CEth937Qnh2Dunyt+LbEFd4gue46x6ko7aHeL+F67k+uwJDXyyGAQfi3SFseIRK+ggqP2qT56iNy0GdmLVPyM6K6o/jd9zEyiqaF4iNUcwag2Lxliq/FetDjUWAtKlqfcRdc2vsZK0plStSpcSWxbSjM9skWfuKxGfiuiy2nWkLBxzUkzvcPxLGmJjAVNJ11r+24Ytx1D6UWo0IrXwqeaw+2KRpIORv6bfWcl3Jehc3LXx3iwl/0B0TqwiMPKxWR0J7cIXOunASbDibW1Rbk8KSibSevXAyCD6jhk39n1iHHx7oBCpkkP726jfklOqsV7E13498fxCnNI3hyJ+epuhQ9xc8hMM9hY/Q8f26iVMfWY1vH+kMr5NyItxz9RAgLUfoBk6w07DzZpX4bcj1Yejz+6BKLsSgDL9PEkHO8bvQnWAP64jejliXKjeulLJMmB1IWquUUMsU65toLWDtx4T/Ws6l5WxWHrrqoNaKQ2uM0GDh2JhtZtXfvC7aTgfFz5XXdAw7CEJqVMRufgAXP78Zs29tyfcpGBCWvkK18aacrOiUVtXeVIyFHdOzgofQwmeFw4bX1NuLvMgxWn0lyC2xuk/y99xGWrDthfa+XdZpJ2S49oevnMtD+YmYkDQTQ17Yidf+0QgtG3ngIHGpv/HGE9ekGWAgP2jg7R924O7BVBIl4H7uDk88gr95vp2m18SvduHyfiloGkNVDCdqjf3x8TKIQITsl4ysMhWnTN4NPyLhgR8rHm6CRI/Mbb7D299rBMS8sGy9VdtRGa9XagNSDxkbFa3am/0CaxUXa48IPnl1s4JgXtoEHM16MpX4RCXkbR/Primx8WvhqBimjFK/gZJACD6V5u+x7CBwjlhiFrmqSDjn2VWYPLYtohwKglTXzh0nATUkhDicTolljyNdJlxOGW6njGiL8M4wMeWbTSK5WckAdhBqaZfXc76ylDpF/ST8JFuyyOx5iZI2rvklMSdThl81EVR1UI/4gC6hPGQgRF3dTGr5CxSXG6gIafzwoyIc+GR5Pv55SgJOzoyA8ncnKdoTXiK1SwmXvbYKb93YDVFSiCsIDInEsCpnfz2f3om3G41AQdDgbqnX908Ly9Ee7UdsAJqsseZLECa6T9iMfUYCC7gtuicebeJdB9XF82jfVvj8DR0Bkcq2l1kRmQu9HUYH2GMQSB+tUYQic2Bpq+gyuGyh4tXSBdT7RyzoJCgn2n+TAKCuCwVP+kzVZKgkDEj/T2law4BfdyC3GNhbUIac0nIU+YFtBU7sKjZQXKHBUDVAdrDIFQn7HfMOAslzOpktbiBgKpj2ww5u4hHlcsET7YTX4YLT6eRluaS0DPllIRRUGFiyOoC8Mspd6YjzyjipdRTaJtO/HWiTkYLWGZGIILESymFbeIrNrKgO3thLT3VUiD9jIRSgsBzYmlOMXXnF8PmC3BRqZ5GC9Tv9yCvRYegq3C4HEuNjcFILE4mRJtyyAq/LBdklIj2FS9Koa6EEJdKNIW1iEMd5ZA2yTAjC3ztXyUJVVFioh1Aiu/D0uz/iocv7IpIcSJn6KtQW3arE1yztjSo+yv5DWZUqYk++Os52pMbd0smolH8SE6zac68l7GHbKGta0J5kBHyaieFTV+CHe7tbDkKYg9BQc37I9mcHIQRFc8BUdFz4f8X4cYc4+qc3R6JXY1JgrVsoqbbrWysQ3N80HKyvfKBUa42TNdwGHfhSqltSEf3W3Gp/X/uJ7N+ureptr/bb2tyy6of9o1v5g30qj2/dEK/p1mXVXhdE7F6VVuZF34ryNQ3wh4DSIBDUTARUDaqmoySooqTMj5KyAHxBFdkVbmQVyNhbFEJxQEdFSIduSKzKKUjVhKBrjDpTAMoS/hxMK9BNUpulNUPmnkXU94LWUJ0CYxKh4qBYNEIU6LaFSljpWlqLSJaenRdCaI9lBOFAL2td08f+DXlstG9AA4KqCpU8KuoUqAKaZoCkd9lrsxopaSH6nASZJBi6hCC/MESOBBSVdPQJMpAQ4ZTg8RjcpVF4eQYr6rkVGU6FFnuTv3MoDrhdiuhaabEe6mt8Gv4q1vfIJ8Z+uQENs5bs4eTQVYMbs8ftsog8du25WOiJi0LKazQXqExRQHFVgli0gIZgGk5WcBP9Fl0WKnew2FI9xrjS0JDjY0AySFa7Ks3EHSaps6m1vrNqKIuDacJQOJz8d2lAx/zVezB3dQDFgQCGdYrGuT3SkBHnFgybv2Uvj3qM/5HYhelTQUi6CyFFx9TPszBlWRQ8IRlvXuHEWW09FoJQLc1QY0UlJpq13NA8rkFoFPOBEFRhW8RmNZevR0BRfYkTi7TdJ9Uemuq03SqBL/Fpld9gp0v/3GKxzbby2kKATOzPS31tomYtA28h6dZCZu1ulTvSDXOHVAJr+R0RtaNCxlq85USqZw6YFf3Z/Hram8avJAgUleso9gV4IQ6FVGi6yX+HVJLkB/YWO7C3UMUen8ZosKRJ3MmS/hA3jnlyHOnT5w5oBnUOAkKqzE2nSDUlZCnv0nXuJ/NmCQhyZ2PuZCzE14RNsNwLeyBsx8ROqdrBBKcT6LZpRtAfE5os9IAlQ5yzUnjPEBLt4jFQUESjqHOQKkj+NDIaI/DHnYNQ33fbhnQsDTtr8EQ1BGn6i1yN/S15VPTKGVB0CWXZ27H3m7nw7dkBKToOGSNGIqFdV8ET4Lp5ejGrc0+Fn2gxDsTIW2p8nMTgWRnON9b32dW1n2mEEIKTZVh37K0QCE6Bjk6ZbnRv3ghNEj2Myoj5LzpzCPMhXjom6ZgaSxiIZl3Avs3rEMzLRWq/wVb3TVL6OByuGsf7zGhnt4VLuASSxe18uY05yTELo0qzisi4QV3C0k15WLwhgOLCCjRJd6JN40RkxLuQFqcgKcbFhpIvmSWpLQtwOG6hrgcU/p6fnc69Z+g5q/hhp47RrxXChBuX9w1gyjnpUGpLbluLo5ir4vnZi4lYKOiPsF2Cm2XHprXApjrHv+aksGly1Y7GC4bIeYuDVS3pAnGljwUJU0DlYjcr6Kp8b8SdUFq3IgiU+XWUBjUEgrQIG9AMSsFav+SFU5yItF/YZjK6KsbAJnTquo6AqiIQ0lGhAQXFTmQV6yjxh+CnqFxXEFAJXidYXRyf4HXNkKAaJnyqAl9QR7mmcEMpQXK2kEPrXqyXiFts26kAJrZb1UuVDgcTocTaYbtKCnn1MpW30r3LYiGuLEwQkXuVS2c/KLGW8FrB6wbpstC1kfqqxZ6zHAD7F6INOP2I1iPRdoCegmJQ8TXgcUiI9TgQFykhLjqEKI8Gr6zA45ARG+lAUrwXqTEKvA4JkS4HIt0mPE4DbgmIcLsQ43XB7aBxOYY5CHXO83rtYHuS9ktB/lXNjZwGtSwHWZ98hvw1S1G2dSNcmgrDocKpKgi5PEi+4FK0v/hGmG5aYJRajq84dqXzK7wPS36aH3W9rjS8U/1GgHJy3OzLihpUifogKMgq9GNHvh+5xRqCahkkREEN6WjVVEFmo1ikx3ugkGPAqBG5eDp06h9nGNg+azqCeVloe9O9UEyC5UxRIXMYFlgLwBPOJvNYCEGwjQflDyVs2FOCDTkq9hQE4JB9cDqj0CLVg7apEWic4IHLMkqMQFDUQH9kUZ0jJqIgzYa3ozQCttIl11Tp2FqkY+AzueyQtk8M4etxTeGylJLsxY+xLY7m6BGK3jYMAQvKmXUjIhQhvIui2X0+wBdQESJ7RSWv9E5UGiL7H1boYp1PKGzuL3lPe2u6Dk3TOeKtCCkoLHeg1KfBp+rcDj2oyvAHDfhVFSFdILEkZEaLcVAnjheg6hIq/ArntyuCGkIaIbWiSyPVpImCeVGeXJ2dX90V+eOnRvZX9LIwuHU0OUv2AmtbYTtAq1xOK0uZ2fpz752aUEWlg8M+TjWkkRZs9ttpzESUzgif5VSIsJB+LdAVduRMjVFkCiMj3TKiI2TEeHVEuHW4JbI4dAmCJE88KqcCeJ0KYr1OxEe6EOEw4XbRbyVEeSAWby7trnKeuGW43QdIcSCCF3onIr1OeEkKxUIeuG6BvRKS+qaRp0BElOCyXgrfhxgnDl2ssnqrG8bfwEGw+yBYqmZiIKymTZY+fsHaX7Hu6fGQivPYZlNloaEoNFpwJSUgUJAPxVTQ+u6HkDLoLOsFtrskVKEQwqOzPX36n2r0uUpI5ygZrBPotMJBIFKnQyhqWg4ZjT0ZDHq6BJIZks7ytht2FGJLvoHtORWIiZIRR561143kRAcSIlzIiPdiy/89C3/2LvR4/CWOYCj6o4ZLh9pBqDIl4tp2FvhQVGEgrziAwooQiisCKCuX0Ll5FNqnxaBVqocNEjeOYjTEivMsJ4eNLC8iJP1sv+aWwQx7CEd31vM8Femt8qCGTo/kwCc74NQ1vHllFE5rGQs3txWgCUxkMomj2uziAHLKdOSW6CgLycjeF+LPSoIa8koJ7tawz29CMy1szOLiUH6anAruwVFpi6oilyp3QSzRVZtooGQTudmCcWRKc45FyKHymisiWrGE2nNNLPPidNVtn8XtIsTW9nIYwav5SGzVmKpPBXJRfdvPz61coGmxpvNUP69l4feD5KvORNfpUHQmske4JXhcBlwOEy7RIkqoA0iASwE8Lgcv3BFucHo5xutEbISEWK+KSLdh8cdIPJD6EUmIciuIi/IiOcaNGLdoDGg1eK+WWrA0cizIpNJZsfgAokGh7YiI957BwWra3LzAVz4DkUqxERjbpWQhLkYyxAgKVFGMF0vDVdoLG/8Qjmj18f4bIAjVplqlpyQUzogJWrZxA1aOvxFKoAJmlBcxPQYiY9iZ2Pjik9BzCtDs1luQ+9NK+FZ+B0lX0OW5NxDburPwAFnwno4lHk44YDtC9rgaZ6/SztU5+GLq04vBjF8TWL6lCL8X7cPKVSp6//wvJCp+mNdPRnJKAryKyeRWh2x55m5HjYicT8fdRu33VPxDiCoJY0rwZnkghHLVQEXQREXAQEGpH9tzCrC5wIXS8iD6tfOifWoUOrRoBLcsUAtbgrcKuK1mkNnRFBFgDXatZa+rCLdhj/QIzcY/OY14BjYC8PhXBXh1MUX4CpyogEPSkJmgoE26IJ9tyVGwO68CIdMDTSK9TuoCawnRcV8HsV/VUasK2pmjYD/yKk/AWissp9JOFFR/V6xUhcjRVyEWnCu3UiA0j9necRqAECtRKi4cCntuir/Jptq5bTKPdPUu2YBbBlwOQFb0Sl4W7WenDwRHUjhK9ufsdPBHtmaEyRE3VawR+uJWDLgVIMqjICHajeQYCQmROiJdFKVTt16RnqDFO8LpQFyUG6kJUUiOBUgqxKaI1lgQaywXwlmwm57tT4+sDhtbL6DFSRDpFsZkANNppSoEukcpj1JfAPERXo7qZX7G1Y51oIZuNQGP/efcQTWBqz5R7EPWtBt/LwdBiJ9WdgQ09uXh+5svhlSaCym2KXo/8iQ2L/waRV/OhqJXQJUi0OLq25Dafwi+u+ZiuMwSaFIc+r7yDryNSU9dtIGmF4ZhqHAq4ejb5HpeAcdHBOfqBkwlgJ/uvRVGcTl6vfYhCJQo1BQsX7sb2fvKsaNExprtZfAHNDSOcaFFeiSSonRQ7YxVaQuTGEsSUOh3YFOWhtyiCsR63ejWJgpNo3T0bZeJpsmUSlCY20DRCsNVkgJqjs6cCWYZV0p41fNOwrsdDyNAC2C5ZmLY05uwMRANb8jNi71OD54kvTWyISq3NCcHgrRTKOITCBlFkSIa5IqeSuKzAadCgYpIZzI/3UZMLR+yeuBiL/hkt2r4CLzYK6K5FPc6EC3snZKGaJeMxLhIZMbrSI4zEOEyea46JInz1QyTW3+cDglRXhfiozxIToxCarTOUThF+TabgqN9Po+V6WdSXVUDpgP6+XRP1R1jW7tGF63TDSIic5qRomMBpxNZvMZmccfYUHMn4HpEdHxOwQcQV0t/6pMuFsJ3lSFjJYZPNx3A3lzgslFfYv73o5j8Ltp+H5vb385BIAc1SAzNgA8/XD8aRlGu6HngioAW8jNM5NAl+J0qXKoTGXfcjcZDL0Bo5wb8dPvlcBkaKqKS0e/p1+BqkgknwW+kwRAO2I7NGf5HV2XbD51ycyH8ctuVULN2o/+MhYBCuK8dp1mvrrU/s5MNytGK+mKbuMSRjiTBxdCkIuBAhgEFX4LBPZNgSGI4C/qjkOmq7VbaEeLxNZzhq617BAxDR5Eu4bWvsvHW0gDKFaclpkYLiheKQeRSilpVOIiGK2tIT3WhXbqEJhEhpES50Sw1Ac1SXYikKJqiYEVE1GK9syum7Gux5q4FLtirkCC+1VySONq3HAMut5ZorlYrD66RkrAIvzUWS1roxOeV0XD1+nGb9EhzvxLJFeS66lud67a99troAi/gokLJDsJrROPW2k6pR/E9nZwQhj9rMm3taRJ5gjq2VvMR6nrMVnsAE9QT2QWJrs90MDme9QwkBwrKNIw4dRE++7oPUlOij2mu0N/PQaB8jq8CS26+EFpRHjsDrLJvhuBzGYjt0gepJ5+KXbOmwcgtQMtbxyN92JnQDBfyFnyK31+eDLeuQo9PQ4/HpiCqZSdBkjlWXcC6JvTf9nvKD9LLK+hFP/7zLASLizF01iKYsseCcqtztK3UAdVE2M4Fy2PbWgNVEYswgNUNloiabBa6YEYL54H3qlSBDE+iE3Y6cl8GUZioQUEwpCOnLIScchkVTPbTGYb3uh2IjzCR6HUgzkM5f6EWagECYsEhsEqxxNnsZbFacl+oslZttQl5+8+yKkfCLlsQpYJVc9gm4VW5HvtH0xKosR+RK8XiW1miV3n1Frmv+sVxRF/1QW2OAn+z3/1Y5Tq2U1B5CLue4gB4vO0UVXda6njdSFiI0iuUFpHgtBM0fz5FLQJ1uU/DnE824JIxXaDIQeimCxvX56BNuxQWxRvc72t88tmpyEgnB6E+qMTReTNOeAeByVuGImAoQ4ZWUYwld10N957NCCluQFeZR6A06YwOt9yL+LadmPW19LZLoO7aAMOdgrj+vdH9lsegyQa2vf8Ocqa/xixaKToebW6ZgJS+gzlPpSqA07AiRmLZH51nGj5rPUaA8QGupyYUMYDFlw2H6ivHoI+/g+SKrMrn/oERsfPK+4OD9jfVY7SqdlCi0thuiPJHpwnDUfV4hMfdLuKpajBJ94J6xVioEse1dvktkwEFUUzMJLEJXIncSkFArT6DbIZB5Vq6n05/fYbqT+ZcDbi8xupe48BUWcFUR51SJNY9WcQIUZZJ6qcu6zdCP6DuS7WdAUHEFfdICJ9GigGCVVRZbVTTKTcNSl3YaIddkSRqiEXQEiAAACAASURBVOoWIjdRXBLApaOW4PN5p1XxBKwUhiBKCJXEGiPCjqCEp6asxqcf7sT3S8+Gy0tVHjJeeHIpbr2/H0JBFacNmI+Zs09B4/RoPhTXeDBiIxwrVum1/iOt38ICDfGJDshWLCqKD8n6UPWKk6+C1id227iBm1WIT86kVe2xf7/auufFCe8gMKBr0OtFalQ6fn9hCrK/+wIu3Q9FV2DKDkT2Howu99wHhyueU1SGqWLFpIcQWLoIDtNARbQbQ6YthOlyAYYfv7/5GvLnvA/FNBBwyUg/51I0H3EhPI3SedLqDhNOJvKIjhHh7dgbgUoHgQAANYTvxgyBHghg0IcLIXnFSxvewiMQHoH6joDFzGewjKqAAsy0YeY8CQgpOpO5KSUrfIYDEeT+6FyqBdMLDgalVAi1JXeEGf+V/AT795Wev9WLoEpXourFrjOZgWXLcjD+4V8x94uRDPIJN992bMhZ2V8phdIIJWUqhg35Ch3ax+Dtdwcw+sALOgvCqlADDgwauhBpyQqydvvhcCgYNjIJD43vjnVr92HN2iIkxLswZFgGAhU6npyyHPPmFuHJKR0w9PQmHPDSOJC2w+df7oTbrWD4sCaYtyALixdl4aZbu+HZp1ciOcWDcXd2h4tKJOk/5rs0bDvhHQThd2s8qIXrlmPD/TdwnSor68kmIgadjR7jHgLghKGQ50aEIA1SKICtM97C7pn/hcPpwYAPFiDkjCDGASRdwub3XkHeh9M5n0XiSkGnjKhuXdFkyEgk9B0ElyMq7B80bC4e0b0P6CD4/Rg0gxwE6hYZ9hGO6AMJn+w4HwF6o2ghd3KF0PbtxZjy5E/I2qlgxMhGuOiitkhL9QKKbpXk0Sq/fwR+4EEQeXzN1DHlse9w9U29kZYcaatFWS9q9cWvGkmwsjWynUYRDkXdnTRNfPTRDrz7/mZ8OnMYK7JyTM4kUCFrLMiWtZo1mzo2bCjF2MtWYfyjjXHOua1FIBkwIVEppaywzsTg039ERQk5TkBMrIbT+sbh0rGZuPKylejY3YvVa8oxaXJrbFxVgjen5yM1UcbMj/ohLsrDaDg5Ikt/KMStd/yGf4xJwG3juuGKy5bCF6AUqB9OdyQ2binGiDPjccawTHTqGI2kRG+D59gJ7yCQ16YrVDMvY82TD6H0x0/hNLzQJB2xQ89C19vHWzlgByvaMdpAk0o2sGP6W9j9/mtwR8fj5PfmskMhakdlLufJWf4tNj73KBzlxYDmgukg+FBBozHXoeWYq+HiPgrh7VgcgRoOgqbi+0uHQPP7MGjmt5A8UWHv4Fh8aOFrOrZHwMpShDQTZw2eiTlzL4DpVPDghB+x6qdSvDN9MBonE+RNi623Vr+RP7u1EDseVEG5bn0OZnywHY893kfof7BgWE2kluy3ZpDMMJEggY8+XI+SoiA6dM5A6zaRaJQUxTzkurbp07fio9m7MPP909hB8PtNBPwq4mI9UKwSytp5ZBK6+mFJIW67dSO+/eEUxHipXDWE225aioRkGY8+1Ae6rmDwkO8x5orGmP/NVmhBCR/NGIQbbvkFe7NN+MqKEQp58cKrXXD7Vb9AiXNg/tyhVpkoYyiM0lwwaj7yshyYv3gA3n5jO95+exenMlo0A/796skYfdbPCBqiBcAd9yXjktHtGgyMnvAOgshAkXC2jmUP3YLQyuXcZS1lxKVoe/2dkCUnTIZgRJ0vcwso9SAF8dvUSSj67iu4Gqej38uzASUIHR5R2cyKZzJ0Q0P+L0ux4/N3Ub5zD6JadcJJ4+6BOyrV7kld1zwMf38URmA/BOFSSjH4MWj2D5AUIimGfYSj8FjCpzyOR4CWLoL9y8sCeHT8Ckx6rifcEvG8DLzyyjp8OXcvPv/0DEhOLuy1VEME1F8Z/1eTJaah4G/sCiIqJYaEq69dgDffHASFOAyKqAMyiG9g8YUJyX/91W9w2ZjT4I12Ys7sDSgo9KFDx8bo3r0RItwOTlPU3oR/Y5dYSPjww62Y+XE2Zs7oC7+m4MzT58JX4sXlV8fhhpuaQzGjqyocrIORg/D1N0W4/8E1+GHxaYjykFqrhFP6LcLAQTF49oleUA0Nw4d+i4lPnoQevZLgDxhwR5h45+31eOPlfYiN8+Ktt9sjpXEUTu01Fxdf1Qi339oDkqlBkR2MYtBv+g74DDGOZDTOlLFxawFiIh0oL1Hwwiud0bd3EvbkqJj18Wqcd0FHNEmO4oqXhnoIJ7yDQFAMN9OADrVgD3J/WoLETh3hbdbB6pRIMFEtqhmVvkkmlt81FsHNm+Dq1gcnP/ECT4E/hKaqK3eFFeyODzNnCy6FAlh04UBIigMDP1rEhKSgrMAd9hKOj+cYvspjYwRMnaV6/ftCuOOBpXj95dM4pUBh/I7dpRg96hfMmN0PzdIiuDKAQzdGACg4E/LI1H2XhEiEXLSg6Smkalu5AAN33fEdnpraDw5qR0ySy6aBBYt2I7mRB106pmL5qjzcfusapKYq+M/bvREdHYHNW4qwfk0uzh7VFg46J6cGankJbA9UqIaM5T/swv+m5WNXbjFmzT4dY0YtwNY9EhQzhHF3tcCllzaDZLj2y+sbuolfVxTimutX44MP+6J1Cw/2ZJfhgnOXYfCwaDw1uQc7UTdeuwQDB8dhzCUdIZGWBTUWDKn4cUk+vvwqG5GeAK66rhMMTUFSIyeiIz01njFVWDz//Fr8750ceDzAa2/0QOMMLypKTTRu4rYEqGy+B/20vumcmlPphHcQQjDgtCaf8G+rFOjosRiWB1o9g8UNRIwQvht9BqRAGZpcfxdann3pnzsIx8YrGr6KhoyAxW8q2bwWK++8Ep6MTPR58X3uskdKdtQutaEed0NOH943PAIn1Ahwg6oQgqUShp8zC4u+PQ+y6WRkdtuOUlx84RK8N+tUtGoaJSJ4q0yDBaJIcI6NsArJIFKfxpUdJaUhxMdFVA2TCbz0wgb07Z+I7j2SRdMq3RRdW61KkHKfgR17i/DclNX4v/8MxbS31+Pd/+WgokjB1TfG4Nrru3O/lZoCBKLemS5p3G0L0bd/Opo3T8Kd41agT69YLF1WDLcnCi++1hEd2sRW8idIqKn6Rgu3z6/i4ou+QTAQiQ5dvFi3ohCnDm2OhV9vwmOTumDAac1QXiaaLEVGeiArGiTqx2JSIaxQR6HrY40VmfgO1GmxerrahKGrrKeSX+BDYgKlPERvB2reJHQgZFadrIJCRZPBhhq0E95BYH+gslxEQFaEDtB/VG4m2gLXfE25Qn1fFn647HyeeD2ffw/RLdudUO9y+GYsQjKAHXNnYteLUxDZeyB6TpjKhoMEXMKSReFZEh6BhowALW2Ar8TA4DPm4eOZA9A0PQJ+TcfESWux5LsCzF0wBC7uzyxSukRoXL0uD6+/uhHJcU48PLEv5s3Nwq7sfbhwVEskxkSIZiPVtukfbEbhvlL07BaHzRv8yGgVhT590+EgzhctpkRLl2RcdNaXeOrf/XDVP5bDGeFAy2YuPPXvHizLzHB7NcPPNt/QsHzpTgQ1N/oPSMfmLcWYuyALn76fg2tubYkX/r0OJ3WLwD13d0PzzARAJpGm2jwzUb5aXKrhw+lboJnA8OFpyGwWy+fjJZr6XJB2DiMmVrkmkx8FqsJ/WDnTDmnpnqqTJkjDxRKmYg0e4mhQ+Shx7QgZESWQ9vFqEykb8kRPeAeBHAECscjTZIPPxe+CiGj31N2vP7dhInfdz9jwwC0suzv4ox8BKnEMbyfWCHCtMfDbS4+h+Os5SDp3DNpfc1dVGqneLOsTa1jCdxMegYaPgBADo6jfX6pjwBnfoHfneNx2bwc8/9wa/LZKxd33ZuDss5pxNYCpUHhGuXQTQ0+bh96nZiASAaRnurB0SS5OG9wE55zbFIkJ3lppXRMzPtyIcr+Gf17eAbpm4oEJvyIh1kTPk1Px1ZxdmPp8P15f/3HxPFx+dTtMeGATzj0/BZeMaYIIlwsO2UByKqEY1aN/6pHhR16ugY0b96LnSc3w3L9WYM6nFRg41IUnJw9AKGQiO6cMmc2jqwoca6eTWTxNArWkZwVF7jqrQmLnxW4rLciVHK5WIhliXaqEVSobXDEcYHdq4sciwlvSU6ExtxoCMpQiGjuR01VcHGS1yJh4J2RSdjtIMb8T3kGooRBKo1spuSlegQNVhtKisfv7r7DtqfFQYpIwYNqngKPhJSINf8kO4hecq6MXU8S7tFUq/bHaysHlnuxj2VdU7wraSlhe4Ic0/8UViDajxxRkz5CoieWP3obAL0vQ5Ko70PyCf3CpK+VGbUGjg3gq4Z+ER+DvNwK8OBIf3MQlly7E5m0Koj1Brhx4+PGuSIp1YefuYqxdvxNdOrVBqxbRCBkmRpz2Baa+eip6dIvC9dd9h2tv6Iye3eJB3U6mf7AOaemRGDQwk1so0xpakOeDk9ohR3mQX1CKyVPWIX9nAMPOy8AXs3dixsdD2Nacf+5nuOmOHli6MBdz5++Dphcj2huPkedouOvuYbWBCWtxJpqi0A0gTqSum1Cctuhd7S5xdVjF/exd1Qd/bAqr60OIfxMfQyZVRwvsJqknWbY0GCxNCWq7/cnH2/HJnF3YtKGc2hEDUhBzPj8d6WkeK9XQcOm+E99BOIjXlNCF3996Dnmz34G7WQf0fvG/1RTADuKAh/En1QR8WcqVUyfU7IV7k3M7KfY0Gz41Gn7RYq4KtEYIilTzfMlwWK2YG37kw/cLGq9l429AYPVytHnwKTTqO4Q70FGr6INRHjt8Vxo+cngEjvER4CBYx84t5bj3vt+webOCt/7bDt26RaC4MIi4hAjmGpAxeu+dtTBlJ8b+ow0+mbMHzzy1EvMWnsnlh2PO/grnXNgMY69qg8IcA6PP/xKfzz8LsdHU4ErH+rX5WPJjDt7/cBcqSj1wu0rwv+kjMH/uFg6Srr66M0fM8xbshL8igLPPbc1RNWvfgJpQqZCY4PjnVlGoFdZHM+HwPhfS8TE1GU9M/g7XX9+byZgC/bBIHJBRVKpj+MDvESKhP8kNWaPyRj/e/7g3Wjan+3ZZgt0Nu9awg3Cg8TJMrHnsDhT/uggxfU9H1weeYuLasblRPspgIShbocygGl1uDyty6TV6v1e2CrbuxobIakMG+0Ev/KrUHIIa2iQUPVha6AR1Wbpj5C1QORLveqxBCHzPGn6+7zr4161Gq0efQ3ovUj4jopAO5SBhuWNznoSvKjwCh3kELASBGieu21yCy8f8gomPt8PgU5MZ4XZ5HVColBwqVNODG66Zh5jIWKxZ70NJiQ8zZg5BZjMP5ny1ES89tx33398Kvbo1wegLP8Hn80bD4yIPxMFKhR9/vBERUZE4pU8qUlK8nAHWNECh1IXVIIkqErjZEv3NkL0Fx1d2rTrM43HIDm9ACwKDhy/A4090xWl9k2EyTGy3+xYdMffmlGNPlgZN1ZGU5EZsrIKUJCcHjBb5ocFXFHYQDjBkpqFi2c2XI7BrA1IvuxFtLr1mP8WsBo/04foBS5mS9jY5lKQYGYRZ4UPeti0IlpZx2M7rYO32p7Wup5KHUT2nVs0BsBVN+WeWZy0y+IL4SQ4UAXEujwdRSUmIatyEW9cK8XDRD/2A/dQP17jU57jsgKtYevdVCGzagLaPv4D0bn35WjUSzRI9vMNbeATCI1CfEWBOjygFUE0F/fouwsgzvbjnvh5weygXTzlyoLRExcIFG9E4Ix0l5SocioKUFBnJCR7MmbUde/aWoEOnxhgxsgkiPAr8wRAiPE7uhEgcMtI8YLvDjgD1WyAbI/7NzaKojJHz+ZR6JftIaIEdAdmYa13dHOtzw0dqHx1qSMKQ0xfgrLMTcPcdJ1nBGpVrilQIh6+s8KiBBK1Ng6oaCD6m5l6E2hChsh7qULXXBdPGUY7UvR4H5zF0H3685GzovhK0emwq0nrQouFgL02xJidPvFrwk527EuumxTRlNilF1wT/U6tT2/Oz/t8wULpzC0o3bkCosIBloe3j0sMnSU9afGVuISwDigzFQU07ZBi6AS0Q5CZDps+HsqxdCOzNQjB3DySTmK+UraIrsWD/6ou/rdtQ+Zn1AtmNWSo9Alui1HIMaiyYFqpi9aAXOTIyAhIMhxPRTTIQ3bIjPGlp8DRvj+R2XeCI9lpuhejdzkaDtVCoPIcOIK6aHGR2KPg7230h88NP4RCs21Y+0dSw9M4rENyyEW2feBGpXfuwg0BGhsuMwg7CcfDGhi/x8I+AlTWvRBrFP3Ry/MnWMG+HWDtk1wLQjQiMHL4Qbo+JWbMHY8WqXYj2OJGcFgtfRQjpTWNFOpJfcPGScXUZE/m4AN16/y1CuY1fUqqSbRs5ArZtEAQ/rg6gPgVU8mg1tRINrri3ZKUMEjsPbL+riH1Wf3ZhLUXvdpbRF+Q+4fQIOpeowGBCIGsa0qJLn9GXtEZUoah8jEr7IeSiBTnRQlSplJOvRSAjhqTy4i5+Yu8v1hJVNXD66XORmBCN5q286NwxAmPHtoMvZODd/2xGUUEIJ/dphCHD0kQJJ+lJsNtA5xOiVPvpPtRj0oQRhAMMUig3F0uvHglVBk5792vIMYmVEDn39aapcID8VQ1+Hr889Gx1BAtyUb51G4KFOdDKS2EGAvBXlCO0Lx9lmzfAKMyDYurWFLa8Y6tGn71C4THwy1jpoNgFMdw6mOatzkRFEiohSMmkNIODJjdNZtJIr5VDqJy4dj2wECOpFIKqEjATn4t5yscRRxJqksIRoo/pxdbZm6W9CcwzDUPUO0tcgAPdoSC6ZWc4YxMApxPuiAjEpKfDnZgOb/M2iGqSwblBfqm5x72AzkSXM+v89sX85YXbdhBMLL1zLAJbfkf7iS8hpWtv0VmPHZaaOuv1eJ/Cu4RH4AQfARGBcz6f0piWPVD1cpQVbYGh+lFeUQBIkbjz7hB2ZTnw87LTYcgqHLqL7QHXlXFscQTTthaZTwQb5MTQAkyVaRKy9lZg1Yp8nDkyk50Cmcsq6UIFhM+IBHXgJPsmmfD5Aa/XKjy0Ayxe5AV6IcIk4VxQRC+ZVApplzDaBozsIwVJZPcFusqdJ0lSGjqW/5IPTTPQ55QEyIYTqi5h2LCFKC9zw+Xw47LLU3DJ6Lb459jvkJ4ZjaYtvPhyRhbe//gUtMiMqyqX/IuzMewgHGAAN3/yEbL/8ziktJbo+9oMKNDhKy6Gunsn9iz7CaFAGYtZ7LfVguSVUADFv62GXlQg2kBDZU+b/VNi0AtHlFECOTYBhsdbg0gi/GtBphHVMCR+YQIsmUlRLpEPFbhkF1SPC86kRMS3a4f4jj0Q3zSDnQPueMa1sX++ooqJXf9NAChW01kr2hfn0lGRtRW5G1Zg79IfYOzeDam4AFKIhD1k7otBvoU9DnRdNA6yLsOMikVcr5PQuP8wRLftDndcAiubMWRmOUL0YtM9//Vm2vs7CB0mvYzkLieHHYT6T4Pwnn+XEeAFlhZWWjEVJhxzb8VAPgrz1qCsJB8ZLXvD7U1ho0YR+zNPfYqs3Ul45uWh7GoTIifAAgGNH0kHQYQ1QUimS9hECz3QJRW/LM/HO2+uxsuvjGD7WlMtl0SchP0MhEw8PfknzP86CzM/H4nURDfI4+EGzwa1uCaugwLDKldkP8MK9IKagW3byqCqJtq1joXbZUIzgAULsvHmG1uhBw28+mZveCMV3Hzjz1j/mwGH4sPsLwcjNcEDFTqGDluIshLgm7mDEJeo4PVX12Lau3l454Pe+M//bcDypXvxwcenoxE1ZSJtBPz10vywg1DrBadIeNmd18K/aTniBgxBYrue+H3aW5BCRVAkHRp0uE0HZN0mBYqFlyWdeeUXZTJUPke8QYfqhOF2QI9wwhPRCK6oSKiKDNPjQFxyJjzNO6B5n/6Q46N5f5lYvvZGobksInSetJaok51OE8iCqFawfFARvVu1uFYndQte+mMHQNxBzWj5QJSF2r3b7f7s9uVy5YRVM8GvFKEa0KkNBgrWLMfur2ehdMNaSAwzmJDpuoM+mKEgTJ0WflIzM2AqClRDQdxJA9Du6hvgSUuH7KL+CA6RerARwL9knGs6CMGtGxlBCDsIf2lQwz8+UUeAXxdqRkfV9cQDKEbO7l8Y7m+ceSpp/0GRXAyZswCgCfjLNqKiohQJKb0gU6TM4mP2dgTRA1sojyWcCZ0UzZ8kQ4IsqVaJOF1/bdE8Cy0xZOiyisce+RXzv87DG9MGo13rKJi6AZ/PwNdzt6J7jxS0zIiFpptYuSIP69buxXkXdEZ8jIsaM+ORCT9h6c8+XuAz0k3875PT8eLUFfhwRgWUCBkhfzmu/WcqFi/Ow8YtCuLiQnjmXz3QvWs8S78XFqm4+PxfUeTLxWcfD0bjJjG4596fsOjbIKBWoEVzBc+9MhCN0wilEVyMQ7GFHYRqo0gymbQtHTcWxtaNUBUVLlWCz+lgfXA5LgmNzzwH0SmZMM0AK29ZKJRINxFXQCaOgAyHy4PohBTISUmQ3FFwuryAg0g2dhkgvXCWUpb1GS2QImNmFSSwv8GYnJXzqkzX8QsoFmxxPD6WnW6o/ns+2P4v4/6LvU3eEQNyILyhepKCXZJax63SVbcEqYgxQNAcVzdIFspGHrqd8TChan6YQR/yli3B7k8/RsXOrXBoASiSBoUQB8kJ3RsJo2lLtLtwDBp36gJ4oi3yo+AsMFJiQX0HKpSwUyIsSlJ5c6IPLI33sjuvgG/LBnSY/AqSO/dkgxFOMRwK8xI+xvE9Anbe3uYw0fssobx0G3btXoO27YZAUaKqAhh6+ZhDQAgDVRCEsHXzLLRscwnbK12mN9q2V2Rj7Ly4nZytrjNQ3QpWRkzWP6zQvN4EIZtvAOimD7t3A7dc9y1uvK0zRgxvJq5DCUHiiJtsMslDW+wFvg8XVBMYPHA+7rq3A849O5Xt2e6sMowe/T2atmuKbeuLcctNKVj+Sy4CqoK8Ih/ydjjw3/d7Yf2KXBSXGBhzVSZemroSH3yg4eOvTsIVo5agOOiCwwwhKcmJd6f1xtlnzoWKSLz/YQ+0y4znFeGHH3YwMfO5ZzdhV66J96f1QNv28ZjzVTYen7ARpuHCc8+3xYABSZZ2i3B0DkVLoLCDUO0Ntvma2//3H2yd8TZcug+Ozieh42VXw5mcDm9SKiTFVVWtV2cevM4djm/7cYiuXsCWJiTdQLCsFOXb1mP75x+icOVP8KhCnZxjD7t8UiZugwSHJwpmbALcSalI6NYNjqaZSM5oA0+jNFZqo05vvNgbDkiGKegYZKJYapuOKQzZz7f9E77tG9HlmbeR0K5TLSN2iG4yfJjwCBxHI8DvB/sHQhnQMDVGTXfv+gaxcRmIiW0HqVoTpQPdmmGqWPfrS2jT4TI4vYm8yGkSAd8imJEZlrfyrXYOnzlHxJmiYEoXPRrskMlSwRVOPq3gVuBTZ/l0JWsKFb4gzhn+HfoNTYOhBtGnVzSGnd4WTrcohWTekyHDDxMrdlVgV0E5d6Nc/0sF5ry7C10uSkFERATcEQbWzd6O0Ze1RZ9+SVj1Yw5eeXo7QK2cz0nGuNvaYfTIL5GUEou2rVzYvdfEO9N6YdeuICMBH3zWE1dd8jPKNRNjr0jGFWPbkveCEWfMRVCLRJtWbjROdyJrTwBur4a33x6ELz/fhan/XoWPPx6OhDgXiiuCuHjUFyjMbwRIAbRu5YXLKyMpUcPUf/U/JJV3YQeh1sxmqUojhLKsvfB4PHAnJsJk1SpLmV90B2HYp668/nFkD47epdrFE5VVH6KCgBZ0f1EeSjdtxL5ta1Dw3SJIe/eI1I2l5cCVBpzZIQRB5n/TS646ZLgTk+BslAZvkxaIzWwBT0YrNGrTGobbw8/u/9k7D/gqquyPf2fmveSlJwQCoXeQqiAgICooCCIKiiK6rL38XV137b1gXdaGutZ1XduuvbdFFJAiiBUU6b0lJKQnr83M/3PunZeEIjUoyBs/Cibvzdw5c+eec8/5nd9PF2UcXNtk+p9GEdmwjmNenoSRmqXSoLpLZSuVz9/OSvErxy3w61rAFSeu4NiqVGjbpaxdM5eGuV1ISMzRNXehNtzBIen8YMUKNq6YSvPOf+Sjd1bz5BOLOe/i1pw6uo3K4KnOA9Ez8PQJbNWmZ2M4iepnmtFUJI41BqImGypb5Fjr3s43YjFodWFBFcOGzCIrx+bQzll8+1OxCghuu6oj/Yc0xXKhwogw6sGVLC9M5Pzj0uiQ7bByVh7/+edi3vx4GA0b+Hnu6UV8/mke/33laNXocN893/H2W4Uc0iWNzFSHiY/24fabvua770rofmh9Pv60kCce70SXLg2488ZZ3Pb3Pnz07jomPrSUypCrytf9j0qj/1FteOC+nwlGtGDTsOH1+ct1nchM8alOxahrYMVkm13Iywty9Q1z+Gm+qZQmU1PgwX8cSo9uDeIZhH31xuiuPYGeSLrJ0p0D2vsoRyQTX9Wr4kfdWCBWu1C0zB5fua4AqNqlEZGujAjhknyCxaXYYZdQsAK7MI+KZUsoW72MSP5aggWFCkUtNVKpL/pUScElpBQ7RfEtkdQ2Xcjq3ovMQzqT3a2j2hVNO+sEAo2b0uexVzBEb13lF6QsEg8Q6uYBx89ywFnAU1N0HZdg5QYK8xeS27wvppGKaQjvikId7Pi2bIiaUVb99AK+lM6cPiafl/4zkMsvn8RHH4zQekKqjdClpKiKQCCRxCQfqtRb3WIsmT9bf86VkqOAnaXCbmAp/oNdXYcFy2UQDEU5Yegkshom8dJzA1ixsphx53xLwA/Pv3QEbVukKtxUccjkzW8LWLWxkhO6pNGtVTYnD/2UHj2z6HZoKtOmbGLDhihnjWvF918X8O3cIo4e3Ij3313JVVd2YPTp7Znz9XIyMzIUGv3dD1fz50u7kpyiWxoNM4Tt+ikpc1jycx6paX46HNJQf8OZ1wAAIABJREFUdX9tLoywZOlG6uek0apFhiKaE1NLv4NkPEVmWoIo3eRpqTL3nK83Kk6J7l2zaZST7Jll73Ee8QzCdqa4Et1UlMHawcR2k6qus0Ud+4B77fe7AVd353plSB2GyUsUaxcS6WXZRYjtPXpRV0u7eh3HGhsqX5G2y3CQwsVLKV72PZt//A5n3Roi+Xk40QiWo3ck0n5q4CdsJpLZoD6VeatpfMq5tD/3Mk1MHeO42OUa535n1viA4hbYYwvE1G9Nx2Vz0UKCwQJyc/t76H+PByCGj9rBVQTEZ5suPifIO288x133t2burOM5ceTHvPnaMPxJmu9AKxNqvgMBLs/4ci0PTPiOhg3SmPBQP9KSE1T2QIqNzzyxgK++2sDDjx5NZrrfCySqG8x/eTSqJVs2dzZjx8xg8TIfI0cmcu21PXjs4fm8+FoF9bM28uF7J5OQrFsUhY1WSN7kmyJDXVQGP8xYSWL9JA5pncOtd/xAQV6YZi1drr6up+o2sB3JuQhKM6zKI66UQ20L23KxHMl+WliKtEgEnTTqTHVmKepn4UXQqoyaqV7OI7wyIUX177gGm0qq2FgWUZwTuWk+ctNlM6MBl9IabimSKCmdCt5j7494gLAdG3otsx5JTy0OgF0NVvf+uRw0Z/ilV7smqVCNxtzxg/DImvT5apE4yMLg2JSsXMiGWbMonDUduySPaLAEx7ZJtG1sM5nOdzxCg8N6bfnMD5qnEL/RuAU8kiFVXoso57hp03ekJTUkkNZCl/C8l1WRAXkdVTuym/54SIH8Fi/bxNixs3n0H7256/o5vPP5ifgd+GTyWv75+CJeenMwSWYYhwTGnP0/nn5oEP9+eQmb80OUVRRx5DEtOOWk1lx26WxmfVVF374B/vFYLwyFVZBSxU4W55iQlBvh0Ufn89nHLhsKizjvguYcd2xDLhj3NbZTzAcfjyArU3gLYh0NsfPqIkX1fcfwlFsgt73PqHylxk2pP6uzIRIM6RZL4bTRHVkxFUeBIEhnlxaQM9wotmtSVOVQErKZ/sMKflhlclSXRIZ0b0FxeYj56woY3rEpti+CJYFFDIuxNdZzLyZ3PEDYC+PFv7r/W6CaKNSLsG3JRkSjmJEQxYsXUpS/iWY9OmNmNcMSQGM8CNz/H2p8hHVvAVXSC4ITwHDDrF4zg+bNemFYiTiS0lYl1j3Zk0qnl0lxeZjj+s8iMb2MTi2TeOaFPthmIm+9tpZ77snnkstTuPjsrgq8eNa50/n3v4/k0kumU1pgsnJlBT4ryLtTh/OXC+ZSWmaTtyHMw492pm+/HFXy2Glbn5Ki1nVLIR0aOPBjyoImR/b289ijg6gMi0OGtEShdNaiU7ops24XBI37jGpaZC0LRxg/CUSkHkPUNCkK2rwweTFLCsOM7tuII9s0xLRcEkVdUoIhx+X1b9dwSq/mWuFS8eHsybPZ+TSKBwg7t1H8E78DC+hUniZo0uk7IZwSlLS8WAKMkoLo7nOV/w5ME7+Fg94CwuqnHY1BFWtXfUujxp3wJ4jksur18SiHd9NQseSf4kOxuOeer3j97QpOH2Vx3IAZtOt0PJMmZfH4M+vx+8uY9NFgFYOMOWMGxUUOwUgSWRkhLrykFU89+BNBI4O+vUyuurYn38/bRPeuGWRlJO+akJ4KEDShkQgdbdoUorAoTMP6AeplCOGRRyUvHAkKxeTfNy7XVdqMGldgCP2RRdiBd79Zx9eLKzmmeyadG6dTP81PaoImfFHPQKUvhMI6kf/MXMegQ3NompygShc+IZlTOKu6DxLiAcJuzvn4xw9MC+hUnx67FnDx+hi8VJ9QqMYhiQfms42Peu8soIJnJ4gbMdlYMIeGOV3wWfU84rew1pDZE+ejXjNNJSj4oLVrw5wyciYR02bowAxOG+njgUdXMmBANs/+2+T9dw+nYW6Ab74q4tZbvqKk2OKkU+px9TU9KSwMM/vLTfTtW58G9QO6JVE5TcEJ7AIpkEcep7kXvIBHfT/WDSGD9M5Ti5Ru7yy77bdVg3XEJmL5eHfuKpwqh5ZNMmmanUBuVrIXCGjeGzVWydwoBr2QUPTx3py1tG6aQbfGyQqn5Zh+LBX81IU+zbbjNWxHEitSw6kuMOkqrvS/Kv5+DdrSdV2PAEdFP7uZetlGHGgHpt9aN8D76NbkPt5yv9WJahgH5Rdec6KnH6CQbJ70jwaIaHGOGkGQ6pp4NRBBziJAEf29ykqXkpIqyiqqCAcjRKOe/oB6DzTroRwCxLVtg2hUq20JgjYqaW553gJWceSllN/LLlb+Xz7vYNva7vo7ns6Bo0WLtHfT/9HsijUSC6bpKoKmQMBPepqP9HQXn18kD0zS0pLJykwlJcVSeuvbf3K1rlFt0doFtq20EGqJrKhe6dh4vO9Wq0N6EB+NDDAVSDCGvvXYTnVtz2tt9lihamqA1SySyqrez/U3qvEGuyREUqtVoppIqlrwQo96N6d0XS8e8fPFLfDrWEDXvfXqp9VgDbeS1Wum07TJUZi+FM8f1M4c7AIQcHuDl7XMlV1wkPvvWYARsNiwMsyXszcRVeRD6dx59+G8/MpSOrVNpk//JpimRcT2EQrZpCQLWFCA4t4mXyk0Kr5YnaoXgaStCRC3a8SYlJ5ADlVORK85erXeCuy45W/r8plEHJcp3y+lklT6HpJN/YB0YliK/VaLPslz0bBIyS5Iq6PwQgg+4fMFm8lO9XNoMwnehEfCxdWphVpLVzVrRPWw1U/28PEZdjTihqos7Zwcm4hyUJCS6lMSndWKW7WW4238906khLdYfKt9zlbOZ5unUKPyFbv7Ha7fSjSk1kxRjkicL0QjPoqLg1RUBJUARjBiUFIcpbIigi3A9wgUFgQp2FRGeVmIyqggUKG02CR/Y5iioghVwTCOHVVgGNNMVL2oCYkWCYngTxCSRFcJkQgKV41EDUVAKaqgpSJCpd/goVMltS2xmZCHyLV04KC4MpRKo3xH2ik1OZAEi/rFiHF7K5vEAjh52b3vCUpXwHfVwYSoUCrUv6576Z2AiSU1NsX8KBNQau/yr1CPep0CnsPUCotb+U5vxgnAxrQMRRCZnJxEdj2LjHQHn98hKTmBevUyaJybQiDJVarPfr+frDQfaemQ4DdJTU0iMyuAZckCVX1Bj1JavzDqUkI37UmVSiZA7fTVquC9yLu2QtTlex4/V9wCB7AFvF29oOZtsCPlrFzzFa1bHoXlS1KsrHVRf9crcgTHtfhqdgFPPPIdz7x0vAjSUlQcYUN+BR3bZqpWZlXiEwBfNZf6AWzeHQxdVqyI6+IXQKKpV7itM5faMwpGQbrpRAEYFhYGWbq+lKFdGirOBBHjk7ZHnxLN0rurmjBBVk3xIbLmy9+ldLpnux/jtju/cOf9UEQ0ainnJGGd7GwdRztPO+Knfv0kWrYJkJYexdjKoVRvHXfyPGNBRQw0FnM8+uex3G+NX9M/8xzdFuFPrRuNbQA9XxkKuRSX+FTrSdHmMGXFESRi075H2Pdc5ZiSkjVjlsgm+/0WiYkJ+Pw2Pr9LUrKP3JwkmjcNkJnp4k8wycxIoWmzbJo1TUGTh6lQpHbIpAE8Wz2DLTMe4sFjRvJQ9oqa1PvSL8VLNRfyMjg6YIiZTN2apKG06pP6sQQioaDBmjWlrFtfQHmZDowqqyQwsigpjlBZ4ajshQoMo8KtrjMXsayFOq8neqBGWB2GxoYsbToSfIgUaZRIJEJYnQ8iEYtg0CYic0kmqWsSDpmEgi4hWyupicKZClwkTrYsFWBl1DNp3SaTZk1cGuZm0K17LklJELB8JCQaJCdBVlYyphVrg5R0iLQG+Xc7ofX7XH7idxW3wK5ZQO1SHZNIsJA1q+fQpv3xuo1RBeN1lK72Fn2XKmw3WWEARBBZtzDrtUP8iZZV9imJYr0a7kLJYNducz/8lKyJcp+SFZFMhkjPbXnoTLSNGfUR8kNpRZCnP1nO9aPaYBh+z/uoDkgdYGy1OY65IY/I3wu+9ixGMBy33EUeXnXKtlYaW5hqJGYwIBiE5YtL2LCukNLycsKRCHZUHqy3c699j1t7sO08Jg0O2zqqqeUlhbs7alXvrmWu2Y6h+kxlfsmftqTeXdkFg2U5JAUM/H6JzFx8iSYZmck0a5ZFm7YNSEqu8XFa+EgM7OVdVDTnRV2xxJMampZa1j5aA0Ak3aVyA9VD14k6T6Nxm0dd48k19c7WU2FLG8jvawNN9LlrRwPbrQVW76C9CMSjIK2+mpfW1+f2QHp7FlDuePyelkUseaeeWXVkq+9DrFBVYTDv+42sWLaOypDJihUuK5eVsSk/SDgEYUeyGT5sJR8tlCCJ+MxyiPhJTMrjpf+MpHkLn2rtUb3Dqv5W9wCd/XB1iQ8pboG9toAE8aYh71oZ6zZ8SesWx4MhQL0wOH4wI5rdcA93ndUDVHXH2PrlSSyT5C1nkgGsUnwkKjiIHXWyLu21ifbZCTwEhAoKqssbW69djktEqOTFt9oR7np/Mdee3EVlHUT51nIclUWIqDVSZ6VXFAZZsnIVSUkppKakY9pVJDoGLZtmk5GSqFR2tcb27hnYcGTrWAtzoFLiaucoD1TiE6G5FAfqpbwlvaE4tGtdaFdKDFuZvHbVJPar6pa0bWaLro9X4yBqnau6513V4z0hIO3KvTSL7pGN1dpU7VpSaDEnKtS93gPaMtWjd/daPEkHADqI2oKeZ4cG365ZdlZZ2dnU3Ob5xoSRvFJGdTghtohdLBYIeU60uh5V6wWOAXRq3u5tntgvDy2WFKuBDuiNQmyHoOVdZW5JyUpLS3sZF/mMill0/U2UH0OhqMpqRG2DiGii2o6qY1ZEbCY+MJevZgR5/pUjaN8mozrLsZvzfmdWjv8+boHfkQVim7jYOhamsmw1xUXrady4H7ZPdrGa8ljLIHvgvb22QAhUf76XIYiBjiQAcSUA0ToPatOlKJflOEA7iWJL7U79byyDItiD7WMD1FoonR+uyeeLi2nTNI0WKWItvyJ5K6yI8P6c5errR/VoRXbAJcm0CCTI85OYTIIBSS9IzdvDqu12aKCfRryLYa9fgvgJYhkOXczRIkh6kZGXvi5eeK9M5AifmcGgY6Zy681tGTw4VweOiq41/hziFohbYLsWEFC0KWVEnY7O3zALy0qjfsMuuubvkQ3VvfWqdyJ1f+r95IyqVKNooIVHwcZnJe71yFSZVxdieXzyGs4b1Jy5C9czf1UlPdqkUT89iabZKST7RaJa1lsVFuz1dbd3gniAsE/MejCcVAcDql7ogWRi5ZDqcoz6Rd2k/tUeSJIJuBw/dDInDG3MX/7aGVMJtkjCrm6uczA8ufg9HkwWkHcwrHbyjh1ixar/UT+7A+lp7cCSHX6SZvP7Xdf99+XzdrFdg/vv/oJjBjemd5+2e+2qlWCgynJbTPqpgGjYoGUjkw65WSrbInoNWppWq9ruywbteICwL+fOQXFuXWOMlYdc18I1olpeWfqnRXlsb49YP7XshHA5++wvWbWsiM9njMDvlSb2+q3c2zHGvx+3wH5pAa0+KwFAKLxROZiEhNytlJIlyJaUf/zYLQuosoItHIjcetMcbrrlcFKTREthbw+vbdxxsS0pr/oUuFNr1AgWXUvWy6Fxbdsr2O/tGPT34wFC3djxID5LVAEJg5UueZsqyS+sYuPGMpo2tuhxWCMMI7D3tvEY2UT8RY5rb/yGqZNK+PSLY8hKkYBEcCZ7f5n4GeIW+P1ZwMv0OcIOKOG1qdDvSmZZ8dnI73/PXQP78onqhSmCy9jTpvLqa0cruva93ayo9kbHIuoFAaYoa5qWYoEVTiJFAuthuKqTt8qb1/29xgOEurfpAXJGDyi4G2VCtX/3yJtClS7BiM2PPxXy2msr+HLmZlIDCQw+LpUrruxDarpAPvf+ZfGIIzTtgeoUdfnjObNZ+lMpM746Hp+n6hgPEA6QaRcf5m9ggRoEnX7da7/0u7EA/AYj398vqbYsjsuokz/g9bdHkFDTnrDHQ485fUVQGCO/UeB6L57bR8HA9gYcDxD2+DEe4F/0QIQChdHo5djxC7V8RcQUZt36MOf9cQYVIYjYjqJnzUiv5JY7+nB4nxwCAcVxppXMFIBmb3cnMVIX2fEYinRl2PBP6dA6g4mPHa56fPV14hiEA3xGxocft8ABZgHZzev+tlGnfMTf/t6b9m3r75ut/G9kmXiA8BsZfv+4rNS3YN68dXTr2lSBlXT76i8FCQ5hx2DZsmJFg+qz/GRnW+Q0SEGgBio1prjXNXOXZmTb2wDBY8GS9loXIo6PgUd9xsCByYy/8witsSKYh3gNdf+YUvFRxC1w0FggJt/scO550znv/I4MODInHiAcNM//d3ujMV4EF+G6ev31uQw/oTupaSLr+kudBx7YSfXXaqevKTOkp9mj8lSnjdFFxuqbdVAYU33SmiBLtNb69fqck05K55Zbeima1upm39/t84rfWNwCcQvsfxbQ7YiGY/CXq2bTp3cjxo5ttf8Ncy9GtGsZBLXwC6Wt7Nc0oY2qjRgCe5Fas9RKxCHUaIbLb1TaV7ao8nch448f+48FPGcuuL/n/jWDkaMOpV5WiiLE0ioS+qjusK1mzJT2G2GS1NoQpkea5RphL80vTTgxVK1GT+/9USOqVOW69Dv8c4YNTeauuyWD4LVo1UEcsvfjjJ8hboG4BQ4mC2i9BJN/PruMVavyGT++3+8KML0LAYIswFFwEpR4kPwTDjuUlobJqhfAJ9oMlubW14xZ4iA0/6DUokMRh/z8cpo1Sd8nKMuDaTLW3b16bQGGq+iqJ9w3k0suOYzM9FQMS+/Ia5QudYigGKbdMMUlNv95fTkihzD2rPakJommRawksQ9xAFqwnpV5UUad+AXHDUrivgn9VPgR12qqu5kRP1PcAnEL7IYF1FJq8/GHS3nn3XU89dSgGmXk3TjN/vrRXQsQRFkQm2Urqnjk4XnMmVGAY/jw+xyuv+EQho9oodQNVcZArdaiM+VgRv38b8piXn5xJc8/P+R3FVntrw9018YVCxBspW9xxZ+ncfNNPTB8fiqCLmnJFpkZCeqZyrNUdX7XoLzCZvSIqWQ29RGu8HPi8Hqcc14nTJU9kP7ffbiN16q0zPhqPZdfuph+fRJ57PEjMCWTUVfiMrtmvPin4haIWyBuAW0BtZSGmDu3iOuu+o7Ppw2tRXG/DzdMv5L9dxggaMpHQ0lAX3TeNH6YLxzPIpITwvWVABnYUR9PPtGdPr0zVOlB5I5jlNuGbXDbnd8q3e7bbu8dDxB+pYe688vEAoQotmNxwrBPOe30xjzz+CIcx4/PFG6BEKeOacCZ47rRqGEyhm1x+hn/w3GSef0/R/OHs6dw+piWjBzZSuoMXmiw7yg/NRmTwYf/W8ytN22gc4dknn/pcExTuBV9+zI02bk545+IWyBugYPQArF1NEJxqZ/Bx7zPnLkjFH21JjL63QYImoxBjjWrKznnnKkUlyRz5FGJXPWXbuQ0TCAxIYFNm6o4fczHnHhCfa685kgVHCjDONJ6pjmezr9oErfe0ocWzTP2foepwGqxXWoM7xDr4/2lft5tf779T+5pP3DtzuLYOSQdXpsDYAfn3mL4vzwyeRY1/cuxvmb905jwtBfQep+L/S723nqTWaXkHQ8zEiXqWPTv+xHj72xLg3opdO3elPKqoBJLkkfpswwikTClZT7GnDaL197uy7yvi5nw4A9MmjSElGSRc07SY1CPZh9kEbyWTBGL/GJmPn+9YjGNc2ze/3igoloWEZN9cNWDcMGL33LcAnEL7KoFlJihwuW5iiyp/+Ef8NY7x9C4STqmWYPH29Xz7Y+f2zaD4EbVGi/sePkFVYw74wsqKg0eeLgbvXrmYloOpscWZTsOH360hsYNkunZK0exOGj/HVNSNNmwvpiGuWnV4Le9MYLrxhDzWvlLaH2rUfcK/6CZpmLOQpLjCiLn/bw6J+SBKh3XS40r1eiIvi8lXLILo1SKWdVQfoWwVyqFroA2ZXIYWgil+mQxRy6fkWvIeD2hj5jqokq+yG7YYznzhqHxABJ8CYY/RuW5dTBRg//QEEEdwSrmLYU4lJZDD1tgGCo1L+OIuA7HDZzExRc1pnmLbPr3b6JZ1mIS146NbVs88MBc3ntnI/98YQCX/9/X/PHs5owb115LOLsi2xrAdkxWLsunbftsrQKqgoZdMeaO7K3AD3o8jsGmUoehA6fi90WZNed4jUFQGYwDP1rfhVkX/0jcAnEL7DcWqBFvjrguA/p+wsSJXejTu6m37v2CXON+M/6dD2Q7JQZbtbFJeWHylHXcdONi3ny3N7kNU7C8nZxh+DxnaFAahIqicho1SlHZA6Nac1qcjCiIiaOIYppeK9zOx/SLn5AdpABCVq8oJikpQINGiZiGpeVCVVziwSMVYFL+V+rTMaZq7dClXi3O0nFNvv8uj5ISm+Rkly7dG5OqaLB2JTPktbeoWoru+xc0a0WVw08/b6R796YkisBgtc+q2b3X7Pa9zIPXpqdl072sg+HJpMbuSQIc18aV8k7M6daOD1QpSAcBMfpU5Zc9KtVQxGTSJyso2BxiyPG55DbIwLRk5+/DxuaccTPpP6ABZUUlXHV9bxVGxPIVElzZLpx+8hesXhvFskIMG9mQ667qSkKSpeaEa5tKhvSJR2dy+pmHklNfBGBkPHWlshhTc5RI3WRA38lEwxEmTRlMdroP16wjvoW9mJvxr8YtELfAwWgB3WElecwThn7O9Te0Y+DRzWttlPc0M71/2HKbAEG3bchNW/y8qJgLL5xDUpKfsX9oSY/D0mnbJoukJF1KMB2TZUs20rJ9Qywh+K7tXb1gQu+g62Z3J05SgoDXXlnIv59dwVGDm3LBBR2ol5moiHrEIapeeSfC9z8UkbchQm6jRLr1yMJv+DAtLSoUjMDY0yaTkZxASoafysoQhhHlmX8fpxywYey8NU+hM6Sa4mhN8zfeWcFTjy3EjdpMfKwH3brkqp/rqohcV9pDxbaSAYio9tDycpe5X60mNSWdnkdk4ZOWUS8rIekrx4lQXmby0MM/8OmkdfTp2Zi7J/QgENBpLbWrdh1s22T6zDwmT1pBVWWEbl1zGHdue5U/Cdk2F4ybxfKlQZLr+Wma6+Pf/+qPIW0Irk91of59wnymTy9k2AmJjD6tO/UbgGUkapUw1yCKzSkjppJfGOWzKYMI+C2PEEn6HKMEIxbPPvsDzXJTGHFyO/W0NeFSHYnAxMSaXJuoa3HC8Z+zuTDKS68eziFts+NMivvHWhIfRdwCB6cFXLBdhz+cNY2hw5oxblwbL0NbVxuk386s2ykxuDiKDc/GdUxKyqM8cN+3/PBDCfmbhDnKps8RGYwY2YFDuybRoF664Ba3yiTvo6jJdXGcKI5hUFrucNsN3/PdN3m88N9jaNUqFYMweXlRrv/rl5RWmmTWS2T50nLOPr8p4/7YHkvS3i7M/nojH360iltvOVxlIKrCER57YDbX3ThAcTnsEvuf13Yn9rnpxmnM/tLm2ONSuOHm3qSmeKUNAyIRk81FFUSiBimpPjLSJAwwidhw8dkf029QM6Z+upHjhuTyx/O6KH1vCc4cN8KKJWW88urPnDGuC+n1EhgxeAb33ncIRx/dFMOMKF6K0lKXq6/8nEULDA7vl0GvwzO4/4HVvPvekTRplMRNt0xnyuQqnn3+cKZPz+OneUVMfKQPpvBSKG2DKD/9vJlzxs3jkj81Y/bnC3jq3yOwLMlmSICgszBPP/UzTzxZwOVXNGL06BakJQcoLQuzcEkZ997+PfXqGzzxzJEkWn4tH1uXMqQqQBC7SHeMnxEnfkbeRodnnuvGYd0aap6NOgpCf7tXMX7luAXiFjjwLKBLuxIgnHfONLp2z+aqq7oh26rfA3h6OyWGWMVb5bc1MZKXkg+HLN57cx4v/SefjYURIsEkeh8R4Y67+5OTHgBfBNdIxBKsgLSf2QmKBldpTykCnr09YqhRfR7hZbjuqmlMnVbIe58MJ8Fvcdrpk7jwrDacfnZr5TQW/lTKH86eyb+f7Ue37pkKj1BV6TLkuI94+Ikj6N45i415ZTRulInpi9EDbSeDoByl7PCD4CYi5Y7y8iijxr5HcV49/n53a44c0hyLKJZjEnVMflpUyKWXfkVZpYX8Y5ghrr2+I6ef3IrHn/qWE4e2pmnLLH6cn891187jw0+OwxIErAd8mTlzLa+/sZ6HHuqtiKpGDZ9Mdm6Ap586RmV5SkI2Y0Z+RkVFhEcfOZouh6Uw75sCrrpmNpM/P5lgVRVDBs7i9DMz+b+/9OSy8z7k3gePJSs9gGGGFXeFZCpWrizlrDHfkphiM2R4fYYPasqhPRrURH0uFJVGGH7CG1SVt8VIKMRyJbQw8EVT6da9lCefHYbPJ2OXqLluA0SdhYngOlLKgdGjp7FieYhnnz+Uw7o39DAfdTG/9nZ+xr9/oFlAs35IjkzU8jRFWE2Z9EC7mwNtvLUZc3RSVG1Oa8kXyzonm4OYrLH81lICRrWPWuytOq9aaw3SXXVewtUrM3vIsBjWu/bp1Mdj55PZIYgu+aHg27y/e5dQFWYpb7omURf+csl0mrTM4PobuqnPmlEH1ydZZI84zrtODHJWfQeqRB7DK8il5P89HJsn6VxzyzESuq1sIBt6hTnT96vKxNXrcM1nFb5NnVNYisI4bgKm4xKxHPyOqTZ2tY9d4EGIgeSFC187Scmbl5bbfP1dITdf8y2um8SoU+pz7bVd1csVkd1t1GTF0iLadsjCEuCeDHy38WraSL/8RYeqMJwweArHDU1n7YoIRwzI5Kwz22OZAvZzyN9kM/T4qbz88mF07JSJ4fiwjSjfzi/g6kt+YOCQDG66+XB84pjxe/TB22cA1KhVHTRFHJezzpzK6mUWTz/Xi0M6JShgnmTLuXVHAAAgAElEQVQAbMPlvrvn8+5b+Rx2uMGll/WhQU4CD98/nxnTivhg0iAu/9NkJjw4kJLNZbRrX59jjnqfBx44nCP65noBgsPMWWt49LGl/PflY3BNl38+OY9/PrOJL78+Tj37W27+nllTi3nj4wE8eM/PpDVM4sN3FnLlX7tz8sgmlJXYDBk8nfMvasy557fB54pNvMkuO3w3ys8LS7nmmi948B+DuWjcVMorMhh2gstddw/Y8nG5LuUVEe6+6ys+/V+ZGk+TXJerb+hBnz45+AywrJ2XZvZkCdOvTxTH9oFpM+b0mSxfFuRfLxxK9845HjB1tyfXngwl/p3fnQV0ZkqXQb35G59Kv9pT3nIrIc/CW/MNFarpf2o3bdV4VQ30VgqzgjmL9XjpUEKcsjrUH1ozIfb/unk/5mjl7zGm1tiFYhGFlmZUTlcdW/HLqo2Lhxdz4frbfyRcWs6D9x9B0Kfz0HpLs4XL9crOGr4WO2rDGWPhUHXQILbQSHPvFsTNx7rG9M9EClr/42Kq+Ry7d7lvfe/Ksort2KMxdAzCpovfDQEBvdGqAc7pU7hSlN/hUXNCfa8ao28qYJxNZdjgg7dXMOHBxfTrm8nEh45QF6kMOYw49mPuebAvffqkYhr+3W6BU5iDWqljXdeudTgKBsnZ53zF4qUVHN4jkUcm9ledFjjaEd5ww0y+nFPBlM+PU5g9UwH3JNjxsWJ1CVf/9SuqKhI4/5KGjBzZHp/aWQe2jUnUTA7hOJIVcXji0UU8+8IG7rmrHccPbopQC8oOxHF9vPXuch76+1IenNibnj1SkGy9KCb+/HMBfzhrDmeN60TPfimMv+5bLrmsDaeOascll09j8DH1OW1MZ/VCiMrijJlrue3W5Uz+dKCK7N55+yfuunslX0wfytq1mxl3xndccmljzrmgDS88u4KnnlrMvX/vxTFH5aqnFLbh7LO+YPHyKL0Oz+Skk7Pp3beliixnf7Gct97bSOHGcu6/vx9t26VSWBjlx4VFdO+WRVbaVjbQVIpIZ0goKJ0NLikp8gp4Ak9qbu0omNvxLPvl39ZMT+liENuPHj2d1SuCvPV+f5rnpsa7GPbUtPHvqbXMdeRtE6qviCKAU+3acdv8qhaIuSHFqKJkjgV4HHOK4ju8DjmVUdB08OJhY3BqcYzaPckGVv4ivsOnMGdySLyg9uWGgK7FierzRFwoLLPJ31xOfkWEqnCYiAMVEZPCKh8l5S6VQYeqkK2E6oR5VjLXgt2Sc/sdg4gA5Y0QG78oIFQYodWI5oR98jvJTAmgv1ZWPjYQFcToUEXfs2zYNL2Acl2K98UjYlLf0TOy2lt7AUMswLINS/mZRCtKst8lJzORni0dmmWl0KV5KikeQ6702Ol/JfNRheumKPZcw7GwzW2L67sQIMRw97GFWlyyPMOaGEzS7Z9MXsstNy3gwgubcMn5nbGtoEoFd+6Yzfg7hdBm9185AQBWVQVJTtZ99tsECNJ/GnUZPWoKq9c7PDKxKwP6N9T1asdm02aXUSNm0bu/nwfvOxJbnHgsQFX1dyitCDNx4nw+eGczhx6WycOP9iA1SRzf9lLWmiFyzZoqtYvt1zub+x7qiV/dmpgdispCnHrSp1x5bXeGDWminKb0xMoDn/ZFHlddvYDmTZMJRiJ0apPIXRN6kWj5uPamGbRu1oD/+1NHHSC4Lp9PWc3NtyxixvQhihDom6+LufDir5jxxRBmz8njmmvn8dH/BpGTJaUCqAq6JCeaaDkFUWqUye3yxBPz+PCdEsrLq7zWxyjZ9XyMHdOGU8e0IDnNxKcibNFY8KJrFZ1L50nsqB0oejKnuvXCs1Usot0XqX5P8lm1VJqMGPEpBXlRZs4Zil9eLFMVO37VBS1+sd+HBWQTEsJROz35N0oCVjxA+PUervJw2hmqvbznFWXXroK36uS7bA4g6kBRFZRXhiivChEM2wSjtuq0EgdeWuGjqNylMBQmEnEIRw0qqqCg0qEqEiXkQGmVQXGF/L9DxBVXaSnQuJQuJDVvSIm8ultMQg+dSZDdt2TRVcZBqABkhXTANiVrDJkLi7CKq6jo1RjbTSHiC+pUv/p4rNNMO+jYoYsJOnoR/yaf0q35ejMe6yZzTME6xHygfD62zsbOJQGVXMvBMaTUYGE6OqOgShYG+H0ujVNtercwGHBICh2aJNM5M0G395s6WKk9NjWCnWcQNEJz2ZJCcnMzSU4VJkX9sFwjohZmAdQZjp9bb/6O7+dv5p13B6qa+5//+h3rVhfz+ltHYe2BWNO61QUkpSQRipp8/00Bxx8v4LwYAYVO9S9bUcFZZ3yN41QxbdpxqsNCUoWiGXDBhZ+wanUWZ5+bxZ8u7qge6AvPzCFENu3bZZDT0CA5IF0FJv96fgkfflBG904uz714jDbaFodwMPixifD8v1bw+BOrefvNI2jSPEk/S9fEMlw+n7qO995eywMP9yI/v4pgxKVl0zSiEbjoktmUlIVZtiyIafh4/+0jaNI0QWUzHpw4h+a59ThtbFsMRTTl8Oory/jXv5bz8SdDMI0Im0t8nDn2XT76cBSbi4KcPW4GyYk+zjq3Fa1bJWH5ojRokEzDBul6YqkMjLSs6kzLsmUlFBVWUD87jdZt0lVWIlbuci0pHpkqlaVCv+3xFyjTa9Ci+nR1DU/Xv/bpvksBEWwijsmwoVOol57If1/rpxZznWqMBwi/3qq+f15JORNHFkhYlFepSL7aNkjZYTYgaLucee/XPHV1d+olJkh+DMPYljZc7yu0cp9+BzRWSAXUslnaa76PXbSpcqCSrpP/6nKvbnySt1e3qG+zt6l+T2tK8Xrxrynhym3VuCT5W22in9pt2t7v1K44ljH0mFe2zHp7m16dwpdVRa0saofsUBY0yCuqpDQcJb/MorAsSsh2Wb3ZJb+kgoqITWnEZFOpQXEVBENSL9ddYaaboNcgNQaPSyZmExVYiC3EQFG1QZN/UnyO0o3JSHEJ+GySTT8ZgQQyk01SEh18FiQlmqQFLDKTIS3ZwW+4Olg0hDDOxG+a+ExTAbglyyT/Kiy3QL0NH5PfWM3H7xbw4Ivd8Xsycto36IxAzO+rYMjbBCpryg7byyjIn1Fx8nKvKougu+XU/Vb/p6bYsfWskUApFHVZtxlWFUUprnIpKA1TGRblXoMfN/gJy/UMiwZWETNvb02KKRkQjy5gq3m80wBBIrTz/jiVxYtcGmaH+NNf2nLC8PYqOJC0uZqckm8xovzntbU8NGExs+YOIcE1Oe/iaVSUuvz3laP3IIPg8uXstSQmGBzSIZcRI9/hkYeOpuMh9RRgTVzCosUVnPuHmVgJmaQmhfjo02Oxg1Fmf1fAzdf+QFKCTVZ2fc4+vwnDhkpt36Bgc4QrLp/CskXyOkVwXLkHmcCWKkH26JzIM/8esDVWA5A6TaKKIO+fMJ9PPinjo8lHkKiiNW+Sug6TJq/GtQzcoMUdty3g2Zd606ldGhMf/4nXX1/L3Xd358orf6RjO3j55eNVwCMPVVJX0lGhdI9ELZEIixZWMG/eek4b3VEFIBEjwpcz1nLUkSIpGmZzscFz//qJFctL8RtRjhyQw/BR7UkOJO7ianOAfEywLxKwOTZhw+DIvlM4YXAyt93RVzOWbcFaeYDcU3yY+8QCrhPm87URrnx+FcM7+bnz1HY71BOV0DZoQ5I4GEUxvm2oq3aNqsXaUsGHrHkqZ6X8phaq+7XiA1V0VQG/i2nbvD6/iFaZCRzWIk3hnyQPUjtZq4N57aT1nly2CpqTRq97Wo1X16291L3K3tdG1HlBiXpisuHwtgJed5E4aSXB47qEHYvN5WGqoi6lIZOSygiFVRY/rSwhvzzEgvVR1mw2qRTxP8PGr8qyAmw2SPCbZCZFSLKiJJgWAZ9FUqKfRH8UU5y1aZDgs0jz2+rnKQE/6cku6YEQSbLBkV2ypb9TPyVATlYS9VJ1blECOanTq4q8CxGFOXPxuTqcUBue3U9yexkOUTqGKVM2cNONC/hi1nH4Y63ye3DOOnkx1CPT2QO5dwk0bNfgxncKePv7EBWRRAJOFd+Pb05mgia0U9bZarw7DRBWry3n5JPn4Jhh3nn7SFo0FjxB7BYkElFPmGDU4urr57D0xwgffNJf8QmccOIXnHhiPf7vki66rW43Kntyfz/8kMfLLy3nb/f15Y03F/DlzAImPDiAYFWYN95cxSMPrSMlOcwTz/XlsftmE4oms2hRMWE3mdT0Cv734Qm88PJ8SvIDXHxZKxL94E/wYbsmy5eV8cnHa5k9u4DS0hAJlsWAQVlcfnln/Ao0sPWOVLoxpKYVZeq0jVx95U+cc0FDzjrzEPw+Q9WtwlU2b74xn1lf5HPh//Xkquu+5dVXj+GVZxbw/mcF3HprBw4/rAHnn/shr7w9mtSA2M+vMVIxzgTVOhvBcaTV0fYiO5nKYVVeM+wEEBCoBzYU1kMXAUh6jtKUHZAECL/VzKyT6b3lSRRJlBYCKyhxGDLwU265uSujTmmkF2aFvt0H142f8oCzgOy+jvv7WvoeksidJzRQO78dHl7dN2LY+CQj6sq7tGX/urz5UtMORSBq26Qm+hQYWxyi4jipBXnbtwbTqH+5rjjVoOPS+c6N3DsqndHdk1SZMGJKI3BtsLBOO0srntqd6mzyVq+Lt0U1ZRXRJHCC1VJ/8zQFZFcqnCqSxhfnH7Jhyfogi9ZsIk8FAAaL8yOEFbGaOCW5nl6HfFZUOXnLsEnxWaT4Dbo0S6RbbpCG6cn0aNeABqmxzKTe8UvgoDyGl5VQ3DwKoe/gmpovRgVuGorgYf1je3QNWJQv67NaWIJfkuBIOUwDy7E8QjjNY6Ok6/dgzVS8QWInx8fcuau59NL5TJ91AkmJv+36q5+iLtvI/l0L7rnYhsHbP1dw+csVHNGgjDeuaEOCsql8Ztt3ZacBQtHmIEMGTidqBhh1UgNuvK2NijRMb9csXP4VFS6XXPgZSxZbXHJZFuee2wmiPh54ZBqXXdqfxGRB9++u+V2iYZuxZ/6PjPoBzh93BFdcMZvD+sD8uSHCYZNmbV1efOk4kn2Wyig8/ewynn5mJR1bwHMvDCQxWSJaH6+++I0CkYwe04tAooUlk1flI4VNULxuEJxkHBVVygu4LcGFThAJN0QE2/Xx9lsruP/ehZoDQmrghk3/AfW57M+9aJIbYHNhiBHHTcNN9JGVXc6j/xhI+zaS7nQJR0QJM9YSKOMIagS1omD2tAXUBb0AzHu5Y+07UoeXEoRobAq4RJD9is1RvcwxVsHfdoLW6UKpdm8mju3y6psL+Pu9+Tw48RCOGdCwBpT0O7rdOrXdQXaysFNF13tKmDAynaGdk0nYafOUOFtDVamEVVSljgXEU3s+RR0mry7jL8+vpyrsZ1AXi8fHNsFn+zEsA6kP68V1H09C1yXklRT8js1D09bywGcmH16SSddm6d4IxJHWLPSyInhbGy8L4gHhFHSoBsSnmz1RtfSKEMxckMfSwiCzlpos3RhWWRYF0MOv6/ayOzWlzi35iDCma5FkOjSvn8jh7W0aJbkc3qYhrXMTEF+ZYAr5GvgECCebmlgpQHb1qtLhEDFRO3ptRXkGOu+hqvSxMoly/LVAewoztXUJRK+DGsgoGwvxftJ67/1dyQXpXgEJE9QRAzvs9vsi67UM3yK/IMqwYZN47LHu9O3buM4IAnd7SN4XVEylRqe7PaKuX6Dr9LxjNfmhJJ49vx7D2gkbrh9b/Il0ue1uBkGijjffXM7d965QoId27QOMODmL1BRYvjzKrBmbWb1KKHDLueqaTowZ3cpDAYewJZa1DWyf1HKk73LXD4l/orZDVanNI4/P4923V2E79QgEopxwYgPGjGlFyxbpijJYokFJPZ849F3+OK4Lo05vSZJi+7NxZcZLGUClojUMQ95/vQOPgUMNhWpFtA7cxO328VfPT1siTnHCUBF0KC0Pq0g3MyUZf1JsskptEipKIgSDETLqJ+GXOeqh/HXlT3b6fh3ZK/CLemN1v7+wLRpB1U2hUnfy6gr9tQLjecGNMqXXm6tngg4othPc7LrV98NPKsPrAEG6GB5+7Dteeq6YF17uSudDsvUioLg24hiE/fDp/epDKrMd+o1fyYSzGjGsrV85wR05bpleFVGbkROX8/Q5TWlVL8FjUq0Blb3xfTE3vl7En49P4/DWiZz5jwKm39aSRglSh46qhVX5IQ0B1hmF2pQtsb8rTxLLOOy+aWTdGP/Wchbk+TlzgJ9rX7epioT5/tbmZCSaRA0Hvytlkppzx8rW8ufGCpcfV+RTUGmzbrPFwrVBCqsMykKC2ncIOj7KqyxEY0fgmnJDCYTJyTA5rLWPnCTo0CybNvV9JPkgJWAQkNq9Zah0v0+RzOlUdc3OXrR7pKyhsWGGBBmedopkMtxaeX2dv6g9eF0G2dpr1TT8eWvedj2LLoMoHoVqILVmtdXrpBdkxJoevKLL7j8V1XCocGOSOenbfxLXX9OSU05t7+Gydv+MdfINLymkrOl1RQh5z+KCCIMe2qSy/rNvbESTdL8qvTuiRbQd0budZhBkloSjEV57dSlPPLqeipAWIZJdtuxgTaucESe35IyxLWjTOkXLI1WHIbsTEmzPLPrNEkoeN+Lj1DFTuOjiDgw9PlfVpLzEiXaUjkso5BBQHQh7euxuGLm7n9+dce3Lc+/OOPaHz+rZLsvHBecJq2cB/329F+1aZ3lTLV5f2B+e0v4wBgkQeo9fw8Q/1GdI2+RdEguTtWPA/WsYP6oeA9umKrS66tVyHdaUuQx+cAN/HpjMRUc1wIy6tL1jGQ+PyeTkzg0Ugl1A2xvLwox/bR0TL2ipUtVKo8Sr/0/6uYT3vi5mSNd0RnQXVVvJqErWcXfLri6LNlXx0txivlleyZwN9Qi4Ubo3LAQrGZ+icjcR6Hg0KiUQm+IwbK5EgaVF3M5yRIzPUAC8+qkWLRtCRsAhNy1Aq6YB0n1+BOOcluRSPyWBnDSB28V67GO4+j170go34UinlNhWg9+1tLzuHtjnGZg9G/Yuf0v2aeecN51GDRL52329deVzP7otYSF+c36QS18tJY0wi+5sgV9pFPzysfMAQU10B5soGzeG+fabAvLWV5Lg89O6bTLdejYiJUkrGErdSlCjCriz1zs6b8+u0JxahOgPZ09nQP8cLr64wzZ627Ee0j1pp9zlGRD/4G9kAR3xy87hxKGTydvk8srrh9Oudaa3psQDhN/owex3ly1RAcJ6Hjozi2Htk3epu0AW9uMfXsElgxsyslOSWsMkJxWKOIx4eBlZGYm8fE5TEvwGmyoi9B+/hql3tKJxQFrjJF3t8u2aEk5+uogFd7Ykww1hC6OsA1+tLmfM05tp2tjPivUGr16cTr/mCaojaptGqZ1ZU2WLbdWvvqLc4Zj7NnDZ4EQOa5TAxjKLisoIYclwqiy8QZLlJy3NJSfZJsEn6H2TBhkp5GRYqj1YHR5zoKyyCdLnL87ay3RUt96pz9ZBj1LMlygMQJSX5xRxRt8cBfbUY9kZMd7ODPTb/l7m0Z13zWPpoiKef+Eoj3dnpzWuX2XQqtTkOlzywgY+XGhxcvcIT45putP3Y+cBgod8ldS1Sv/E1AdVXUOeuCax0D+XQyNC9zZ3oM9VO09nc/Gf5pJbz+W28UdsEyDE4vU4Wu1XmW+/8kW8JjPX4JgBH1Je6efVN3rRplW6N8HjAcKv/ED228uV2C49b9/AxLMyOaGDqIrufCUSvpXT/7GcPp3SuWpQA9UtI6noWWvDnPbkRqZd2ZS22VIOdHn5+xIe+KiK2TfmqK4jv0rPOny3ppLT/7GJH+9tQZIrJVfZFTuc83I+fgfuPiWHPvespHW2w//+2hKf6d9tQibtR8O4TgKfrSjj7H+V8+lf6tE5O6E6OV9lQECVCCS761Op71hZQxPwVPMTej36+qxRw8BnC7rfVmh/AQboLHENA+FeP3Sv60NYDaWdeuzjy3nyonZkS5Rlaml6XTM/cN/nt99azZNPL+bjjwapTIlPQGr7yVEesel22xpCdiIvXJzGoNaiX7TjYxcCBA+/4fWhayBdbVDIVjmUOo0CvXqRh8q9/pZ5WOEy7rqv33YCBLnR2r27+8lTiQ+jDiygAwRZ9o7p/wEVVQEvQMiIlxjqwLq/p1OURF163JHP/WPSGNl5FwME4dH/7wbwV/HQ6NaKHyDqOBz3wBpcp4LPbuhCghuhJGIxeMJyxvZL5oqjc9UaJBAnn+vy9boKTn68mMX3NCeZSqIEKAi6HHnHCl65rCGHNknhtEfX8PV6H59dlUG7+kke18rOlugtn44g0mWZu/WDlTw72+K7GxuqMoCqI0erWFkCjbITSZayrCEdGdKO7tMgP5WN3bLqorBPHnNhxPRxw3+XcO8ZbfGpwMIDue1J/98vTipHYYkkIBn1+ALuHNmUQxtLKUgDCGM18wNyTrrw00/5/OGcr5ky+TjSM4SEaP+oMcgovlxRxsh/lpCMxbzbGpCWINT7dRAgVO/mtzlddW6o1lXqziDa3WvaZJnH/3fllzTNSeLGG7tX623XQeLrgJyLB9WgPRCm7PSOPvJDqoIBXnmtJ23bpKu+byWjvcNu94PKWgf1zZZGHbqPz+PvozM4pWtgO4RnW5tHFGJdnpixng8WWrx3QY4KRRcWhxjy9ypevyiJI1oGVG3/7g828cHKCDMua4Rh6tY5tX0yw3yzuoqTnqjgf1c0pEuOOGSHp+cW88HcEt74UytMM8JrX+VzxTt+/vmHVE7qmIihKU9363kJXiJsuAx8YAMrC0tZNL49aT5hArRZWRzh2PtW8uN9HVWAIO+EtPRJO6AM1S87dxUgBHEIYNoSRAhBjmQOBBtgM/xvq/j4uhZeq6Re3/d4jVX0MKouolkXXAGOh5V2grDKHHXfSh47M4teLVI9F6PVdqOGy895lXTJSVHdWtIBt18eHg+EEtfz6JTtqEv/fh8y7vxW/OmiLtsFWf4q9yIYD0O6a+T5hhVD6BMzirjngxD1UkN8f2MTxRmxs/m3SxmEX+WGtrmIqpqAIy0YIexwAsOHTuK28Z3o37+Jh/7Yx+x9v82Nx6+6vbmg6TY4uv+HVIX8/Pe1XrQTNkjFdR4PEOKTRlugRNKo4/O4f3Qmp3YPbLe3e0tbadrwF2evZfz7Jfx0dydVi5+xrIKxL5bw460NSfGZvPFtEbe9s5H/XtKSnrmJWg3PDBNRPfYWny+u4Jzni7hrhM3Yfk3xuw4X/7uIZo1NbjquPqYVoSBk0XX8Rk7qEuUfZzRXAme7Ex6o5IHSn7HpdP1iwoFE5lzXlIbJwizosqywioH35/HZ1S1on607tnRHgw1Ri4gvit/2ewqE0vmlSw7ybflsBXDBEyt54dKWCs++O2Pb3vyTcaqWcQ0j1xT4KgFiKcrjzjcv5bNrWtI6UxEce6mNKpZtMpn4+Xomnt5MdYjsvxUHTZDnGlUYHueDY9vcdc/3zJpRxPsfHYtf3f6vH+DEcu8xAiyx/JnPrmbKslQGtKzi1QubalK+nRz7cYAQ46N2iTg2zz37Fa1bNufogY1U5KPJ8+IUuzt7wL+P38e6WWDQgA8oq0zg5Vd60rFdltfzHS8t/T6e897fhQoQ7sjjb6dkclqPQE2f+y+eWkhuDL5cXcnYJ9Yz65aWNEqBN38Mceubhcy9qSlvfJ3HQx+X8/C4BhzTNk2B6TR7YpioLSj/KBOmFvPA5zajOztMHCs98C7HP7Saq4alc2L7LKJWkHAkgW53b4BIhO/uaEGaRAi7dUi2w2ZjuU3fu9dzxYgMLuqTQbK0dLsu6yts+t61jr+NDjCmZzamJxQk3QJzl5XSu1WGagmW7IdkSb5YUsI3Kyv567FNVPnh00VFfDSvhAfGtNIU5nt5KIIeRXIm7kras23FVikoiG/XlDP68TwW3tNGYTYU54Eo4bphXv2mktWbHK4bmu3hIfZyIPvq6x4D7ofvL2HQkJakBHRG6Lv5pfzpwrl8MmUQGSm/DQZB6yXJaILYbiIFQYded60l7CbyzFmJDO+c6REe7m0Xw74y7i6fVxOZqA5ZI6xIHWoSX1uSguzyKeMfPMAs4LU5ui6njprGytVRnn7mMHr1rO8hn3+bKP0AM+JBMVwpMXS9YyMPjM5kVLfALqWnXdulwDE47Oa1fHB5Gt2bJPPBT2Eu+U+Qbg3KqV/P4ZrBDenSKFFlLkXcRyhnFE1x1GVNMMoZDy+jfk4WBYWVTL2hOWHXovvNq5hydSOaZsqnhRkV+t29jLVVqbxzUTJHtJTU+u44Ysl2OCwsDHHc/YXMuD6Xlhk+TSNsu1SZ0OX6FVx8fALXDGys2R4Vn3+ET34qZ+bSMm4/qRGuEcBnhCgJJzD2ySW8f3l7xXz7z5lr+WltmAfGtK6bAEFJRkQJCocJJkmu7m6zTXj2y3ye/bycGTe1EoSEZwUJgOCSl1fSp3025/dO0XM2Rlu8381gh1A4zPDBn3LdbT0YdHRDBYqtrHI4dtCHnDSiOTfe3GO3nnCd3aLaU0kGR7NuvvZ9EVe8HiXVH2L+7U1IMCR83Pn0268zCNVoBk/WU2WhlFCUFyJoFqH48Tu3gEZeS4nB5e47F/D2Oxu5b0JnhhybW6s1ahfyZb9zO8VvD0ojDp3v2MSTf0hlWIcYBkEvEpqXQKe7FXWvohPWmchyw6Djzfm8eHYyA9umMHdDkJMf28RDf8jm1A4iiatpmBWMTnRoXEu1BIo+yl9f3IgVsBh0SDo3vLGZr29pxtylpVz9egFzbmytggq/EmBzOfOf6/hsWYAbj7e4YmC93Vq+1PhdlzmrQ5z+RBnzx9cjwy+uXdMp24bLkXetpWlDkzcuaKJIiKQjQUoo5W6EkXcv480b25IhdMOWRcQ1GHjvz0y9oYMKeJ6asYGFawGvQKIAACAASURBVKPcf4Z22kqXQngLTHHvcniaM5rffKepc6GlD7smT366mqyMBMb1ylHcD0L3fPELawhFbZ4/t6XXzSFKuRYhF4752wL+9cfmdMxN2W6nh4erVE9zexLF3g6y2jfoZ1wz3tgckFVFtXSqVtVtCwHVTZcxqF3tEyuKZxfbNjj5pI8U+d4rrw4h2ePheeqfi3nuieV8NuNYUpNEd0K3cWp71iLSUuR9u+jHFJmefFYxSmzzum/hChVvjGb4lAzSn1/P463vLNo1ijLlikYqaBAujJ2JiOzXAUJ8wYtbQEvN6NYs1zF5/a353Hd3Pldf154zxjRRLG2qHrxbS23crr9PC7hsDrt0ub2Aly9IYUCrFNGaRdrqFFJfeQKphZtETQkLNF25ONGwYzL4gVWcf2Qm5/TNIBh1OPGBpSwr9vHKxY3o2TwJU7IHhqk6GqKOn6qoze3vbGDuqhDvXtGSjcUhBj1SyJwbGnH/B/mKgv3h01oqVlTTCRAx4L3v8/nzaxEOb2Hz5iXNd5stRpzSpCUV/N8LpXx/eyPSJXMv+geeTPtfXl/PpJ/KWXBbe0VopwIERVkc4e//y+PQlikM6ZCpKAdKHehz2wq+u6sFiVgKh/HmtzZvXtrMa1QXUiUNHIw1rsVYGhVAc2cyFyKFjMuLXxaSkhTitO6NVbOCdH6cMHEdPVslctdJUgqRE2m2xY9/LuXOt9fxxfWdsExXkVBt/Wor0KXkcUT+GUvzKGxFL12t+auFGjyGRk+wSgJDFR9qrQaVZxFuhq0uJNfRP6phYxRAonbEWoxa2jX//fxS/vHYeq6/vjWjT2upfr8xP8iIoTN55vnD6NI5CUuE/kx0+6vjkr+6ivWlIVKsMO06N1LXNtX1YiPfyrjqNrSOhMqXqnaWWody9jU/0xgEUdx1CWEy+P51LNmcyCndK3j8jOYa+O8xWu5oLYgHCL/PlfJ3dFdeiO8x05VUmgwcMIXhw5MZP763FiFRa0g8lfQ7euh7dCsyUz5fWsHZz+bx2VUNaZ+diC0KjMpNubhRH+VRkRSO8Om3eUxdaLGiMETEjPKnY9M4rHEKYTvK4EPS1fc2VtqcNGElG8KJDO0Q4saRLchJsTBsl3n5Qc5/bg0ZbgLvXtmEBqkWdtRHxzuWM+pQH58tN7h9WD1GddUdEI4R1ToGOBx2ZyGVwUqW3COOefcOcWxPzizmocnFfH9TM5L9miFR0zs7PD59M/d+VsmCmxqSliC08ZpkTMKhn0tcbntjA69c0BjD9VFhQ48bF/PdhPak2C5z11Vy6pMbWHpXK/yGOHetVFDlukQdm0TXJGBpHRjtp3YcIShVYUSmWQvMiU/z4ydqROn9t3z+dHQy5x0huAitJSNXPOmxpfRpn8P1gzPVrlx23FtcRvlAh4hh4lcqwiqtvGWuvLq5Tm8uxOVasUBBzQdDmUUzAusAS7IkWwQIsXSTXC62tKigQsJK3R2g7R5V1NTHDZhDw1yX/752pNKbEMKqYUM+oW2HJB5/TNSM5TmZKvn0+fSVXH3dMprkurz44gCyMgIqy6RIuL320i2XMw3ulKtq5c3tdQpW3/SWA8ZhTaXBEXevwibAP8eaDO+ao1tedx7jSabNs9zuzdOD4tO1TbMrhCsHhVF+k5uUXaAOAUTHckC/KXQ5JIOnn+3pBQgahR0/Dm4LyDJ67ycr+deUCubf00EJNYnI0HvfbuaV2SGWForokJ+wbZNhRTiqczLNMyPUT05jRM8MGqZIR4ynqeCKGDxU2iZ/m7yJF2ZUYjgJBHwRooafSNjh/CPh6iGNlEKhiDzJ9Z//djPXvmWTHSlgyq2tyU1KUAt2xLLx2yKGE+bpOUX87e08frqvK4Hd5BiwHbjurbV8vCDMtzeIQq3SXvTqJw5frw9y8hNlfHNjNrnJ4sy1dxNHmFcVpN+da5l3Z2uSfSYhXDpdt4g59x1CA6KUYnLITSv47C+5dMhOYE2lzc0vbmBpfjntciq5fVw3WqT4NPhxF3afYpCoGVL6Nop62pSuNJ8KODrcvIYXzs/imDapKosjzi+MQa97VvP42GwGtBQOC8n2bKvhIyq3khmJmuUY0XQFUdjajHrtlpYPwa6JP5T/l5KSCPtJ15NDueHnobfX0bl5gNGHpWCageoXSGkBuTpLocpRnliu6/o0cNLyshiOX537z1d8yddzqrjx5rYMH95c6fosWFjBuWfN4K8TepDnM8gvMSldFeHL53+mKimFs65vRlaGSdvcdHq3ySBFyg0iZrWd0EuFBIInEA0fRzRGYoKDesjVZfdYtkPJWMsMTuCluZu55i2DBMqZf09L0mNkE7uwp4oHCL+4pkp9SRF8eeQdW1tze1GcelReBPdLvz+4F/E9u3vZAZrqJRWY09BhkwmVhpk2cxiWWkQ0V3z8OLgtIIv65S+tYfIKg4v6+PloQZCVBSaGE+borokM7ZpF+2yLnDQf9VPEWTsqRWzZPlUXF/phAXapvbEi89HqgiIPXxi0Wbk5ojQNLMukRSY0TpWWQT0vDeUwLcJReGNeIW0bptArN0HVtsXFSVnDdCMqRRy1DdaXhmmeGVCzdnc2H1JPPu+F9fywropvrm+n5r9ssrUokcGq4hBHTihi8tX16VhP1i5BF+iKdVHUod+ty5h0XUuaZiQQMmy63LiaZ8+rR/826VQaBsfctYK7T8nm+I6p/JhXRVHEoF1GhPrpqfhUqk4crmQrtNKi0sLzHFq1QJWMRb2TuoVUshfawVmKqXH24iLGPlfBh5fXo2tuqtoRR02XhYU2I/6+kjm3tiY74MOS3bkpe/Utg3/XcdSzuf+NxVx6SnuSJTrwAiEdFrjYLmwsdVm8djObKyMs3uRj+dogpWE/hZVVhIIuRSGXUT0SuOLYBuSmBzRXk6d9KH8Wh1x+WJLHhoowPyyt4pBciwGdGtCqQRIJpk8FNXItkb6ePH05469fQftWJi+8eAwJlqj+JjLq1KkUpgSwDs2lstSgdMYqAuURogNakFwvga5NojRItenYJI3eLVNol5OkKLG3rKvEohMIGg5zlhWxZFOIaFR4JVz8CS6JwtpoGvhNi0S/RYJwYxiQ5ne4f0qEmUsN2tW3+ezKXBK8OpHHoL3DRSMeIGzHPDpzFeWJf/zI0JOa07pxBihSidgRm4byM0+eVGV4PB0KFeHFFQbr1l3JAmirHcgpp3/O2mURPp06iMx02fXFw4O6tfWBeTapGT8+JZ97Pw2Rk2QzvGcyAzsk06dFKgHJmSsXvu8D99rJ3i0tuZfXFkIj16H3hLUkuzD9hmYYToTiqMn3q4oI2yZlQYe//jfMab1dhh2SQFJyIoc2Scfvk4KBw9H3bmTCuAb0a5JExLA58m8baJpeRk7AR5uGKTz/nctZvZO4brAIoenUv/5TdqmiqGqTVxHlkx+KWbC+kuWbwgqo16RegFN6pzOgbbrCMr76TSEnHppNlsg9eocuo9s89Nl6HvoswoLxLUkVmVv1Xhvc8P46fl4X5c1LmmKYurdBlOy35kBz7ShLiqKcOGEFlQlJNE0zSUkSjgiD8iqTkoqwCtRsx8JnBcnODNCpgU1ORoCOTVJpkGbQLNMhOTmZ1XnFrC0zWLahnOJK2LApQsR2SE+BpvX8dGmeSseGfto2ziDRMliZV86idWWsyaukXrpL45wGZAVs2jVK4f57FvDB+5u59vrmnHZKa4ULef+9Vdx73yKmTBvGD9/m8X+Xz+PmG1szYmRrfLJueeVRPTt/6dBoGQkCK12Do+5cxIZgigJ16sypKIrqMoQEY0lmhM4tkujVzE/fdj5ufc9l8eYwA1u5vHxBE3yCP1AX9ACSO3jd4wHC9gIEDwDy0cdLWLeuiosv7LoFCCaWJ1B858rSnhaFtGAqo8eO+K52711NrBgowCKNKz7/winM+8bl2Rc6072LtG3Fm1n23s4H/hkkrSwOtDRkkRRwSHJk5yxS4QYR04/lRr0uhL1RfP1t7RR04ZCbFtKrZTqvXpSrxJuWF4Z4c+5mKhBdnAhvzzYps3yc2s2loKic0qoQSUlJHNkqlSUlYdJ8NrcNb6Z2/+c+v4b6malMOClbObRrXlvP8vwQ713eXJUSFI+BMD1465rlOCzNq2Rdpc1hrbJIcR1KHIO3vi7g0clFXHFsBmN71GP82yu47IRWNM2QMdVECFK4GfXI/7N3HuBVVFsbfufMKekBAgFC772DCkgXERUVEQuKIigqiCiIXhUQRUAEe7v23gsiovSO9N57C4QQ0ttpM/M/a88JIPpfCCKCZu5zFTlT1+zZa+21vvV9Bzjk1fj1EZuQSQEUTQcNnt7Gw1eW5M7mJTB0A12BS3+r66OWZpZIUQdJ8bpZeyCDnUk6Wd6gyvbGRTooGweROlQqFYPugkOpeSRnWySmBthyMJPDWRo7Ev2UjXNQNtpJxfgoyhYPp2YpH9USilE6SmkS883yFA6lmaTnZBETbRAMhlGlZBiNKkRQLSFGlU2cqv1eCBEg6aiX2275FV338OlXzSlVLBy/X6NVux/44avLGDdxA4n7/Uya3FY5e10/XYD18UyMHxEAy2V/ioFfFDuBMI9FTLhBmMOibIkoKsa5Bemh5Jtl/w7P7WdPeiS9WsCEHiVxBi38TuxMwilcVFGA8Affu12+sli8fD9ffnKQV15vqWqMJ27SwqM2UwBINhRGyEUKtNBDTE5/72zyj7h6qJYojGwK4WvyxhtbePedozw3oRadOiYoUZTzlo71H/EOLoyHsNPYARs8ZjcuqJS+rgJLCTDtCfEscAD9bQbZn2XQZuw+7r3cw2MdyiiwngDwVLuepLw1ixE/HeLrRdlsGlsDXRET2Wl3f8Bk0pYjvPRjHkueqKo6KEb/lMjyffDzgAoENYP5OzK444NcFjxWhkrRbnTNj6m57JW8lGAUKjhUl1erUAPLFLpzk29WZDPml6MsebIabqnfSzh2orEtkZoyaTX2IC1rWrzUQzIFdstfpteg/tiDzBkcT424cFXqkWcSsOjvwjmpxatqh8zBdgAiAE3JMaZ5A0xfdYCf1vtIypduFR23BSUjwykZA61qu6lXJpYaCR4VnAgiwW57lQcL8UbYhR+RxQrpVMhzSEdFqF1SXduuR5gOv2p/LaCQ/vKrXUx4LpG6dS0+/LADuXl+OnacxmuvXMx9g1cy6rG6XNe96vGmWzWnnQ6ZkmICsjkvFfrTzgLYY145olAOwranfXMmebqDJqOSyPRrDGrr5LEr4lVJJ+Awcak59X8P5aIA4Y8yCAoE42Dl2sM8+/Q6vpzURaWDTgyFVZuMqZGcls0HH2yiVrViXNu9unJUKu1znoh0/G0z2dm+sPoSZELQmTFtB488foABAxLof2cdDF2SbUUgxbNt8gvtfPYUqkJ1HJZXlZ4UoE40AKRApWToT1AovMAeUD6BNSIr/UYmY7o7uL1FQijoER2FAidhMWeHjz7vZbDoP8WpEOtRbYBBh4nDMPDqbpoO38OUh8pSrXgY327I5JUZWcwfVl5lQzOxaPVMIne3juLBdsXQdFnzy5wmditISUtWIYiBR6W07bKNyZqDPq59JZ11T1UkJkzwGyc3F1jkGXDx6D2MvC6eno3CVYZAArf9WX66TtjMqlENCXeKwxbnZWcvTi4gqgWccBA4DIUf0RzC1ih/JWl4Oxiyx4IdzYhtBAbpFICh6ogMpeNDTr4gBSnAS9lPAgWVvRDmRwXIlO4CCTYlWyDkQ/KbICOl9GJzadhYDAFh6tzdfzHrVvm48+5q7D+YTOYRL7Xrl2TenCQmfd8Zh9KnKFAqLjDSKTx1QS+B6kqRrJhq4LWDo+MJmtCfbc0NaRHNwaLq8ET1bsdcE0m/i2JUqUj1fZ1GgvssBQj2xC1ENiImogQiNMNm+BL6TIRg5JTByu8+1yNHc0B3E6+4uqUW9kdftA3gUF2pcr1jBUDpOA2lt9SLtqNBS1puVAsPOA17GNk9LwJK1FUgYAny1vSwYs1BBg9cT4+by3LwQIBnxjci0mFzmVuGg0mTtvLJpztp06kWuenpDB/RXBGBqPaR00jfXGDz03lwu/bHlJcDl7afQdeuxRnzZHOCunFeyaqeB4b6997CCfNuQYfcMT/1JyEAf7tRLYvpO3Lp834mvz5WloQYh3TX/y4lctRvctHIRCY9UJoGZYUS2l5VSuU0oGl0mLiDJ68sR+c6YaxIzGXAJykseryyUqUUfoMHvklif7qPr++tjEeTUEBXaP5Q8sBmFVCgSDsotxAxIJ1vV2Xz6I8Bdj5dXIUTci4lFhU6Vso9uX6N5s9s5+uBlW1RKwnpNJ1v1mWTk5VG3zaVbL6KECDyZK9hT+9yfRsw+dsq+v+P/lDEB4oPInSsnXY4Rn10rFH62CmO38Px8WNnoOyjCsKW4yt3m2bDJD0jwNWXTyXPjCHCCvDBt225u/d87rmvEr1urYNDiXQVdjAev87xrMEJePgTB2fIT0opZn26k6ufO0hQc/BubydX1hHeiYKy+KkXVWclQAiJ7QmZF5Ym/a62k5RBpGI2/Uw0Eyxm/JzE9Bn7ef7FZlia4vb6XQOInTyUSE4uLqmu42knm3Eq9CKPvXipXwlWwK+iPb+m8cJzG/l1dio9byvBLbfWVquOlJRM1m7IZuRjGxn9XEPeemUXN/UqS88eNVi0dC+bN+aSnOwloWIc77++nB+ndadUMWlpUqFb6P2f+gX87ZPOBXgDpgEdOy+gXFmNTz5ppRjjijIIF+CLLLrlQlvgw6VpjPwxl81jRRDKlgg6OU2caxg0eeYgb91SgnY1Iu0AQRFG2b30T08+THiExcOd4zmaY3DpmCQ2PFMJp2rF1Ji5O5u7Psjg50GlqZPgRhcWSFlF297RbvmTPzjs1bQsxTLzRR57L9XLuPn67gpq1S6lD3/QIiM7k1Iliqv5OzUAbUdvZ9XwagptX5DUf2HGVgZ0qo7HKdoWF+4mWhkSUh1NNejVcwa4I9CtCKpUNnnljda4dYcqq5yLzSTIlI0Z3PdpUJVhP+3jpkOtOOWeFPfEaZQ2zlKAkK96XTOyfbz22mZ+XZzP0aP5VK+s8+KrFxEfb1NmFnZbsvQIE55dx/ffX3Ycqf7bTH9IylRCBAtvvkaEx1A9sTYls6RRbCY1AeAcOJBPXEkXMeFONciPpOczeMBqjqZm0v++elzeJUGhVy3Lw5q1B3n4oY1oVgzT513C+DGr8Pk1HnywPg8OXsz2bRa160Vy5FAqH3zejriS4fi9Fls2HKBpi0q2ZpmwkBVtZ90C0uZ0661L2LkzlznzOxEZLu/5Qp5WzrqJik74D7SALIbGTkvl25W5LB1eIVRD//1KNGiYNB93gIcuL0HvFhIg2G5YuXULDuQYTJyyk+duroPTMrj5rd3cckkk1zROQNeCKhtw7at7qRwXzsu9SqlSQUG6XmVaCwScLVNlXHele7n38xRSUuGHB8pQNTbMxgio7ofQYjFEJJAVDDJ7YzrXNY4LtXhKOQD2p/upLIBG6e8/VWH8PH63kkGXgEzWq8LGuXJlEkGfTouL4oiMEn9w7jhbJHf/8a9J/GeKvbj+sq+HttWLhUrgp9dld3YCBNPgYJKfhwYtpmTpGBo0iiA5xeTHSTkMGxbPzTcL33YhX7wFi5ce5OlRm5j2S2eluW6XDI47AkEtH0nO5+WXN7FgYTrefIuG9cJ558NLFRBD9M0PHvTx6ce7mTfvCBmpAQYPq0avm2oStEzu7P0r+fkmE19oSukyHjwuGaAGSxfvZfLkVGbOyaVhQw8fvH8Rw4atZc9ug88+b8xLL2/lm68yVBR+XY/SZKYG2bkji127fVzU3MMrb7RStTVJyxVtf4EFrCCPP76WX6ZnMHZcTa7oLGCnogDhL7B00SnPIwuIY77rowPsTgky6+FKSt/BrqmeBKA2La55aQf1qoYx5tpyIQBvKK0sTXGWxbzNSbSvI4yKFquO+Bn07nbmPlaXCF0WUxo/bspm1HfJ/PxgOcqIIqHDbZcVFM2xAPg01u3N4Md1fiat9hEbpvN8r1haVxaAoQALhaZZrmlrRSgaKVmoKbIf+aOGS2X9bXChpiKKkDbGGSwmz5/XFOIsOKb9II5YCKsKMts2X8a52AQl8s78Q4ycoeM0Lb6/J5qLK0UqCICdaT/1AvYPAoQTG0+P13SOVXv+oHQi5B333T2bq7vX5MquAnYxWLk2jXvu2syoJ2vQ7ZryNnpYDa1QJ7KgThXDlcSmdr+tqQVwKLVGu1Vw0ZL9PDx4BwuWtmfzplQy0w1aXFKKcLc8mMaRo36uu3YShjeepq3D2LjGwOnIYca8K5B2nLUbUxh8/1py88IID/dza68y9L+3AbojwOo1qdzTbyPvf9qYBrVLqBRMWpqPH3/YwLXdG/LwA8vYvNPHiCfrcvUVFehxzc+06VSOhwY3YPXaNIY+vJqMDI8Cy8h4dpg65Sv7eWZsUxrUibUBM+colXQuBtv5dA3pIJky5RAjn9pKl04leHZcUzSVN7N5KYo6SM6nt1V0L3/KAsdK4aKmAJe9eIji4Sbf3VdO4ZxsX/rbAME0TV6an6x69l+4qVoIYG3nEGSzKZAF6GbXCzTDxcajWdQoEYXHHQL2ifzzxjT2puUQqTspXyoaQ3exaMtRDnt1lqzPITNoULlkLB0aaAxoU0KRG2mmiaXbjsd29wX1dhuzoJkCFhVgo4DsFHOMDSzVBFjqx9LcF3D+wK7ACC+Bcr5KvVLwcXZXhP2sdmdNAQbhmHyCSvnryj5miHSr4LcCpMQxzUt1+Al2+38GmOSCnpuWwosLg4r7YMqAYjQrHxESh/p9uf6PTvMHAUKofq7GXWh0Sro+1M5hg/1+OyCzcoOMfnIJ4567VBgoybMsrrxsEnleDz9834GyZT2KYzrfb5CR5UczDYoXD8fpEYpSkeoIgQVVa4CiMVOUmOvWHaRf3zUMGFSXj97ditcXxi23xDP4obp4vQZdL/uJPF8sj4+owZQf97JhrcXAAfHc3rcmifvzuPGmmfj9JSmfYDLhpcZUrxarIluhqvzuxw2MGXuUgQMScDhMtm46yo5N+Xz0TSeiIhwcPuwlMy+f6lVjVA1u34EMSpaKITLC5gxPzQzwy9Sd7N9vUrmSg4ZNylOrVoxK+9nfrHyF5yZS/FMT0AV5sEl2DnToOI3SpSKZMqWt4jq3AwObe/60ILoX5LMX3fS/ygIKPW+38eWjUWf4Hi6r4+K924THQBztb+cY5XRNSPQaPPXdbt7sVUWx6xX2e7DBfFJOCHLUdPHenMMs3RIkKdtP5/oxNK4UpHOjskSb0jMSWuj96xdEMgfZjt7uKrEdueDdxJ/JIlj8owLPKjdqq1FiBlUZSMiOAtJOaeoEczIwAn5cUTFYzjCcDinVGCoA8+fmgEtH90SrHIDhCKiA62RtDHGnwyYf4dPlPsUMOvWBOBqXDVfdFjaF9alT3P9PiSHUOSuSplYAh8OJQ4lISKRnEzCcGLX++NNmXHoEXa4oDVYYU37ZyejhR3lmYjk6ty+nKCxnzDrE8EdXoAjSjQiu6BrNk0+2VJKT0u0QME2SDhhUqOBRIhpHkrMIjyhG+3aziQq3+HlWR4Y9upjVizOYvaAry5ftYdjQRBV9ir64AGLuujeee+6ux779GSQfCTDg7u24w3OYNqczMZ5QO4zEc5ZbZSkeHLyEVSvTiI7SuO/BqnTtWkdRS0gbiIrelICIDH6JCDVM00IFx9I2ZQVVZ4UN1BFVL7FJAa5XAirpry0KEP6Kydwyg5iWxj33Lmb1KouXX61Om1YJoUkwJHpyQUOd/gqrFZ3zgrSAQoALjkpnS4qXLi8k859rIhnYsiSGJo7hBCIiNVlJ5TmIbriZveMobWoVxy0LlVP7ghPMI44uSEBzqYSc07DJgEQB853Zh+nYqBjV42UeDVfHKEcjtfdjvPQXpKX//E3bkg2KBtptiv108k3IyDZYvW4HuVnJ6E43LWtVJqFCKbsl3gpiBoPs/ukHkmd/R1T5quQlp5O9dys6XrxhxWjc+26iKlfj4PzZHJw/Dd2fiVeLoEzb9jS9/z9ojugCOojfvEMZOvd+lsKkzUFcpsGMh+KpU8qlFsSnq4D7uwDBriAEFPmFdMD27j6H3gOr0alTDeXuhIJYyDdOHHHfTlpHTEQpKlSO4PWXtrNiuZc+91agf9/yCuU6b04iw4ZvomuHUgwZ1pApUw/w+ss7WLysi+oJfe3VdUz+LpWsvGx+nNqV+FJudmw9RHR0Ca67dj4DHojnzt5N+W7yFsaNOcioURW5/PJqPDl6NdOn+gk6DJo0iOCqy8NYty4Pj8tN30G16d51CZd3jmD0uOboqsPBdtzKwYeSQYr5UOWFClilCvqo7b57W9RTt8lWJFCQQEAiHukZUmVvxSBir14LNlVXk78tChD+/Ff3+zMoIRbT4jNFSpJE/XoBPvq0rVpNKYDQacXGf8WdFZ2zyAJn2QKK5EnmJCezth2l70f5vNnLSbf6ZTGEIOwPAmFhz3PLcar7ILRQKVSAoBa+KjCRbK+sNtXSRwswe0c6hzMNbmlaWhH9miprYKe7bdnmQl7oLJvr7zqdmpMUODFIer7JK3OSmLU2jyrJq2h9dCbl83cSHQzY7f+WSY67JOEeJ7ojFytg4MoTwiXJBshiNIhDcxIRHk1ebk6IiE+CPKV+oRakMss5DTfBCA91npxAyQaXHLO9TU4li1aNPu8f4pddTtymj1lD4qldSvxXQVh36ndlBwghXIFae4UurrgFtADLV6QzbPAqoos56NypNPcOaEhEhEoqHbuh775bT3hEKUaPWkd+0KV+qlwRPv2kNWGRHgY/sJhliwPUqBuBP+hjz+5c7u5fnnv61ufb77cz9rndtGkdy/0D6lG9aizvvL6EK2+oX6Am4AAAIABJREFUx7ff7ufTD4/w2lt1uahFKZKT/HTrNpvnX2lA+4vL4zXhpYmb+Pa7QxiWtMcEaH6Jm+cntCHcrbNqzWFqVi9GsWJCyCESpQr0gKWJjpmQfITqYscIJxTbRmiM2RStdl07VAVSaF4JJAoIPEIlmFB8YVfU5IOU7QyDg4Ka48l9sseaX0/9Us/sI/kfPcS/OeHJIJRjw+ek3uWC/U7Y/3d/VdheYPtGBGSlWwYpGQG6XjEHlxbB3EXt8Dg0HJLD+xdPVGf27ouOOn8tIAsaAfY5eW9JKqOm5LDwiXJUjXDamdOTb1x9Ul7F92J/XbL6L7zjtoWShVfG1koQiWfBWR3ICTLxl328dEN1LF2CAruWbRMa/du2gjnTfm6hwR41KZEf1uRTM3Ub16Z8RZX8LTYls9pVMvDi4qWRXlQuZdEqRFEGAd1BZMDHvvAaxAQzibSy1TRmiWLgMSSDQ61Lbe0ZySo50a0AOe5wLn3+fSKq1T6OSVFjRuOmN/czLzEct+ll7sPCUikt/rYfO80SQ1BRTclB3gB0aj2Dhs2iaNmyDHXrRlK7Xjxul8Xs2Yd57ZWdlC2t8eZbbXG6ZXDYw/O7bzdwMEnj0/eOMHREOZYvyGLWwlwubu7g1Zcv5YWXN/D1l5k43AatW0bSrl0xrupWBbfm5M47F7Jtj0nPa+PxBU1WL9/Dw48146LmZXjptdVsXevn9fcvUcxWQSvIrJ/30fHyCoRJxwEmQVNj545UDh0KEBnroHEDuV8B7xwrAv1BVHtmjukvH/4hRTb5GDFMtu7IIBg0qF+3lGoTVTrsv1MuUS5TkVRJ1GmnQwqP6LeHkx1A2XX8AjbIE8+nxNNDqFwZvCarVycTVzqcSuVjQjz3diuV9AJL3kvxlIuKHU5Wrkxm7tx0fDl+GjQtztXXVsQlVKtnNLVYGKbGmNGr+XZyFj27RzL8iWZKflPJs17QSOi/fKQVXeACsIC9JgiorKWUYUf9dJQPlnrZ8UwFPJLlFQrkY2j5Ex/o7M9vNiZBlB5M+r23nffuknLsv3wLdXQIyP5QrsF9Hx8kbet+rjn6DY2z1xNm5CtZbF2Ah6pUbS/eCxLWIlvtcUYogGYwmIvLMNgeVZ9KebtwqvnT3lS1W5RF5SRhUTjrNSRn3TLCDEMtjIUO26rdjFYT3lIt/oZ00AnQwYKubxxkVZITp+VnztDS1IqTOdmWGDwdL6GZlmkJAEYcjBw0atQa1q/PJuWwj0DAp56oQkIUH77fij2HMul752ree6cejRpXsoFhaEz5cRsffJzB3t2ZPPJoDdp3LM0N3ZaTF/QycXwD6jcowd33LCVxr5Oq1YPcfHMVIqMd1KgWzuatmXz0/kF8+UEqV4/l/kFVqV61GA4BcAhKVzL5yu9JysR2POII7ag4pNMdSnIhWtmaWzkom63qwtpsAtAgmqEx9tlN/DJ1H3Vrh/Pqu+0RcLHdQStD7LfP5vX7MQ0nER5JKQpy9tTtK7+3zIkZBPnzCSvxY1kVOcoOVBShqaXx46SdxJZw0qZNFXSbgUOhpDevT6VS1ViiInVy8w3GPL2RWfOTadw4hpJxHhbMTeLm2ypx/8CGpzVQf3+/fhVBr1qTRv+71hLmNJkxu6MaV4oK9d+3nLmwBnvR3Z7SAscCBFyqkPnQ18nM3xVgxWPlcKtVfQF53LkY7DafjGQVRn6/i+HXVyf8XFz2lFb6G3cQCmvBwFkavSasodKWX+iUPovYQBYBXSO2cTP8O7fjy8q0C85KMyOkIyECWGHhuKpUVTLNgUNHCGQeUrTxnoBbsQKfGCHY6zXBNYRR4eY+pK1YjLVzGwGPB/Lz8Do9dPpqJoRFg8PuBpQp/PJX97P2iNBt+5k7tDQ1Cx8gWCpAsGvwATtaMe30lIh7pKZYxMdrqmXv0UdWs3JFDj9NbUVklIYuTthysG5DMn3u3KgAMg/dX41ed1Ziz55cnhq1nFturkLXLuXJyTP55OMdLF+Ri8PlpdfN1enUoZwiNJI6lkSowh2tsAEKuGiTe9iSBjbntd1VIb/bwho2I6eNEji+Cr3wAoPjkaIl2CAeGrKIFWtzeeWlJlSrWoyYWMFAhLIDJ4tGCXnK08vI9+cz+un29ms8ow/XtqOiy7Y0HBKKqvSigDEFeyFjIlSUUa9IAgVLdbdYVhgOLQBB4S2HN97YyE9TDnLZFXE8OKgpN/Wajj/fzfjxzahTuxgZGQE++3o7n/z3INPnt6W4lIAKs4XSdRLSBgydKy+fRlp6GO992JDGDYvZgVQRcVJhLFq073lrATuDIGqKN799gKyAydQBlXEpnNM5TOsrVUcbST9pXRYxLoPOdUuet1Y7JzcmMA/L4P2PpxM29b9UyE+0xZ8SKlO8czfSZs+EIwfxB/IVD4ESSXJKcSBIeJW6NH5wDHqZeAyHG0deNjvffY3khZNwmQWBX8FThDqz5Oy6H7dhEdRcGA6dRs+8zLoR9+MMQt2xr1GiQSssPYgmMt0mXPbyXtYfDT/zDIIl0PyQk1UCFCH2K7t6JatREGrbH3/ayYsTNzFmQgtaXlJe/WqTH4lTs2jTcT7e/AAfv99ECVMI5aQwCQoxhugx2Es6yQjYrlxVuMThS21LrUo1NFOuLxAbqZPYtRc7pV4QGEjGICSSoXIvEjQUUEaezMt9TobIWb2I4D8mTd7DmNHbeO+Di2lYvzjS8y/6DoqJUvMJ/Og3GQSZJtpcPJ3waBczZ3SyyxCqRlXIKMFGJWGYFr6AYdOgqlcmam0O9u/LpV+/ucTFFWPMhAZUrRir3ksgaOHzGkTH6OzYlcq8OWnMmX0Ut8fg5jvK8OuMdBYsSKP3PaXZty3IwkWp5OULztpFXIyfX2Zcg9t5Jvcquh9ikyBff7efceMP0LiexvvvtVMCM2Kzoq3IAhe+BYT9wInfsrjm9UTCnSbf3FMZp1KQtfUHz8UmMEnBIwhwfcMhH9+uyOCZ68qfi0uft9cQ7ED+7h0sHNafCK+XoMdDQo9+lGnTmaiYMAyPS7UuZu/ZxvZ33sHcvomgw4un4SU0Gj4eJ+H4nIYqQfh1C5fhYsfnL5A26VvFJXQ8PJBQUNy0k4BKjtqAUSGZqj7oaba9ORKH30VUm3Y0e2SCWiFKSUo3HHR6aQ8bUiP+RICg4JcnrmGP1+6PETMI9C4oYkYWbo9gV0/cbOd98GA+gUCQSpVi1eJe7aNW+8dr2L8VuSgglTieDf4tIcRJdbTf/OcfAN+O0YCc9MFI8CUlFE0jz4JoubNz4jvkHoNYqv3R7nn9fd5bfXYhZKqDxCP5XHflPG7qmcDDjzRUzbLCH6GOk4RJQTYldKZAUGP+ogM8NmS76m1duryrGjSK8UwFCbLZErDiSAVlHLQ0Vq1O5tln1+Hz5jPyyUto0bS0Om7btjwGDVhInt+JM8zH7bfX5s7bqpOe5uPqq2cq1PJX33ckItJJ4r5DVK+egO5y8tCg73nx1R5kZ3vp2X0tGd4kbuxek6u6VeLuO1by7eSLiY31cE+/2ezaaaA7fdx0SwXuurcpkWFimzPJ+hTY0yQpycuVXZepYHPaLxcTXzosFCCcm8nzvJ3Bim7sH2ABLwZhGKbBJRNSaVLO4t1bS6n5LKTJd26eUWS0Q+LIe4/m88hXB/j+/lrn5trny1WUfLjcTADT0PEf3M6qgb0wpCsuKopG4/9LWOmKSqLa0PPxBN2YeHDgxzD8JE37gcQZk2n5wvsEnbLQM3Aa0lVgKmpmIyQ6t3b0Q/hWrwj9fSQrizehQeYmnI4jeIIupcxpl1HF9zpVG75wJ2THuOjy+SLQbd1N+We75xPZetSNjp85Q+KpVdIW7zptDILqYviTmzhghaIokJA8j6SOLcPC7wgyfuRiwovHcPtt9SkdHxJVOkFD+0+a4I8PVyG+gE2kRBJqj/zNnoYdICgMiM6E8WuYPOkoU2ddSokYkam1WzNtPIC8UrGzAJYk/W+wfXsmd/Sah88sieZMZ8H8KwgP0xUG4L33N7Li10yiYl08PrwR8SXCMCwHgwcuJDLCwR131kVIHYYMXcDHH3fAtBzcdP0Cet4Rz6XNK7BmxWE++nQ/NWqG0+Wqaox7ZjsffdKCBnVjVPYnFMdiWAavvrSSvve0IDrMQe8+s+nXrzYJpaK4677FDBpcjeu71wzJ8JoEAhoe9XFIBCyljDPBS/zW3JLFaNPyZ7xGGG+/2ZAWLUrZVaiircgCF7gFpCtK1o8By6LOiAPc0CKM8d1KqbJsgRs4F48o2WRpfReS5UxTo++r2/j+ofrn4tLnzTXUAtauweNPT2PhoDtwZyZjRMVQY8hIStVtAS4N3XTZ7ImaTy3S/IoEyYkWCODLzyIiKgbD4VKYhIBu4DANfHoYkQETvyuAMzuL5QNuJcuXx4cJAzjsrMCj+0fgMFzK0YcJsdIJIMYCA3ndLjp9u1jpWdhZZIs2Ew+wPTUMHd/fFyAUANYK+i9DdIjnxYuVvtQXXlpP25bl2ZWYQas2FalYJiwEsjuzFqDTezAZSSGxEpUKN/9AL0A+frtz4EhKPt2umEvHTiUZO/4iGwMgkap8lKomYxdmhIfiuMyqzvoNqfTvt5SgEUGL+iZPjG7Gq69tZ9GCbO64qwLRER4+/mAzH3/enl+m7OHgoVweGS68ECZ792Rx++3L+OnnjiQdTOOO3puJjgswZXInwnWdzfuy6H3TMmrUjOFIspcZs9uJOnoI42AnOOWfL7+4hH73XExEBIx+aq3CmeRk++h+Q3keGFRHIWqVZvuxwkco6FGa6qdnzf+1l3y4Lz6/mk8+y6PH9RE8/niTCxKk+uctUXSGf5oFFC+fZZFhadR7Yh/9W7t58qoyoQzCibT4f/GTK5yaanjkcFoWW4846FRHyoz/os00lE6FUOls+/BVUn54H68jmtoPPkqJJq0gIkqVFPL2bWf3Vx/iP3IEZ3wC1Xv2JqpSdUxHQVu9lNpl7guSsWYZB+bNoeEDg3EQRb7Twm1obBn7MNl79vJ1m4lUnvsujfLmsiTmctpmTMcVEY6RK7yax9f2Qs8cllCLZm9+pkr/qiINtJm4n+2p4SpAmC08CH9HBuFETgR7uJz9NpszHYb79mXx/Tc7GPRQYx4dtoDxE9ri1G3OfqlhK0DeX1ZykF5XwRsHyMuDqMhjRMwnWEnuw8H8hYcYOmQL02e2pWQxYYd026rRqrvES77Xxe49aZQsGUny4Wzq1o3H45TfdLp1nUVKWoB5C67gcGImPW9cS4sWEbz6ZlOysg16dJ/Ku+905MN3t9Hi0pJ0aleOl1/dyZRJB+h/X03ad4xXZZgpPxxg+ZIM8vN93NKrGrNnJ5OeGqBcgpOtuzP4acoVdtlCVi8FuBJLY8OmQ9SqVRq3Q8ObD9Nm7aFs+QgublJa7XsMZFrQ5KM6cORMwhkRApye6QsOHXcoycvVVy0nMjqX2bO64HadhcjjT95T0eFFFvizFlCs/qbF+hQfXV5KYXjXCAa2iQvR9Yog0p/PwJ3WPSreJcXRaHeWScHhzNDQp3W583Inw8DvcBBMSmTJgBvB8HH4krto0rIhlVs3xh3UOLJiCVtefZIwb45Nm6z5MCLL02TMy3gSaiigohhQPGQg7RArHh2EKz2Zig+NoNSlXQhqDsJMjS3vPYfhDVK2XQc2jh7KzthLyA/k0yRnPYme8iT4DuISRHtok6xy6Rv6UvOOexRmRQiZZG5t/dw+dqZHqABh7sNlqFnCzi6c0xLD6bxMm4Ap1G/wp0oQx2vP/9/ys0A9TNL2/e6aysiRbYiMdDF06EI+/uCy0Eo+gGE6mTNzD61alyciUgwXEvs51jZpy2zY4E2bmcxe8Z5ADnTM1f/eIQmIxVYwg8eG/cJzz18ZIrEqkKNSsEAVILz33i4++2o/06d1VAjlAqG23Hw/H364iy8+2kHxUlEcPpJLMBDN/YPK0a9vdVKPBuhyxVwMM4bPvqiL4fNxR9/VFI8Op3VLD7PmJdGqZWWeG9+MX5fv5/lnt1Ojsps5i/IoXjqaKC0XZxgcPapxZbc4Bj7QiCceWcSefSZxJXUeH96UPTvT2JuYzV131LOdvSZabpKFsfUPLM2ramGGaeLQBT1rE0aZmlM1XNqA0xB7ZUETcMGgOSswAROvz6Jzp/lk58FXnzeiVu240xmWRfsUWeC8toDqHTBNft6UQr/P/bx2SzQ96sdiKb6PcxcgHFvyCTWwKotKM9m/KwgXgjbNMlj62hv4Z71Dml6D70p3483HWuGOr4TDsFjYpwthuVlKh0eyDe6gA78rSEzrLtQcMgKn6SCoBxXgc9tLz5O14Bt8uk7N/iMp0+lKGy9GkB1vPEdsnfrs/uIDnHl+Wr37LbPvvglnfiZBLQy3lW0zGhvyPpwq8Kg34W2K122o2twtATHipPX43ezIEM0GLwsfSaBqMTu7cLpss2dF7vmUX5hixjUI+uFgUh6VRHJSisSFdg4FUpqh4fpHxysgidBRauT5LJ4ePo8xz3XgnbfW4nRGcle/GmgOPxhhpGb4eeyR2bzxVlccDuFXEEENuxxQ0EKkGMUkraQCHLvVRywsohkhS4ckV0/6WFS/q0l2rl1mGPH4XF58uZ3q1JBnt0mPxNm6lMbDhOfWMGdeKlN/7mTXFi0d0/Iz+qmVTJ1uMWhQBMWKxzBq+CE03Uv/fuXo3bcG9w9cwu7dQXKzNTpd5uLpZ1pyS8/57NkbhqkHuOSSMtxyaxxL5u/ACngZ+kQbO+CRdJd1nHZp4a+HGf7YOubNvcLWhFedE3YHimJTk/+ft/OBAGjh6itnczhV46knqnJN9yqnHJZFOxRZ4Hy2gJrl1JQX5MtVRxj2TYAP+kRyWa1iNteJon6Xf5/PT/HPuTeZp9clprF5aF8S8hOZW6wr1Xxb6D7heZxlS6kMwtzbOhHmz8WyPKolUSS5HYaDsJZtaPDIGIwQtb8ocS6+9wb01GSCUbG0ffsbfGFhuIMeFSCsHfcwWjCfnE1rqHDfcMzcbA6/PxENDz5dY19YdUqXL0XM9kWKaMnvMGn78Uz0YiJIaAMXpdWx1XPb2JkZh9vKZdkTFUiIKhgupzeZn5sAQUmM+tmyNZVHh6zlh6ldcKq0/und5LEhpr4Y6QuWj8J2vL9r+lcpnCBBw8Xb/11Np3aViSgTTv9e05ny87WKitdmgLRYvvQADVuUw6PuJcQkKDKkCvFv13eUIJOon4sMteJmyFM0ptJuqYibdHtt/PsuBZPcXItO7aarVk/d4+Hxx6pyRdequKQNz0a7KE4HAQhOmnSI11/fxLRZnXGb0oVgsG59On37rVHBzveTWjF3/jZeeT4HzeHj7Q9bMGbkag5n5jFn1lXccf0ctic6GTe2Js0vimPAXfPZvceunWiObP4zsj7XdqumamR2e2poU5iGIFs2Z9K791qWrLwMlzxbQbukekXHcj/n7dcu2ZrH/7OOn2dlcH23WEY+2TT0Ts5gnJ23T1l0Y/86C4Q6lybMzuClWbl83T+GVpUlQJAthEEoChDOybAQjphnXp9JixmjcJsa71e5i977X6fthLdxVKyPZQXYOOJ+fFtXKUCnlGRECVg8jhkbz8Xvf4GOBz9uHAfXsOaBfgQdOvE39KHajffhc+XjCoYTSNvPuv43ogd1XNdcRYPr+7Hw7hsJ0/KwgmH4nQZvVhhKVX8i1yR9opyQv2Z9Oj7/ruJG0NUCUDQfdC55dhd7s6MV1fLapyoS5xIsnN1QcDrbOQsQUpKzSM/1M6j/AqZM647bVn46nXs8vo+qxwvZp7T/uRU5j+Yo6EgI7RaSjM4zgnRt9wtfTurEsCHL6HFTea69ulqI5jIIgghV7SAFoiTSDhgkM8vBgIGLuOaKsvTsVUmBBEW53DB1fl28j0tbV8Rvadw/aDYbVgdo0yaCiROl976AebDgdi2CRpCVq3NYsXw/n32RTPvW0VzSOoxu1zRSwZEABaUdUToS9u7L4+brF3N1j3Ae+U9bFbAsmJ/EsKG7iCthcsft5fn440TSUkUvXNoe/dSrpvPCqy2JLxVGTo7JF19t4ZprqlI6LoqAYZGW4RMlUWJidNW5oLgtVHuM2K2g9m8HaSuXJzPo/nUsXNYJlxpgwkdxMj6gkAFd4d7un9zby4wZiTzy6EEqV7L4/vv2yoZ2FvR8vu8/+dhFh/+zLaDI4IIM/DyNyevzmTO0DDVLehRYuSh7cG5fvd80GTlgIl0Sv2FPeA3K9bmfyNf7U7LPMKpe012l+g988zGJX79FuF8jID4hRJFvYFD22nuoecvtSpzp10fuwn94H7onipZvfY0VLiXRIJbuY/1D95J7cBMlLr6Shg+NYOWTD5O/cTWanqMWpctiLufjsv0YcGg8jTO2KdGu+qPGU7x5e0UwqLgxNBPDcNB8/D6SssNxWflsG1uJSMmOh1q8Tsf7nkaAUFB9Cv27MPjDgkMsWLduPyXiYhnQZxGTZnbFxpCF6JKPRTPHlIp+++YLzmOgiCY+fncnl3ctT0KZGHTn8cnfFpuSlLhOalY+110xlSYXV6BCBZ0HhzQLrZ4dbN+RSl6un8ZN41U/qWoQkLTOmkwG37+ObK/FG6/Up2SZSAYOWMStvSrhcGu88vwW5i3qzpCBi1QrYe976jL2iVVMmdYZJQ1xoiMKlVXk5FJX6nnDHL78shNOXYArNoLV7mFVRA1Yps6y1cmMeHQNMTEWYWEuylXwsHe/xc7tMs7kxRp06lSc/v0rEeZykFBB0kmmolnWhErLFJIkOWcBTtSWaTWli0CGjWAbTI29e1OpWrVUSCfBxkP89+3tTPs5mUk/tEHSX5JBOJ48CNn4dEbUuf1mC6JCBOiRH9C4tM1sJX4y45d2lIjzhAKE8/bG/xZrFV30wrGAnccMctsH6czblsuG0RUp5hSQsGRS3SGemaLx/Ve+0YJegUW7s5g1ahyXH53KwrhL6fvEIDYOuxFXuWo0f/FzNccGUg6wbNDtaKZPsUY4hIfQ8mA6AuhmGEbZYrjzwJuVhLAkxF3bhyq971NZAXfQyZ5P3iF5ykdq9V/51rvIzUwjZerXOKUabUFOVDE+rfMEVfbMpVP6L0q/IT0ykiukvBAmpDIhwhwHBE1oMu4AR3PCcOFjx9jyhCmCwlBm+TSMduoAQa3IbcY6m2FIoqLTgP2HMuiiTr5hw0EqVIrjYKKXx4euZvIv7dQKVpihZNUuq1phChRnpuh8xdEVQAGVqqS0hQgqwOS7n/bzwvhNfPVNO8qVjcRxYguCalO1cQI7tqZxR5/NdGivM3xUE8Ldwm8dYOO6NAYN2ULn9uE8MeIiO4thwpZtWdx5+zIMLZxbbonhtttrMXTwMnJyDJ4a3Zx7+i2mWFwYMTEuUg/7GTm6LrPmpvHrggNMm3EZblUz+e2HqpgoLadSH+x7xyxeeL4tcdJm8v+Ae+TpDWlx2ZxMdEwkFSpGMnPmfsY8tYOEyjrdu1WmR4+KuFz/n/1Pjt5OoLgI6Vjs2+9l6NDZfP31NXZ4JgkMU6P79XNo0qgYI59urISxQmjK0xhC58kuIa2OK7vOIvmoxgsTa9C+XUWVTitMTHuePE3RbRRZQFlALXowufntFJbuyWfHuCpIlbpo+6stUKBmqdRxlF8a+Ml+Ksx4iXbp81gUexllO7Sk+vejCeg6zV79BHfZKmoRmrJ0OrsmjAnRIov/kpnWLitLlsFtmvicsij00HDim0RVrkdQeicP7OfXoX2I8vnwOp3EVq5E2r59hBlBDIdoEzmo/9h4Vi3agGvxV0QEveratR4eQ+n20mH2W/8j/DANnt1LWm4UMa5cNj9dWfHwFmY7dYCgBmmBFoKc+vRIfKUMIJ43Ly/I6uWJtGlbmUVLjvLsmA1MndrBjjksB2vXHqRG7TKEeyRIsNP9KUcCeANBFQCs35DG559uY8xzrdi7N5d77lhC955lGXB/bdVVIGWCEzfJIMiLeOO/a9iyI4fnxrXF7TIUIG/W7IP88M0eYkt5KFfayX33NyE1JQ9PuIeePWeQla1xZ68KNGxSmqdHbyDliMYttybw0+T9xBbXad4sTuEK5sxOUwoFLodJjxtKMewRERwqIDU6fjeWkAFJgSIIn362kmuvaUBMMUkP/n8Rv50BUfYOyXFKSkk1FUlrkSIWst9BobYQ2knO8cUXB3j77e3Mnn0ZuhYgiJOvv9rBSy8c4OPPm1C7ahzoOUBUoS7xt++sAiCT23otZfPWIH3uKM4Dg+sqW9uA06Iw4W9/R0U3UCgLhNZYqqR67WuH2Xo4wJZnKhZ6ki/URYt2PmECDy1YBaVlWTQbl0jPLa/RIX0G+901iLWOEh1IV50JcdfdSOU7HrTB3JbJ0Xm/sO2/43BYfiWTLVwWaoZS/ATCoKtTrFUnag95Ui28jUA+Kx+9G8e+AwQdot3gsvVudFtdwOXXKHF7f/wpR0id8bVaxJmWi8xiCVz5/pc4PeEnuQULb9Ci0bj9pOdFkhDpY8Xw8oVW4DxlgKDiKFOUvAo0FdwhkMP/GEkWilpS2KLefnk+t991MZERYfz3v9uYPvMQ333ZFt1jCwO98vw2GjcPp0P7KqoWb6Bz240zubxrAn36NmTHriz69FrEh19fyuABy4jyOPj0q454BGyhOJ1PXrWbaKbFpCm7Wbc+mZH/uYjULJMPPtpMSlIKY5/twqWX/MzQJxoRzM+gUqUYkg6ZTPo2iUdH1uXd/25g+fJ8mjcpwdJViaBF0qhGOG98fDHCjyXZidVrD7NqaQbNWxSjaYuyIZWJP3LcocBKgRFtwSNb9+J/1MRPWPTbKwih1bQzOHbng8SAZxYgCAp34oT1fPF1Js+Mq0b1KrFMnryHr75I4qqrSypgn2pLdBS0MV4Ys4Vy/aFa7UODVzJ/foD2baOZ+HI9hei94LIhF4bZi+532I4QAAAgAElEQVTyL7aAzdynEdTgshcPkJ7jYNWIcoWe5P/i2/xnnj5EmigOXUSLd2UGaDc+hauOTOHmI++hWyJS51bdbYZkwzWDxs+8RniNpph6vsoO5K9ZwsYXnsKdl67EtgxcuCxhz7W5K+q+9hHRZWuqkujReT+x/c2xSpdB6PUth4Y7MgIMk/yAl8iWnTGPJpO/fQVh/giCuh+/7uSd6kN4e8JNxMhC+TduwSI7YNJs7CEyvR7qxQeZ/lBCocfOKQOE9Ix8rr/yKz7+tgcJpaJxOG1J5f/ppKSsjsmu/bmsXnmEZheVZdqUDXz/VQb1mhbnhYn10XUX3oBOl45TefaFRrRqUVqpSP4wdRvPjN7NlCkdKBMvLYBOul0xncNHnThdPj77vDXVq8WiOfLRzPDf+toCJkwssrO8dOs2i0A+uHSTQUPr0L1HNZymTod2s/D6fQwfUY8uV5fn5ymHeObZjThNH8XjXLz/WSfiYl2kp2sIK3BspF3XUWyAqp4v3ROSQ9BVy6RmSe3nJMcfcvQCIBGVymNi4P8zQJAARAICW7lRhpTdiGgrLUpHRSFDg9DHaxtGgtg58w4w7OFtSkhL+BfkNlu0cPL6G63RHF40zaOufXpq4efH3GCbWgJDjfc/3slrLx+gZk0Xn33ZKoToPT/us+guiixQOAvY5P9BB7SduBsHYcx9uPCTfOGuWbS3soDCkNlU+Zrh5Lk5u3h+bgnuqryf9j8NwGn5mBt/LeWyDlAnf5UqbDtLV6Dl8//FFx6L09Twuy3cSSnMHfUAkUn7bf0EmaccFq7m7Wn46Hg1nweO7GPZwN54LL/KMEjng+bSCQiPjmHidnrwB02V8ZUyg3DkSAZietxVfJXQny1PxhPu0X+37MwMWjR+KoncoIN21Xx8eVelQssQ/S5AkExBgU6YQzPwejVuu2k2ydk+XB4nEU4ndRsWp/Plxeh0aXV79awA8pIeD1lWuAP9GtdePYPw6DAuv6wEPW6szYNDfuWSJvHc/2B1MDx8+NUW3nhhH4uWSdtjEJ/XSdfO06nfpDgvvXyR3T5oaUx4YS1ffHFUfSBXXeehUrkAfe5sqRLHJ3Pu24JGtphFrjdITm6Q6EgnEWFqbazimvx8E583SGwx9zEQX06eaGhrREU6Q7wGik3C3o7pIRRkCezf1ML+tL6nYyc6rb1/s9NZzIxL+UK0EH6YtIvXX91M2TIxPPhIXZo0KYnHZbe+nMXLFf5Zz/gIu5wl+bi583cydMhePC5YsOQyoUYPKX6eBm7mjK9fdGCRBf4aC8jIFg3XzhP2Ehul8cN9lULrz7/mekVnPW4BCRBEv1KWSze+l8jC3Tov9oyi+lePkL9xGbm66NI4iAxk48RQ3DERjS+m2X8m4tdliWWoNkZXTi7rXnqS3DVL0RwmQYeLi97+HmdMCXX8rg9eJv3Hb/B5AkT6dExdw7CEl8cuSUje2GUo7koMzYfucLAs+hLeKvcQeRHxrB1RnJK6Leh3wt2T5tdo8NRhgqaLK2pl836fKn8+QJC0/4ql+zia4iffC2ERQUqVKkGx6DAOJPr5deleFs/NICXDQWysi0eHVeeKKxNCzkVKEShWu8EPzOW2OxrSqnVxVaMRI9/QcykdO0UzYGAlNCOaIY+sYPsWPz/81JKUwz5637aY1HQX1/eI4r7+dViwcCdh4cV5csRGBg2ph9+bgVv30OXK8pQqGaGAH7rDVkss2k5lARvfIPUuKTXY5YoQ0kGYESVzcJrhzqmu9Lf8riIbg6NpFpdfNl/VAX/4qTUVEyKKAoS/5YUUXfSsWEDmUw3aPbufyvFBPutbtShAOCuGPfVJFKWOOGlLo8sru9mUFMFrN8fQxlzFuicHExF04NU1nOLMVYZXV6X4iEvaUv/RpzGJUEJMAWcQPTufba+OJXvFfMrfN4wK7a9V2IL8XVtZM+I+ovICeB0oMGJMXBze3FwCefnowr2j6QS1AM6gjtdl4CrfkA/rPMLkw/GUcuaxfGQ5YkT07jerVZPDfo0mo5IwTBc3NQ3w8o0JhW74/l0GwW/Cqy8tZ/8BL1l5JpvX5RMIgtOp07BRJE2bu+h7Z3M2rktl9FObSTqYyS8zLyOueITdQWBqvPvWcmbOyOOTr9qqdjzVmWBZPPzIErKz4M03LxZFSoY/sZ458zK48prSzJ++n159a/LR+7tw6RqNG+r0H9iYPrfM45Y+1Rlwbx0bCFjQGSnpd+EhP70l/KlHwz9+DxskowZ9gdGkTGKKyqS0Q17YhrQ/Zh8B00WbVnPx+TXGT6jA5R1rnBr38Y9/90UPeCFawMbWGPg0nUvGHKJuWR8f9y38KvBCfPbz4Z4LAgTD0ujw/A62ppbgzZtdXF8vnO3ffMyhz19XOhmSd7X/abefWkY44Y0a0eCxsTidUfgcQs2nYWansfGzt2h278P4cRJ0BNk8/EF8G9cQcBq4TAuHJwwjKKUFCTpks32nBB86QczKNWkwYgLt34WkvAgqh+cxf3hFPJLNPmEOlyNWJplc9coRVaZ+oIOLxy8vXmh3+XsMgsIP2FoDkkI3gyarVh5mxepMso8atG9fjIvblMVhOnj1zU189H4Skya3omLFSPUgclDKkVxiS0TgEn/uEMymtHSYbN+ezeKFSfTpWxcHQRWEjBu7mjyvxU03V6TrFQmsXp3Gju3ZXHlNZWLCnRxIyqVCQphqiVSl/2MMhAU1/6LU8el/TCe3Pdqrbhl8ilzjgt0KqLFNpXtxbbdFJB6yGHR/PP3urFMUIFyw7/XffeN2gBDEqzlp/FQyF1XM44M7iwKEczUqjmcQoNMLO1ifGs2rN8RwY+MIHL485t/SHpesnpWvFEce4pxVbeImwbIVaD5iInpCafRAmAIWhgV0DPGLpsn+yV+w/7M3FXAR3U1AA1dQaO5FHtqm9pfFm+ANpNQQWb02jR59mUV5Hnq9l0kAD7c1yOeFm8oqMLZ2Qr1dxs4nSw4zbIpCnfNUNzf3tipWaNP9LkAwVZudzbanKImV0xeBB3Ekwmqgoxsa23dncGOv5ZSK9vPjT12JECCfasez68GGKS150rpoUyPLkUpfQAh4FORcVxGXNHwIStQ2htMmDVItfSHJJYUiDYUFDrmzkMyEIDWUYsiF7NgK/b7O8IA/QBac2C3xp8SzzvCWzuph9lgR/KeAQu+8YxHrN2p0uUzj2fGXKoKoIjbFs2rwopOdAwvYAUIAr+ai7sjDCmj23h2VCp0mPge3+o+8xPEAwWLktGTeXaBxfUONl28pQc7OXax+qDduw7DZcEMaCwWAaZepERC+oNh4Go17hYj4ChiiwePw4wno5GUmsfLB23HmZhNwOInveSe1ru/BgdnzSF8+D0fyATIPJwv1ktLriWrakgbDx6LpUQz7PonPVruIII9ZjyZQJVY4hH4LYJcZb+L0PUycF6EW1ROuD+f2FoWX5z5lF8PxNy/UjZKKdrAvMYubb1iEx+Phux/bUaqYpKn/kWOk6KEuJAtIyxEmAwcsZ+nSAC0v1nnzzVY2tqJofF5Ib7LoXo9ZwCDf0qk54hBdawf5720ViwKEczU6ZLEaAgnuzbZoO+4gMXqQdU8nsPeDt0n+7gMCDkvJMwt2T+nXnPR2ZO3lrViDds++QdATqSiyhbxt2dMj8G+YhccRieb3E9Sc5OpOdFFqMGxcg6mb+Nyx1Lj9QSpfdbV66kzDQZtxh0jxeahfys/PD5VTjIzHZfds40ig0v+zRCZvcqss1Du3xtKtfmShp8FCBAgK90Vycho9esymXt14nn+lNREeA10v4vY6V2O26Dr/wwLCv4HJyBGb+GVqOrVrm3z6eXs7Y1XoT6PI0kUWOB8sYJCHTo0nDnJNPYvXe5UvChDO1WtRTl8pDZKn6TQZvZe83Ah+HuQifUhPTO9RHIaQIEmZwYXlCIRaGY+vRoSgT9P8lLz8Zqr0vx9LC8chIkyBNNZ/+S71+tzLgQUz2f7u68Tk5IQy9xq5LidRVevR7OlXcIaHYzqEkVHnrg/289OucFwGvHKjTs/GJRVY33IIyuH4JlR7HcbtZWt2GCIJ8fU9kbSpEl1oyxUqQBD0uxE08flNIsKdOByh2q+agIsEcQpt/aIDzpIFCgIAUyGOn3tuA199mU6lSkG+n9RRSVbbNOFFW5EFLiwLSE4sH53qjyXSs7HGizeVK5ppz9UrtEwMYa817UCh40t72XHYww3x+7hm/hCiqlciZ08meuAwlubEbQiZnd0bVrA5TKGy0Ai6XDQc9QoR9RqjmSYuw0Q4sx1Bi/0LZ3Jw8uf49m1XzLtWTEnqD3mcuHot0FwegrqX7EA4t7y1j9WHolV2oWtNL2/eURGXQ3IWoRLrSQFCrce2kukogdMIMHVgFE0r/MUlBhtfYN+ObNICosgfinAA52rIntF1jtFTFFA6nGpB/T9/P/HHU53ojG73DA4quA/pytB5441tvPveYcqUtvjxl/a4RBq8qDnsDOxadMjfbQEJECSDUP2xg/RqrjOhR5miAOFcvRTLIKA5FOmREOMt2OOj93vp1MlcxbB9Y6lw632UrFWdjU8OQg/Yon+WWiwfDxGEBVNKBn6HSViji2g6/GUM3VSreisvh0UDb8GZnaEYmsPKVaHSzXdSumU7HHo4QU0j1Wfw9uw0PloeJNeQBZCH6+p7GdcjgeJuwQZKGUT60n4rgSDdiNWf2EweZXGRx8xBsdRPiCx0JrVQGYSC93K+uIVzNU4uuOuEameC9hT1xqm/7GXKdzvJ82lc1a08t9xYy6bLVitr2Rzk5ng5kpJL5SolFPbz9/TEBcxQAeVsbb0IW0LahpAWfBZ/T7HfZp20W4K+/e4A48buJiIcFiyUDEKIi7mozHDBDeV//Q1bkKdZVH0smdsvdvDsdfFFAcI5HBTHfZ1F0NR4bmYKyyYv5v7E8URdfTsX9e3H7m/e48D3X+HKzQg5axOH4BIcDny6RmTl+iRcdR1Ze3ZT7abe6GExCrDoMvJZ+eJoipUoSclWHShZvxmmbtMUHsww+HJFDl8szSIpP0oFHvEeLw92jqTXRcWJVCrGBZKGv9dHyg5Y1Buxl3wtEpfmY8GQeKqXLDwU4IwChHP4fooudUYWCHG4mwZff7mT5SuOMPypFgQCBvfftZxefSrQ47qqx8pCMiR37krj+XHLef3dLiG3f3JK/gRVT2k5VavyE4MB1Yh7Rnd7dg6yAxYhg1qw8CAPPbgTzRFg+fIu6BIInUy5eXYuWnSWIgv8tRYIBQjVHkvhzpYaz1xTqihA+Gst/v+e3TSC+B0OPvh6FeW+fJSAI4bK9z9M9Urx5G9awtb338Tp9+MPj6J49bo4KlShSoeriapZA0v0GvARND2YQZ+aOqVLUPy85hTaex0fFmsPeJm0JpfvV2aQYcXgsBwkhHm5sqHOw1eXppi0+guuQVT7/sd0m5ofpNFTiXj1CMKDXpY+kUC5GFsDojBbUYBQGGtdIPsapjAbmCQme+nXew7fT+1KhFsGh5+Fi1MZN3Y9P07thDOk7WBJC6vlYO/eNKpUilNpq987e0WQoZywaeUrjXPFMib/F6COIHiF7vNvm75EG8OJZpmsXHWI/v23qmj+56ntKVPaRNOKGDcvkOFbdJsnWqAgQPjPEfpfqvPk1SX/ti/s3/5i/Fi4layNxeJXXyZv5me4NI2AGY7bzMUZEY1evz5NBj2Kq0RZVYw3ZCElIn0yM2oydxpKM8Y0TRwOndSAQUqOyeRVaXywIJtMojEsD+FWPiWjTW5s4WZwp5LCyahYFoU/yEb7/e/57EhugGbPJJLriCA64GPFqPLERxQeJ1gUIPwDR72SjDYdDB4yneFPXkbpYrpNraz52bU7hz69lzN34ZXi6lX6XQFrTFHSFPHnkPDUH664FeUVwYBEsKLuaQcIRlBT4k+6RLd/WxLBFs+SVpt9e/O4/oYlmFYYL71YgfbtKhaBFP+B4/xf8UgqQIDqjx3m3jYuRlwZV1Qo+7tevHQrWNLSKOJ9XpbM2cTUj+eS5XawJ6oaCfXr0aVhLJ2blcKjSH7lfwYOS1cYBFmE+Ywg63fmsPJANl8vyyUpO4aAAA01E5/mQvIItWL8TLg1gaZlXbg0YRBygcNAt2QBFMIcnGKeTcrxc9GYveTosRT3BVg5phzF3b8vRZzKlEUBwh9ZKJRNl1hRQxyPC8s0mDZ7B+++l0yxcAdPjmpEpXKRWIr8Qt6WSCQLH4QQStl80Ipo6jerAakuhVCuKrK0CTaU6LdsIgkdSvCr39Tfher7p68MpVgrE5Ozuaf3PCb9cpUSYjKEK9HysW5dFkOHrmb6zM7q/nSH3Ic4VpvwQ4FOHQFMIccyNTLyfUwYv4Ja1Ypz6x31VUvP3QMWc3GLMvTrU52ffk7kmae2UKW8zkffdMIjqS85p3CIqwLeuYoY7GqhBEciMNby0l+ACB57tAQ33dig0OCcU304Rb8XWeCcWMCEfIdBlceTeaBdOI91KTxd7jm5z3/FRZTW7jFJO8kCbE3zM/C9HWzNKG4DoRVgEGLcBhHOoJrugyb4LcjxOwkoYV7xE7bPcFgmTsukWTkfd3YsyyWV3JSKdKpsg+qwFI9gMzaFFH1Pz8kfyvbTfNwBAkQTZnjZNKYiZ1BhkIDE1mAs2k6wgGTTxclJgGDq+IN+Hh68Uuly33BDbSb/uI8du7KYPOVynM6gkme260ISCcp/y7LcASrlfnwLEViHaCxUAipEcGED7NQxxxCC9muxgw0JHIRl8jT8rciUmgYLf01n8bzdPPpEQxya9Mg6CVpBRvxnI4cOp/PuB+3QNckChFQu1dXEsQuZpYiOmBxNyWPw/WvJ9IZRs6qPF168hMlT9jNm9GHuvL0UN99WgR7dZ9D84qrMm32It95tRpNGxWzmQsulMACnSoWd7XGneMstuOjiGQSNMO7pX5x772lwwWtNnG07FZ3vArGAChBMqjx+mIc6RPJI59iiDMJ58uoknyrlXJmjtyfns+OoybLdGSzda7A92aY4tn+1cFgGbjRiolxULWtRNipA8yrFqBnvplpJF8XDnTgL1oQKr/DnNgkQmo5LxCIal5nHtmcqIULFhd2KAoQ/tJitRiHpHFnJf//dLrbtTufhIU3QHU6SDufT/apF9BtYimlTjpCWpeHS86lTtwztO8bRrVsVnJKCF4Wtk0IE5exNl613oYIJqSVJ+t8eSnZGoUCRKhQkSPSopEdDmNr/uSoX9TGDsWOX0KptRdq2Lq+SEbqlMfnHPbwwcQsffdqGKpUjbEyBory2z6vEPtQj+/nwg+1MmZzO4SSTNm11Ro1uTVauj1u6/0xUybL0uqEMeX4/8+akMHZCC665aim1qll8+GlbPC45n1B/nk5EU9ghe+r95bW1azeLzGwPXTqH8+z45kVkSac2W9Ee56MFTMhzmFR9PImhHSN5+LJif9p5nI+PeWHekwIkKAmCgsywcB4Iq2J+EPam5OENmnh0jbjYcEpEOXBaFrpaCIZoAoTkKEQfYGddxRf8ec6Wg9l+moxLBKLxWHlsH1OJ8MJDEIoyCH8cH9hyyJgOMrN93NZrCt9P6YlLy8PAw/7duVx/41LiS+t89smllIh1s27zYaZPPcqiBYdJKOvi9ffa4D75RStVLg2fzyBgGERFCArAJOWIj927/KQczSMjXf47G2++384gmBb1GpamVp1wateIRVdh5v8eQMLBcfutC3hsdGN+/GI9e3aaRJRwseTXdIYMrUXPG6oqdTEZ2kFMJk/axfp1Rxj4YFNKFYvA1AL8PO0w77y1heEjG9KsUTyHk/K5+96ZDL6vGVOmHSAiPJblvx5i/EsNaNSgONdePY2U1BieeLwC/8feeYBXUS5v/Le7p6SHkBB6B0WwoSCi9CZir6jYxYICKlZQiqLo9Vqx914AxY6IIF0pCoIgvbcEAqTntN39P/N954SifyEBEb3Z+3jRsDln92vzzsw775x3QR0MQyQ+/57Ivuy3c86ZyvqNJkc3sXnnvQ5K1OvvI1D+M4+/iqc+DEYgChAaDtzCnV0TGdCpAiAcBrOiH0FFK1XjIPWfyqEUuGAIRVwYUbokXM4dnSnWgCJWQq4CzfJjKbKKlmLrkvE9xZbK874b80Oc8OhmIBG/U8jyEfWIjz5nWT6vnBGE3eveVTw++vLRwMjvkMqBHM5/YGVKv157+IqAt6sPtM7tq1FHEUry84KEwhE1mY4DluWSUSU5ygb9g2dTRBBpMmUxdcZWfpmbTf/bjsWVqIAjbYQX8sUnWzn3omQG3NFC54hU/kmSBibjPv+NM85pqqV5hM8SNcaqiRUWN183nuXLAnw5oQdx8V4G3T2RKZNMbCuMZXlIiPcS57fJL4JAIEKDuj7S0wIMHtqe2rXi9ml1bcehS8eJxMU53DLgSH6aU8z477bhRsKc0SmTQQ82w6NIiAbfTdzAF5+uIrfAR/XqHh55VLxth5Wri3h46DyGPdKS1cvzGXL/PM65sDq3334Cn41azaNPrqJDuwT+899TFAln244Q9w39kc5tq9Lz4iYYlqRo5DpwNFyWBR3dt1x97UwWLIxQt0aYzz7vokiVFXLLZR3Jivv/9hGIVTEM2sQ93ZK4rUPZO/L97e/wL30AOVF2xQ70Ka9ztPqFd1kWiaTGeiRHeV5RvFCKBaSPgcRcoxyGAx2y9XkhWj62BddNIM4pYtkIiSCUPXFRDoAQs87S99pXSmgrKnYIOyHi/V7ivNLFUQyDDIzu5hiFSGV8b43ItOcnYEAMdyxvL+RB+bl8j5SOeHDNGIXEVW2qQxGDc88Zx7ZtQq8P47oCCmyqVF7P2K+uICFOSG3e3/HodMhdRxBeeHUJZ3avR526EjI3Wb6sgEt7zeH0HqnUrhHk0mvaEEeEkGsR5xPagbAJtFHUnxPCFW9a/UB77cMeXMDXn2/j8y9PoXp1vwIVIhGsKw0UCUB91+23zSYny+GDD0/BioGufXYmdLHdCGf3mEHPy2vx6nNLqFTZxxtvtmP2nC0MG7qCK6+pwi03nahCY/1v/46RT3VjxvSNPDPyNz4e21WFwAT73nP7ZObMCuHzhxg8/Fg6tKuh6nXlrXLzHSoleTCssCrXOZy8c8FrfW+dwY/THKpWDzHuqy7RVuFlXH4Vt1eMwN88ArJHS1yThoM2MPC0FPp3KLtc7t/8ChVf/zeMwJrcEKc+toWQEUdyJMDiEbVJKDUi+/9A5QQIEjWQWk7dXvehofOYOCGfQCRCYpyPa67L5Kprj8RU+fXdjXpZEEwMn8U80FikIoa0QhiOXxcCqLx9WJWDSOhcvH9pkvH66wvYsd2iWlUJzQeolObnhBNrUinVIE50sA3vbtGHXc+mDLsYaddg4ODJPDC8gyL0BQMWZ571PZVSbd5+rxMvjfyRL78sIU5KUZwAZ5+fTr/bT8E0JfRkMXnyUk46pSGJfgEhugxP7PsX36zmgftWM+67VmRWTtZ8B1XVIOxWB8N0CIY9dGwzjgsuqs7tdxyDqeIRGonuyxgLcWbw4LlMn1bILf2P4ILzRG4Twq7JfYPn8OPMIJOntGPIvVO5oe/x1KklTTwMdhQESE+Ni7JnbWzHJBgI4fVY+LxCkpTBLgHXr8GPAjQ2hiEKXRr8HA5eugCE2+6YwfTJBukZJYz/ujOWryxrb/83UMWdFSPwV47A7gDhvu6p9G2f8ld+XcVn/0tGQAOErQQND4mRAEtH1CVhL9L8/rxqOQCCJmWI8RRT/dxzPzFm9Gaefb4t9WonsHDRTu4aMJ+b+9bh8iuOxDLlPkuyMPvzPLvdE40eKCaoLsWbPGUFxzarQVFJhPzCIpodlYkpxfeU4Nh+br7pO4Y92IbMavEYrsWUH9bz47QsFvy8g3dGd8ernttkD+K+UgSMyVbqr9cxkgiGYzLw/un063ciWzcFuOOuedQ5Io4nRpxEWpqPN99azutvrePV11pRo1YiSfEiGBQTH3Z4960VJCRbXHB+Q9Um27ZtgsEw5509i1A4h2+/vwCvpQ2+wjiqKjCE6/p4853lPPfMKkaNak2jRqlghJQ40f4Mo2M7TJ62iYH3LOfSy6ux8OdtPPdyaxJ8XhYu2sF1V/9Mh3bpNG/h57LLhOEfBV0KqOiKid3TIhIRUXzNPaoWo304ZKjU1O5WwlnGmT7Yt8uzDhk6l6++DJBaqZjvxnfF6y8HQ+dgP1jF51WMQBlHYHeAcH+PFG5pWxFBKOMQ/k/evmpniDaP5RC0TJLDAX4bUZfEQwEQtF/vKFb8zvwgPbpO4rmXWnL88VKfa+G4DtOnZzPonvmM/64rqcleJaZjlhph8a6VFS21dX/qdyrDFMZ1vJxzwQTanprBli3FrFweYOwXnfEqPkeEsO2ha5eJPPxQY04+pTaWI8KWcEqrKVhGhC5dffTtdzzVqklPbgEVu+pZ97a6GpAo8gCvvLGU/G2FfPxJNnff35Qzu9XGEycJAIOZs3Zw/8CfmDChKx6vGY1kSDWAONsOvy0N88YrP/H4E6eAYeHaDi+9vJjX397CO++eQNPGoloYW7/RyglHN/24rvcMCgtdPvygLQZhDNOjQMb+XFLmWFJic8vNP/DbskIs28ObH7bgyPqVsF2LEf+ZzQ8z8xk9ugMpiaLyFdNAiEYxYtoIUaAk7FoBDKKLoDQOFAt3d+6GRHckjbM/T/fX3yMA4amnl/DuO1tJqlTE5G9Pw6MiCPs3fn/9E1Z8Q8UI7N8I7A4QBvdI4eYKgLB/A/c/fteqnWHaPLadoAlJkQBLRtQjsRx0sDJHEKI8TUzHZPIPmxkyYB4Tp/fA748xL12KSyK0bzuBJ586gTZtqqqpktIP5b0bwptXMlOK3Lclu5i4RJO0pHjdQOgPL01GvOyKKfj8CZhOhFAgwG13N+OE46piuBEirsUpJ4/juQOpWKQAACAASURBVGePocXJ1ZXqlLAVTusxnpbHpfDwIydHS0tirX8FIOxqVrTn1+q3FN7ItJlbmDptswq9H9OiMu1aVdfVga7BrJ9zuO+OhXz+TXs8hqUqDDwezWwVsFYQsOna/lu+n9KF+Hgf73+4gqefWEvPSypz+50n4Nmrh3d0oFTa5rzzp3Jmj1pcf/0RZbe7SlhDohUm48evJcHr0LFbA0XOVNEAFa7YE6Tp949Btd0h226EVPXjP4Jzh0dqYfc5fPfttTzxzFriEyNMndgen79Cavl//Mz8R76+7KwSXBrdu5khZyZxU5uKCMI/ciIP8UOv3BGm3WPZhE0vcU4Jyx+qR/yh0EHQfq6jwu9Dhv5MSrLFnXc338OIiYHs3+8nqlULMeg+bZiXLCtk+W8FnNo+nYxK8bh2mKBrcPE54+l8Wia39j8RQ5Hd/v/rppumsXCRh1atDBo2TGbxop08/9ypCEF9/uId9L5mFl991YnManGYrqgHGpzRYyqndanM7Xc0VWmHUg+4NJ///3+nqCdu3VHC1ZfN5Ok32vDa0wt47LFTlNcvYkN9+vzA2vXSLatA9xI0oE5Ni/79j6BjxzqUhE1O6zidYY825uc5Oxj9wSa6nVGZB4a1xCsP/UcRATeMg5dLLxzPo4+3on59Uegq66UFiuyIq6sJlMcfVmJJikB5mHj6ZX2rstw/ZvQaRjy6HstnM3NKO/xx5dgdZfnCinsrRuAvGIEYQGg8cAuDz0zkplMrAMJfMMz/uo9cvj1Mxye2EhLxfKeEZQ/VI6EcR2D5IgiiHuWG6NTxWx578lRanZi+p9FxYOTL05n/o8Frb7Zh2fIcel/1E3FxPlxPPl98dSZJXotvpqzivnvW8+wLR3Bqq6r7bKhz261zmTK9mOt6Z3LiiVUYfN88xk/oplIIz4xcyoRx2Xz9TSdtdx1JTJic3nUS113fgB49auD3Wfj9uuhUKR+6Uvmggud7LRCpYtWfIdUFX3+9nscfXUrPS6txc79jlQCQY5usXFfIVT1nccsd1fFKBYVhUatWZVq2qoZQC6Smovc1E1m0MII/0ebii2qoNIfiZRhK/HivsLeunJBnyskuJr1KAmY5SlMUYUClACT0r6M1pdLNChgJ76Icq+UftI1kzu6/fw1YNj9ObY8/USs/VFwVI/BPGoHdAcLQsxK54ZQKgPBPmr+/61mXbQ/T4Ykcwq5BnFPM8hENSDgUKQZtNx02byjknHNn8PZ7bTj6qJQ9AYLkgJ//maw1Do/890Ru7jebBnXTuOzKupx3+mxOaGXz4vOdGTT4ZyZOyOLHuaep+oN96fbfffdPfDuxmFtuSOfyK4+iXfuxPDD8RLp3q88lF03jlLap3Hbrsdo4RkxEaqjtKd9h2CEsIw7XihCfWMDFPetw9dUtiPNHc+t7z6Ky07YCEa7tYpsRwiEvfl8YCyEKSjMkJUzM9pwg6eleLIl+SH5eyi2F4CjlnU68kjfemQeJiRAnPTfEm5c0hDRKUlULe3+59AyTigHRbfBgSm+Dsl7RrIDOIuz2H9HKg71JmWX9+H/C/TN/yKb/Lb8RMVxmTG5PYqoQZSuuihH4Z43AngAhgRtOqdBB+GfN4N/ztL9tC9HhyXxlk/x2ESseaUBcOTykMkcQVA2DY7Pglzyu7T2PYQ805uwzpFueoZoWCaFOpIS7dhtHz57VuOqa5rRv8yWjxnSkRo143n5zBS++sIVPPj2J2wf8RFqqj1dfb6nD3/to7HP/ffP4anwe/fvU5ZprGvDCC4sZ8/FKhj/RmjtvnMur77Tk2GbpWgPbdVVZ36knTeKJkU2pVTWJUEg6ahl4/Q716qfiiVYQ/PEUxgyrpu4rp1wZ2L3u3q2p0h6xCJWW16WZextq4QCofg1/OGEx8t+BiEvt/Ua7cwvk78qxUv6edV7ub/3112yuvPJXHMPDW68fz/HNKxToyj2YZfxFXRck8TNdoaMrYvR61nog5VuCumuM3jvS+vaQxYSUwyB6Ll6U26Fahx+aPSSuRAkgKYahZ1UABL0CRHBOZItj6dPoXCh+lOaVqc6uapZUd6RdYn4inhelzJdxWR/Wt+vWAFLir6vQFmUH6DxyJ4Zt4TGLWPtwXbz7SXLf/UXLARC0/O/K1bn07DmPjEphPvuiE3HxAg48SrFuZ26Arh1n8/EXLdi4Jo/+t68gPcVl5IvNyMysxOndfqBDpzQmTcrh+htrcWPvxriGFVOs/H8n4rH/LubDDzfz4ENHcmb3GmzfGeG80ycQDsdxca/q9B9wtOqBEJUxIGKYdGg9lrfebUfjRpWiUXY5Vg7N5j6sV9S//OGWL9/OJZf8jIOfe++pzCU9paNjxXUoRiDW/k2AcCnF1TWiXekcItIbpBzmvbS6SJ38MfXUv34vqwZg8n2OiW0aSk9/X9HOgzXOuwBCFsPOjuf61hURBCG8C1laRO+E+yVRWX2mx7RYYphAAwlNzd6FS6WDYpSxfrCm6TD4nGhX3igQn59VTNfn8rBsLwn+QpYPq3OoAILwDxyKSlzO6PYtmdUz6dje5IY+0shI9xqY8O16Hhj6G5OmdGH65LUMfngToUCYJx5tSIdODeh54SRWrrNUq8v3PmxO0yNTsA1pPvznQeBPv1zCI0PW8crbx3Hc0dWUwd++vYTVq3Zy/IlV8QmfQIkfSahf/BeT35Zm0bSJlBOKJ699jr/+SDkM1sv/+CNkZZdwxulTiLgJ3NQ7gZtukShVxXVIRkAU1CTqps5r3RXVVpwXB1OihI5JeTJnjuNiGzaWa6kUoEeV1v71sxor3pHUoU4sivDZoUlYxQDCEYOyGHpWBUCQ9bu9sIQtBRGqJCdTKXHXEpCqODn1tXBelGemogqSbBagIHysA4tiHZL9U64vier5iN0zXGZuCHHOSzuxXC+1kvKZPai+lgQo41W+CEJURHja5M3cddd87h18NMccnUSD+ums31jCFRdPpk/fOlx2WVNWLM3l8l7zyahi8vm49nhcg/mLs+h3wyJatkzmyWdbY5nS0cra514PRhwmfr2W7mfVw1QcAQEDuiRRhR4dYetHCYByeMRUHJXYkgCEiAp9gtT+V1z/5hEIhuDU1l8TJoXuHRJ59IkTKgDCIZpw5eFFu6FKOFel1OyIUi4Vu6o5OmUvO5XKJ9FgcR2ReHcRjTTdg+WvvsThMNkWtFm4vpC2R6TiOwTARN6qAiD8fm7zAmGe/GYVYxdb5BYaJJgW9arGc2RmmOPqVaJWmkWNSi5pCX6qJHuE8qW0eCxX2tsLdii7bN9fvcIO+PNVlCtKvzNcRv9cRP9Pi/E4Ji1rB/i0T+3SdtJl+a5yAARNsJOnsW2HgQN/YsrkLVx4YT0yq/l589WVNGiayhsvtcMwhXDnZ8aMNTRqXIXqmUlKoVDywsUBSPDZii9nqpy8GPc/3+y6LabkALWB1x2yonkXxdaP6f+JYmKUsik3RQV+FEcg2mqzLINUce8/bwTEiW1z6jcUBxOpVyPEp1923ifH5Z/3ln/nE0c5Mpqco9N6EjVQVs1mTa7N5KUFjP81n5XboG1jLxe1TufkmiaWKbn8sh/SjhPhk6XFvPRVFp/d3pBE775ijmUZnxjnJ9r8vJS2I6euSLd7mL+pgCte2c6UgfWpEifvG23Q47qEXINwxCXBJwhIvNhyuGt/8LilAGFgFkP/B1IMethjiak915Xutyb6NLbiEURch7E/b2P0vBDrd9rkFFsU26LzIjxwB5/tkuQt5NhGibSoDi2Pqk5mnEFKnEu81yLB78Ej9mePqLJmksVy+trJjHUE0pwaXR0m9qqcZJqyLMv9vVc9krbLQsz+z5ebGPmjR9nBC44t5tlL6qo+QWW9ygEQlEqQfhCnBIN4Jk/ZwH8e+YVAMVzbuzG9rmmIzyy7h1DWh6+4v2IE/mgElP/qupx39lQ2bLTwenOZNfusfUaoKkZz/0ZAOQjq7I5JhEd7hNiww4G+r29g8jo/pmGS6BZiGbYq6w2GU+jfxea2rrWjkuT79336LpctRRHaDV9FnpnGB1fE0+molAOOHyhNF3XgW9gqr+1g2I4CO5LSKDBNkl1xOOQ8c1iRU0C9zBRVXaTSlbbDwm0Brn9xPdlhD3d2TaJvu3QsJQF/MKIbDsUYHDFIkxT/7RyEGECQWZFL8wVMbCOiokUuISx8UW6BAAFpTidGEdVgbu7aQr5bsIOv5uWRZ6erKrJiQ9ZJCMeVGrQwXicomr+qVD/OClIp3kuj2pU5tlaAFnUyaF4/AS28auNXzDpJTTvYwp1xTRxVGq/XTDlsblkW/f7fqzCVpBksbCL0+SibLxYaRIjnppMKefC8WuWA5KqFdYxStL/PshtT1JEYn84xuir3IdEAQdARjAqAsL8DWnHfQR4B7cW69L91DjOnBXDNPGbPOhtfRWbpIIy01ggR8pd4dHJkyxEi5L3Xpm3j8UlhCsMezjyqiLvPrEnVRC/JlkHYdtlYZHPB42uZ+VADEqPtxvf9QDG1U4MPf86l/8dhPDg8fZGXi05IP2ATrDnuEn4WixBRh37EcMgqcLn8hfVkhXykmGHuOzeJ7s0qqb8Xo6H8TANW5AY446ksmlazuKZLZe58P4df7qlNQsLBSn/8bwEEiT45IkuvwIGeGwXERHvHMrS5UVY5ui4MU5NenZBSDfS6UaVeoDAUIRA0yAvBz2sL+WntDiYt8ZBTIo3opGrOQ0TS1KbABUl7SapbAIGt+hYkWy5V0gL06ZRCj6MziLNtQh4Tn+viGFpuv+w++b5XfLnuKB0rg7Dh0umR1SwtSFSl9CPO9XPtSdJioOxPWw6AEI0gqHIKK1o+EtGTFgu7VITxyzXHFb90cEZAAQTHZeiDM/n6c0H+hUyb0oWUlAqEcDBGWB3NAg7sIDYW20IOfd/JZtpaH8dVyeORS2pxXNV4PBIOFjaichikTwsM+2oZg08/Ap+0nt2v88pRvyeAZNDYzYz61YtTYvNxvzROrrl/zcv+9J2V6JtDQLTRxVt1LfKDEXo+u4XFeR76neLh3BaJ5OQGWbOukMu61MKnyp2lNwmc/VoWi9eWMO6O2lRL8dB8yCp+erABlX0HK/2xCyAMOyuB3v/6KgZdeWA6NthhwoaXGSt28M3iAMfUd9ieG0fQ8bBhh3TvNajsc2jfxE+XI6QXkM51rS0IM+yzHXQ6yqTXSZnRqhPpPCwdbWHddhuvFSEQdskvNikIhskLuMxdkcuibIulm8IEVCmtgTciAMKkRmqAK9smcOPJqSg6vSU6NlERuoOxqQ70MxQHQdakS7FhcOyg5eyw0vDaLm9fk8BpjRPKRawtB0AQTCcEQZ3zF08tSgWI5velHXD8fm7+Ax2Vcv7+QUkd7e+H7JZP278TsZwvVfFrsRHQ7brh6Wfm8+5bRbhWkInfnkJ6RkLFIB3oCET3u/LhHIdfsgPc8eEOVu4w6NfOS/8umXjFeYgSwZT3J7Y32vws4tqKKKaExf5wP+zKQutctOT3TbYUhOn3wVaWbvORX2yz4IEqZKoGadoolGqQRL27GHVZgvyxQH9UJF4FYqWmQn5ebLu8+0MWo+bCqq0BpLyidmUfy3Y6NEkuZsLdDYlzBWSKIbH5dsFazm/ZCI8ZZsHWCGc+U8D5xzk8cVFV1mwL0u2FrSy6v6ZSij04/qVLMXBktIphT4Dw/59Bu//Nrn+P+ePRo3t3KZZSzoWelj/95FLtF72Y9rw3dt7tF/qLrsbdvtyV9I6FIQ3nMHj3x628/WMJqYmwZIOfsBPBshwqxVmkxnkockx27NzJd3fVUfP2zaJ8hozdzqlHpfDNvEJ+HlxLpRCE5ybA9vmpO3huXA4zhjakSoKI2unAvFyK1u66SAJi045ilmWF+H5liE9/KqTYTQY3xDUnOgw9rwZ+iYCVNiE80E11EH4/FtVwHbKLXU54cCNF3mTi7BCf3JjCKXXiNEAoy7QoykeZUwy/XxJ7vt7+Gs6DMCjl+AiV0YpECJsRFX6RkhjTLI/ssA61xlDrH+Yb1Q0qJhbdSAKs9JElaK90aaomVjHiiw6fSTZUMcHLOqPlGJN/46+IV/jxJ5sYMWIVhlvCuG/aU61afEWR6wFOtlrSyus2+CmrkBvf2E5xxGT4eQmcf1xlZbAl7bCrJj229vUX6wq0XebbEIMQ9fzUn5JrFgl08SOVjoLBqJ/yGDQ6hxKrEqYZwbUTmf9ACpk+3Qpenkcy1LbrMnNlIZ8t2MG2nQYBB46sanF52wyapftZWxhh0Ogs5qyxOfP4eO7qns5TE7fywU8GXlyOrmETsk1+y/Iq7/SNK026H1lZARr1Fq5BViDM6xOWM+jMo+j9/lq+WJ7EG5fG06ZxPAM+yMb0OLzWqzqYvgNOf6hRdKHEgEb3beHBM+O59uRdOghyZtiuVgMoLHGo5LOwLSnmk5y9jItEbxwMxZeQ8ySsCOKq6NT2ELKkVFTOIlGCinW3lXs1M0PGf5deQGzOoqJDioipKwLUvEbr77UZjikP7Mdii+bOYwRXeWbhqyzKDvHE+Fy+XRFWKrs10mwuaZlIx8bxNK4ez4K1Ozi+Xjozl+cwZsZWHrjsSN6als03vwQZcnYaxzZM4eQhq5h0Zw3qV45Xhn/BljDnP7+RIHH8cG8G1ZN9TFxayKw1EexImNOaxXNqvTgsj5D75Dl056HcEAz+LIuPF/jwOAF6t7IYdHY1VQtXLin8/RiWst6iZ8rBdmBNToA2T+XgGPF43UIm3Fqdo6r6NQfh0ACEsj7+4XS/ixOJsGpjEe+/sYS7B7YkoUxtrqIiG4qoKRRYSbX8UelkdEMpQBC95GAVrQgRXXGlcVJU3EIkmhVsj96rNqZ8rszm/+dpHU5jevg9i8iBz5y5g/59l2EaBXwyti316icefg/6D3si5XG5DuvzbM59ZrNi74/sVZmuDbzYpl+Rv0przf/k3XTxQ1B5i8JID0u9kyNHmPbWXSOEx/VFe6rYbAm4dPzvNlISHey8EqYMa0xl0yBkRrBsUzV+GzlhA6/PcenV3EeLxj5S/B4mLili5rISxvSrR8cHV5Ge4afNkX4+mBXEVNVUYepUdnj7xjrUTTYJGgatH9zE5lA8FzbewbNXSrTAVSJPEamkt+HjBfm0b5ZK1/9sIScQ4bOb0xnx2RZ8CX7euroOcWIgJbVSxsN47+H6Y4CQUtqoXgEq2+H1H7bz46rtvHLVkRhCxjP8FBYF2RaO8PaUrZzevJpK08gpFQgZbCs2KCrOozjgYkT0GHoNL8mJCdSuYpKR4FAzwUNail81lZPyQFuAn9IWcBVJT8ZCKlFMBc1EaTaWUtntpffn/VXEIAoyRL7ecJi0NJ8b3sslPtGgUTz0vagKD47eRpuaQSKmSZzp4DUt7j+nPiEMVm0LMnT0RqpV8vJYrzrEEyI/7OP4Bzfxza2VOCIzjjV5Nte/tJlre6Ryz6ggj56bxFc/5zJ/Y4TKCS4+w0+rWnk83PNI/JaFq85kAWgWRFwinhB3f7SN938VQxtk7I1JtK5daV+Fd4dwd2ugLUBo0ZZiuj2Xh+N68VLCtDurKJBUARD2ZzpcCEZszug6kbwCD6+/cTTHHqdbUu/7EuarbFspsQngEbqSCttoecs9rxiQkCMvqAo/QmGLRb/mM2vWMtp3aMxRTVJV4yYFFgTsC+pXnoqlGNQqPCu50YqrzCMgEYQ5c7fT58YVuGYRH75/Ek2apKr5Kw9Zp8wP8G/9Bdem0DE4dcRacoIWo3tn0LquF8fwSl8sQpaBP8qm/n+HQLC1E0H6i27Kdxg4dgOzV7pcflIqg86qTJxE0Ay9JyRvLF5cxDVoev9aXCuJdF8eswbWx6MamckNNp8tKeDeDwqZPKwWmZZLRIwIkB+Eto9s4KNba3HaYxv5ZUgNqvg9PDU1l0cmONROKeC7e+uTFnbAq/u3HD0si7ywQyV/kF/ur0fWzgAlYZsmKgJlsW5HIe/O38hH0+MoDjv89lADVWIm5DWfq8vsZC9LrvpArr0BwvCzErhK5cDFyQkTtB01F/eMzZferdTPKGHVFovJSyOUSPt5xyJoJGCZJUqaWko15RyyHJOw5eBx/Yp2gScIinAexnAkciDxhhAeq5iWdeO5uHkqHZsmk+hxkaaoqtxQIhKq7l5k7TWj0DUjGI4w++UvNKN+nyhJgJchSoch9SzZxSat/ptL08r5jOpfHysYpvsza2lY3cuAHjXJTNaVAx7HYGtxiAc+3siarCKevq4BLWsm4HWkGgVCts2JIzYy4oJ0MpPhppe3cE2HeG7tXIu7PljC18sNqqV5GHlFLY5K96togRTfimMmp7BH3kMRbRzCjquqbgKOSbuRW9i2xcdt3Sxu6yQA4WBUqhzIKon9rq3lpV2bGWtCXPjqTmzTQ5wdVNGS2imSYqiIIOxzpCUENnHyZj58ezkFQYMrL2vAWWfpXhL7vhwc2RA23DvoO0Y81knLVyqdhb17J+wKszpOGMf2cd1142nePINLr2zCd+M28tOsdTz2bEe8+FSKQfdokAPGIWLb6pE8pkQa9ufZ9v30/zt36OjNrwvzuPrqediGxTtvNueYY1K0V6BR2EEqQ/vfGVV5Uzn2H/5sI6/McXj16nS6N5SDx1IGSKCweJn7EqIRg7I94NDv3VVMXReHzw4rdrgT8TP8LIverdNwJMpm+LXHinRmhcaDNhBx47nh1DDDelTDsQxt7Aybc57Lok4avHBZTUxpdKYOboNPFubzysStjLisHuc/s5S1jxyDY0R4/4ci7vkqj8/7pNOiRgKGFVSaLZI66fHcGhZsSsHy2iweUoVeL66nW/M0+rZJ0t6yDRc9PZclRZmUhFyWDa+FV6TiNTIgbIHvIGRadwcIDQdt4eGzE7imVYrifYkDUWyLqqDNjR/n4TVDHFdH+tc6xPn8ZCbFkVollXteX89r19emeppJqBjyihw25xfw2uRiCiM22wvj1Dlz6tFQK6GYTTkGc5aHKQpbhAwpCkzAsiL4iRDniVA9OUjX4/xU90dI8PlpWL8KjapaxDkyXx58UQnk/QIHahtKdELKB8MEDB8XjlzHb1nFTB/YiCpxHgxPRDXAW1tk8+gXa5i/JECxaZFiGHRrlcQN7atSLc6DV8Zeqhyi/Rhknd49ag2jF5qq6mXoOelceVI8EQVaIhSF/CSbhlL0jFguXkmxKM2cqL6BCH5KusvxghOh0OPh/nc38tESC58TYdRNKZxUNxnPIVLU3PcpI8DGg+najFsa5Jp38olYBonhMHMHZ1AtwS8lhvv+mL3uKCcHoczfc8h+ISpzskvDQuU8Ja9p4Dqm8gTOPO0bXnq9HQ8/vIgep1Wn5yX19wsg6IJQh4ULtnLT9fOYPrs7HoXK9jQ2SrtdPFVhX0uEwHF4+aXFhCMWffo3QYp4wraH7u2+4Z0xp1K7ZmKUm6BZ1HI49uo5lTPOrMtlVzbQ6o9q4e42jNItUsCENnkKfcfWqg7fShZRh8o0wDhckO6hWQoSQVi1qoiLe87EcRIYPqwBZ55VKwrEdCj7f21MyjXyUZ0xVdjnOmQVOxz/0GpOaxjHK9fUwWdKHCDWlVQTBvW1a7HGeAsRUwy6zU+bI9z0zia2Ffnp3cHkqhbpXP32Fn7LTqRToyLevbaO5uRIxwbXxpbSQxya3r8J0+cyc1BN0nxaKdXjOGwtMWg5fAMvXpFIj6ZpSs/AcT18unA7D32Sw9NXVaNBlUTaP7qBhYNrkurz8PjU7TwzMcTi4TVIVSTKaEd0w+Dhb7fy0mQDX1whY/rV4MKns/j4hjSa10xS3rWMRVZxmMueX82inWmMuSGOtvWSFa9Ii7nHejWU/UD+3Ry5mpXeaNBmHj03gUtbpqrvN50QEdPH0u0hBryzmSU7k7HtYiVDLU9om0GSTC8lEQ/tGkPXY2yq+v10aFZFrDE3PreMxkdVIt6fzFPjikmycxl9Vx2OqexTJ8f2ojA7SyJkFcLEX7KZ/JvDlgJJCvlxPB7F95D9owSJCJOebJCeYFMlGTo183NBy0xSTJlBUb/U0VXVyfZ3x5DqsIFhuxSaJscMWc+A7on0PTkd03QJGxEUlVDUM+X0NSU9GztzddpDMVWi8xJrCSZ/yueu2RagUoJJ5USvLsuN3q/6hAiR1pUEV8xhMFQqRb+ZfI+kvlDVDte9vo5p6+OV89a/g8nALlWxxDEsD32tXBvxz39JixeKjbD5+Ndi+r1fQsR0iXdKWPhAHdJEZ7kCIOiqCgmVKTlltYi1NrXiABrw8y/bGdDvRyZMOo3+fedzfPN0+tzceP98dEWOjzBt+iYeHLacCRM7qaYzqs1zNJwY43xK3XdRkU1SionlOPTs+R2vvdGZ5CSbwnwvva6awY6tO/n2+zNI9Esf6KiCmPoOk+mzN9K4XhrVqsVFq0NkG2gVL8VdcKTYShZ5BNsxWbY0h82bionYLilpJs2a1iY1WefQlMd8EM6qv2Bd/3Uf6Tis31jIeef+gO0m0fu6BG6+5QTV4EX35KgACPs7+CpZpsiELj9vDnPmS9uZensmTdLkEPaq8Ou+LpFINh2DGavzufGDXJJ8Ls9ckkHLOj5enbOTYZ/ZOB4vp9YqYvSNdfFGGyQpEOzqkHnnJ7eQ4g/zTd+6UUMszAUvCzcXcNaz2+jdNoHc4gglRTar8iESCDHwvOq0bZQIIYcThq/npd7VqJ/h4dIXN7F5p8HNbWxaNEwgOd6PX+XbI2wLerj8tZ0EfSlU9tucmF7Ia9eLlr1u+iNABzvEhgKDfm9sZHNBhId6ptPliBQVSVAlkHuBpH2Nz//7965DsWHScNBGnrogmZ7HJykS34ItQYZ8nsvS9YWEPGlccKzBVadI9Zi8g1Kn4NV5RYyd5XD2MRbFoUI2F8CG7SbH1k5gXU6Adg0cIlYqv6zZyef94H2zPAAAIABJREFUGpBoSShdnzOixqdsn+MQVgeISW4AVm8rZtNOW0VOhBC3MjvAqu0hFq6JUBD0EDLFwCaSYBbS5iiLOzpm0KyGV+lMGKq6ZU8BPYEHClK6BpNXF3L1q3l83jeN42vGqTNVGW8F3uQ+TbYsRzl/KQCMQViJTMW8yKgepk7pRiug5HkcN8y6vAiXvpHNuh3inbvc1tFHv06Z+C1bRSYlvns4XLu6OTqMWlDAbR+FFJ8j3iliyUMNSLDKl1r990UQhI0jE62KAMStVjIo6t9DEZere02h55VNOOf0atxy81zSq/p48IET92/RRQHCmDEbeP/9dYz9rK1ewrtFEGIAYd68HO4e8D3jJpzPhvXFvPb6YkY8fDILftvJPXf+wo7tIR4Y1pQeZ9SIVjUI4SfGW4CIygVKHlM2hxySsfCZ3jHyv/yCCB9/uJpRo9ayI1cjf1niEmaqVaOIUZ+cjd9fgmH875X3ScfRrK1FnNVjOhFSuPhCg3vvba2Z8SoV978VUSnvIaZ3k0QPdAhz7IIC7vp4G/MH1qVSvHiEcrzuKVa793fpwyvMpgKXHs9mk54IL19djUbJPgVwOzy+jmJvEuu3WpzZOMCL11bHH7YIe8S703yEj+ZsY+DYABkpFrMHVldfIXl32RsFIZcWD6+iac1k+nf0g2OT5LM4tm4l/IrNH8E2PLzz03Zenl6CE7KwLJeRl1RlZzAfv2uT4rOok5lGarxH8Qqaj1iPGzRoUR9G9qpBZoKKVyiPWQyDpDHkChge5q/LY/HqYs5qnka1VB+Oant/cBKDYseKDGn3vJ7neqZxzrEJLMkJc97Tm+h1cjK9Tknh8Ql5HJFpckenDK0GqaKlDgM+Xc2UpV7G9K1Nw1ThCjjMW1/IkxNyKA6bPH9lbeauLuLl6TsZ17eebqaliAW6MgRDgvPR6gZ1lurzRYyrdk60YJTEKMWZ3pofZtnmfKavjDB2fgk7iuVMs7ivRwI3nFpJV4PsZd11/ECE9ixemLmJh75xmHl7BvUz4kprWzSJMdqASU7LsiIEjUB0ByFJ5arPkkqFaCQiJhcuZ4Nrqy7AW/Ntvl9RzDPjd7K2OJkkt4jhFyRz2QmV1WqXM1bWw+GSYYhVMch8vD23gLvHBpRjnOgUsOyRRkq7ozzcq38dQAiEgni8Bh5D8K/ORcc876lTs3nkoUV88e1p+F2XG2/+geQUk/8+1nqfAEHnAyWQ4/DSyyv5flIWo0a1U42mdlUb6DpauWzJEYZdkjwWn365mFDAx0UX1+fa3lPZtsOm77VH0ePs6ppzIKVbKn+koI2KgDi2NmRbsoPMnZVLIFhC9+51SE2R9/GxaXOA226ezdr1Iv3pUV6FeMepyTZdO2dw653HkqQcCvFoDkJCtLwW5u/6PddlZ36Ibh0nEXbT6NDB5IknWyhPRghlWsfj73q4f9D3xgRYpJjONfl2SQm3vruF2Q/UI82nSWr7Dl26CAfwrOdWsiEvgS9vyaBBJR9hVR1gcuywxeTalXAiXoadbnNtu+pYUp5HmBA+xszbxuuTdnBR28o8+FWECbdU4phqfqWAZxohbMfLCzO28di4AH26JnL9yamkJphIqxdb8tKya50gXy8p5vWpQfKKXd64KYP6iT4cw4yWMcbkcx0+XVBEnzEhXr3EomuzVFXzLsp5smAkGih8I3E6hBkhpdK6HE4r+IkKn46j62TDgV7yyXmOQdNB63j9ygzaNvZx6YsbCLoW3/Svrg79Wz7KpmFGHHd0zlB8DSFJ/LC2WJ1pw77I5oFzMjilbjJhLLwRm69/20Kl1ER+WVNCtcqJvD6pgC9vr6n4HNI/R8CU6oaoek1E22pHjakuYtSXnFf6HXXJt4ylVJTYhCg2fTzx5Tbe/DlCJBjmwxvTaFsnHsPaKybvOmpsJcL7xS9buHGMzZMXJnL60ckke/W9hhHCsiVSK/Og56usl4JzSvkzZhWEfGiQV2KTHwyRH4DsPJc5K3MVwFmxzSTsegh5HKqYLqNvSuPYqokIE1cBCyGdmxKnPjwcDX3C63TcqzMLGDyuRL1psgCERxuqaFB5IOu/CiCIbR56/yT639WG9GQJ2wu29arwUiAc5IqLp9H17ExuuPY4XLeY667/lUopEZ588tRozvOPJjuapoiGWQUgjHx2BZMnbWPsp22jACEqxxKVu4yhXSnVMh0fQ4b/xMktq9G9Ry0VyZCSICWyEcunqTSI9JsXsBDTn3JZuGgrfW6cQ806yRQWgV2cy9cTziESsbmm13SWrxWCj6M2ZaUUiwsuSeHqa47TDWNiGgoadfzP5RiUOl7IoN3J4wiTRv36JXz8cQd1bKumJodNcLCsR90hvt9xFOFPA2QRRgpzwciN/Di4LplxApil6n4XO7o0hBt7zOjyWx+wafXwFkZdnU7rBn4sJaSkuTVNhq1iu1OJZAqZfE816ib6iFglBEJeBo/ZzE/rS3i/bwMyE320fXglSckW4/rXJV59rewnD2ED7h6zgTHzTHwUc+lJPi5qW51Un6TcDUoiEZZtKOGkIxO5Z1S28iAfubgK1RNFclfeQ+/9nKDNBSM3KDLy5DurKxKaJWmDqKer3jfaTlgnq6VUWbeWlx+HTd0fQNmwsnq6fzC1cnZtKoGTH1zHu70rqyjoVe8U8tWtKbRI9+CYcfQdtYn6GYkM6JyKYZYQsv3c9PoSXry+Gbe9v4WTGyRw+UmJbC2xSfZ7+HDqBi5rX5cnv11NQnI6kxbkMu7WWtGOuhIhkEeXudFVGLvx9vQTRudUAW2pqYj+twA6cXRkLgTghQ2TB8du4825Yc5tBs/2qvn7joKuo6oYxCOXXrtt/ruB9Tst/G6AOJ9DSpKfTke4nNWyOrWTDOI9eq3J+HpNgzivB6GjSMAjGHFV9UJEKiMc6RUkkVj9T8h2WJEV4Jf1O/hti5dF64IUBWXqJEoivC9DaUiEHIl5ePHZNnH+ME0zIjx/XW1qJhh4JIpm+krLPi3bxrWsqLaHHhgZiuIwBG1dkSaVNtIYStJwahftJjKlh01zHeTmA0l67g4Qnvl+J49MkqaGBqluPktHNFTnXjlwVXmFkg7xIbW/X+fChx8uZ8HiXB4Z3jwqFiITE8fzLyxl4sQcPv60tSK/mK7FJZfOoHZNg/88LgBBhk9qemWSBW8JsVHIV9FJVRtG5/aef3Y1n32xjgkTOmFaQhaUttNyfzTUqk5JCbvpvOutt03nqqub0Lx5Zqmt1k691n4vXfFaABDDKKS4JJHuXcbT55b6XHJxE76cuJ5HBi5mwtTOfPLpGkaOXIftSE0uHNEowpvvtichTlIp0WVQntWwv+P8D7hPtRx2DVq1+IIQKaQkFDNt2mm4wlwWGVU5xMq1Zf4BL/8XPuLOgM1xQ9cxpn9tTqpmqHC67qKqc7SyD2THabkkvQhlTT/53SrenBzkl4eaqOZNEr6WcK4Y1qOHrCDHqczALi792mfgdSLM3Qa9nlvFacf7efyCWvhdHyEzxNLsCOc/tYknrkjjnKYZe4R4xcwvLYDeI5exPj+VkAV+iX1TQq3KHr64vSbJonBou4xbksuAj7K54DiL4Rc1xOfayqM85dG1ZBUm8OrVyfRolEBQPkMB+r9wUP+fj1Znge0wd2uEC5/ayui+SSzeDEO/LGTFw7WIU5rXNreOzqJeWjy3dk0jZLg89PlabulUkyrJXj5fkMv3i3J58rJ6Kk3kGBJsdnjsk8Vc3eMY7ntnBWuyc3i7//HUT3M0GIoIqtqXjoPMs3Ch/FEdGIkiCGCJYNiW/tOxGDlzO49949K+XoD3bqypGh/92VVkuzw1MZvXpxYTFuAlZ6rtUxUrhilR0rACfLLuBBQISPA6AXUui36GMsuukCclviN9NSS6amHZGsTJv6vElYr8ih2Q/5LiVgfLdElxQpxxYhy9WmfQuGocCWJYJX8fPVclhaOIjaraTFIxFiWWw9Y8eGt6Np/8XECwBEJqvQjfQsBBmHZHmvTpVJVja8SpRl/SUkmNhDiF8vmqoYQ8h4x72ZmPGsALUHJ5+LvtPD9VABekkcfSEY3L3TfiXxVBkPFeszaXKy6ZTZ26Nq+/2404j8W0uVkM7D+XRx49njbt62DI4nUNzrtgKscclcwDD7XU/oMcXAouy+zK7tOepiI9KsUxCQCYvPraMt54ZT0z53RV7UJ1LbY+GHV+WzMiVUMP16bvLbO44ZZGHN2smmYJqJxXFKGrH0hcIlp5IAvGMBgyZBZzZoX5fFwrfvs1lz59FtH9rESG3NeCW2/5hemzAupAbty4mLff7YriOeoPLyVMHvoj7fD5RlVJgkv7Nt9SEIjHSz6z55ylGNwVAKH88yRL9/NftzLsyzym3lGHJK9XaXnEymgcV0MDAWKleVHXpd8Hm6mcFOa+c+rgV56pTlnc9ckm3vw1iaRwPnUrGVSK85BbUqhCuS9f04AmaR4sU5cyepSnblESCSnSlSkN4fZIAjtqG0Ysk5ziIDtLDCXktGTDTr6ak81zVzch1fLgeiKKu1BYEmHcb8U88dlaTj46jQfOq8nwj9ZTJT2egd2rqbI5qbpAyUL/PZe0Nv5uZSG93yhg7C3JLNjg8OC4EpY9VEMBBDHLb83KYUlOhOFnVeejWVvITPXQvUkGwsMRRcWcIpuM5DgsRSMQI+ShMOSyZGuQ6sleqqZ4lMcvhLuIR0eL9tmLV+UUlCytMpRSy6AAogp0h9hc5OHe9zczZZO0wY7n/KNKeOFyiSD8OdJyIyVK6EmMeUnQJuA6FIZsVu+AOSu2qpSAJGQ3F/hZsKqEgpCJ44iCgXjIETyGg99n4o0zlffu2hqm+vwGNStZ1K8cIDPOokH1ytTI9Kl15JdyQL9BomWSnCARMe3YSepIwINh6FSUOrejmhzSf+TL2Vv5eH4RWwu85KiIvktKfDxdjiwkzucjwQ2yLhDPvGUhdoYiKpqclGjSoJLNLV3S6HxUamkRhMyTJ2LhWJrbUdYVF4sTy7k3dNxWXpkhIMihslHAbw81rAAIse0ruf/nn/mV90dn8fgTR5O1oYjnX1zLad2qc8/dzVR4WZVIuwZnnDGNLp2rMmBAE3VgifEXBBqOSO2tF78/pGpwBTgEwhYvPLuAHTlhisNxTJ+yjR/mtFNtrWV7KISpQte645hEKRxTOt7Z9O83h6uva8gJzdP05ynwICWQEfJybX6atZmt2Qa16pq0b1dHbbxLL52KL97g7TfaEQzazJm7jVPaVFMhuptv+pEf54Xw2vDVhFZUy5SKDc001gIlf04a+3uOukP7rXrDhOnRfQZbtknzlyJmzDiduIRoR3cV8vsb3MJDOwx/ybcFnQiDx+6gMFDMQxfXppJX1r9ga68iI6piP6UPojPWEq15ZUYOs1YW8fJVddVRvjNkM2xsFp8tjKNh6k5ev74OG3aEKAq61Erzcnz1eBVck2oG1bxH9X8RnC6eo4YeKgK0m8GRn6p6IkcDeqllev77HUpN8Y0bapHpcbA9EumIzbv8aZMXhDE/5zJ65k4eujSTFrUSlMG05X3U9xxI8PdApkCHFEfN38qAMUG+ujmVeRtcHhxXzNLhNYhX/oxNbtDh+rdWq5TlJS3S6HFCFeJsF8fSZaLKRKozL4ThSqmejF4xESMOjyr8EmMivm4oWvklZ96fmygFv7W9jJZ1moRcl8JQmKcnbefdmWFCrpeIG0dlXy4f9KnGCZlx+xR+E1dJETwVGIxd0j0x+u+ityD8D+VUSSrBpDBoK8njBJ+hKk20IY+Rx8XgitcfK2aMFn1H9RL0K+jfUWwVAQICCkspkuLru+Q7LuPmb2fykiDLcorZku3D8gZpdUQS7RsnkRcs5OeVQQJBhzaNK3F75zTNmYieQ5tzXeZtCfP1/O18vyhIwE2mZmqINo293Ni+Mo0zTBURkfSGdvTKdjbFxko+Y8iXWbz6o6SrKwDCHrtPgVonzLq1xZx/0Tx8FGH5TS7rVYvrrmtGnE9zEhTJyLFo02YSN9/ckMt71VUoeNWqAh4avoBfFxUpRbHzL6jC3YNasGjeVvr1/5VC6eXieFTeX3D2+x+04MgjUtSB9fbbS5k1fTtVqlncO6gFyYkyQbol7v33z6dNmyqc1r22OpA2by5m/PiNzPwhh8ULC0hN85JRxceK5SUcd0wcLzzfltvvmsMPM4vo2i2Vjh2rk5Lk4LEcWraqxUej1/L4f1fTuL7Bh6M6q5CVPho1kaqsi+tAjrDD9Xf1hglx+WULWbQ0X+UPx49vQ3pmgvZ0VAS1bJvwcH3XQ/tcItITIoyfj2bLYZfDuS3T6NosgziPcGn0qGpCL+wMRPht3VYWZTl8MV9a8hp4IgY7SzxkFUO3o+Hpi2qQ6BEQp3uQaD9UhHe0KqGk6qRngK1AiI034sGxdP57j3NUnfbSejqIEfHz6eKd/PebHXzatzZV44VMqIICOgWiiIUSvJMcuLaLP6wrZPjH2bx1Yz1qJgopTpN8/77mtPoZ3/pxC4O+CDOhfzo/r7e5//MCFg6rSWWPpMqEAxFRug+SIJVojteR6g5h5El+XJO0FVcj+qcOboexHI8CYZqRr1Od0eyo3hkxqxPNj+/+IzFE24tslmXns3CzzcK1IdbtjLA021J5fJkYkxLa1vdze9c0WtTxaz2DfURjdKhcnl/JbqmJ0aZdEyHlObXZjdENo/X/6tzTRl5XK5S+jW4oWJp5jf6L+oH+ucabsbMgrCIvUgb60/oAcza4LMsq5Ne1HprX89C6cRJHVIVGGSYNqibz0+ocVbpbN9lPo+pJSsa639s5vHZjBu3rJUbTmPqZlBQyjuoUOWNlPuN/CzHx1xKKQxHOPS6Rvl1TqZfiw1SlsjFGw/6dUto1Ff0PGPTZFt6YIxVCNlWsIhYNr18RQYgdktJhrrgoQscu3/P9xC4kJngUGC7NhipkGqGgxKRjm++5576GXHheHTZml3DpBZM5+8w6tGuXzmfjspg4PodBQxrx+IjltOmQwT33HM/XY9fw5Eub8Tguw4bXpmq1ZO6/dy6166Vw4w3H0L/PXC66ojoD+h2jiYcYfDBqOcEig8ZHJjN69DIWLS7mmGPSadO6Mm3a1yKzqtT8wqwftnNb/0WM+aQF8Qkmd909lyWLwuowa9bUw5AHjqdevWQVhVi+bCu1alUmMVlIVnqx/y2J0kNrncrwbbqh0O0DfmDqFBvLCPDxpydRt05SqXdUAQ/KMJy73xql5Ug4U9T8vp6/lV9WF1G7qkGCESLeZ5EQ7yO3wEdmqs1xjaqQHq+D1iuyS1iZE2HCwkJOqm9wYetqxEelaWLzoe1SLO8bLUvVbq++og2ffnd0uhARYR3bImi6nPXcWs45Ppk+p6Yocpmo5elSoV0zr7J9RrHqQCvuw3/GZeP3udzeuYqKAmpbVPaccDlHdq9f06nK12auYdjXHiYPqELAdjnv2c00qOrlxnaVaZxpUK9KogqVi5FTPRN2873lA1XkJXY+GAZhkcSOyD+OIu/ZtoAx3XhI0jlKalmkhUNhcorDrM2REL/Dxq2FFIUjlNiwarPFhlxpzewhIjLbyoA7eA2X+ukWnRpFuLFbDarEacHp8p9RerGVBn2iI7T73t0Nx+z3sMdSkLFsrzTvW5kdZFl2mF/XBdlakkfQ9rMzz6JuVYO6GSl0aWjRuIYYfZu12wNMWLiNRjUSaX9kKh7Dp8560eM8YfBajqgPn15ZHxXmFRSmQIouo1TcNjOA6/jJt13FXXh7TojCIoP7z0zlohOT0XQyrX7nUWtwX9USGihJ+uXuT7J4b54G1xlmYQVA2H1VqPCjAy1afcX0aT1ITPh9qExKesdPXMl9A1fxxJPH065tJv95eBYZNXxcfc0xeBwfDz68kC8/3U71uha2E+HrTzuqLXD+RZPZlu0lEHBJS4OiHJtWpybw+FMnYVkmPU6fSqUqhXzwbg/l1W/dHubFV35jwtfZNGoUz1XX1qNj+7qK6CKkG6VvgIQyXZatyOfSS37h1gEZXNnrSB0mdUx1UBmGxv3qeBNWuYq5yc/ln7/rANvv/fg33KgBwoPDf+SzTyOYRjEfjT6Rxg3SFVmjAk4d+JSUNoK1bcUAF1MgZ5mw0b2qjY4chuLJaDVy4YtrlVHJFoNX+i2ostPdpWoO4LmUrr+oK5psKHHo+OBqpg6uS40EaZ4kqQmt+Lj7UaujCPL/YcW6n7Y8l3d+KOTNq0V1U9oO/x5UHMATlvFXtfDbyzPWMfwrgx8H1aRaMny6qIDhn+9ga4mPuIiMbxDTq88HyZ1rHpK+5JSICEdAEf7EwzTwSM5HqS2K6JPOeRu2BgaxIkAxanIuSQ8MidaINy8lnbEum44KPYTIjA9QxQ8tGsXTpVkirRomkxR9hN1tWnlq8Ms4WGW6PaaKKwZ7ybYwQz7NYe22Enp3TuD0Y6tTLcGjVDqlutKruBsOYdclFDb4euEOcvKLub5zLbwS7ZDojSU03ZCqmOj+TD65JXnMuqsxHiEgmmE19oGIl+z8CCt22irS06K6jyS/VH5YFJUY3D52HRN+TeKYujt44fJG1E/S1W4iY64E+f702gUQ7vx4C+/P14JdFQBhj0GL+h6OQbvOn/Hqi6fRpIk0WNkDQigRkUf+s4QxYzby3rsnctRRlRn55Gz633aq6iI39rPNPPrQCurXM+navQovv7yesZ9357VXpvPlOJf77mrIO++tZsvmCC1bxfPc86cqZq1tOtx3z1zyd4QY+XJbvvluDY8MWkrzVklYnggjn+mgg3iGSIhKrjRGLNTNnoqKIlx/1XiGPNqeIxsmRaNeWnJWJw5LqSi7bf8KP/iP9402RI8/+SPvvxdS9fLvvtecZk0ytBe5u0dapqOl4ubfjUBpLlqU8rT8tybiRssjo8Xzwk1UVB1JH4hRFuOkTNXBArgCQHTu+bN5W7jvyxC/DKmLFWsG5ErPk72fXhs/AfOGbfPZ0iK+XVjCCz1rRMnMko//G+Gk6/DCtI2M+CbCgmH1qRQn54arPNWlWREe+jqLhetKCLpJSjpYKRNGiZsxAKdGV0URNE8pImJB0aNEtTUW8CD2RxlCDUpi5dZew8ZvhEiyLKpWiqd6JaiZGqRhpsGZJ9VGqskleOFVJY4SJZKUjTZo+/J5/9adZAcImz7e+mE7b87cyG1nHMHA97cwbWA9MpINvBJZEWVJKZcUxUQ3wsLt8NQny3igVwNqJydoMXu9jDXp3BYyLfzn2008PdNDz6NtzmueyvaSAFNXFvDtvAAlho8kw6TQ9HBZsyCPXtRAlcrLzARdD+NW5NL3HZs4dwdfDKhB03Qp0/fuR1tpDRBkFu4cvYkPFmgwrAGCyPXvX6pi7zn511UxiEiI8AvufWAWjar76N3nhL0yzSIR6nLu2ZPZmFXMlInd8fpNxepNSXB55MF5fD2+EMcp5MMP2tO4cTw39/mJX34NEQ649OpVhf63NqW4OExxsUtahg+fJ6zKfQSJhyMhIrbJ0PtmM3VKkP8+dRSnts6k50WTGf1pex2+k91X2ipab1pJe8gWFkauyrSJYImS4Yh2eFQ/jal/7T6Nf+Ph9bfu8H1/uRyCI5+by5tvFKsc7EsvN+OkFlUUokdaCVdgq30P4j7uKPVVpe9IqSEN41FhVYkOiIelIwiqFlvFimOeaqzqRu+Bg3PJ91mM+mkTT37vMv2eWvgdV3EfJDf/Rzlw0YiUzoeiWHjpC6vp3SaJs47R68RwRBnx4D1dmd/RdfjP+Cyem1rC0ofrk2iIxK8Xw5E6d4keuERsCIbCqmpKYbWYI7ErkBCts9dRBHkhWwyfRBdEqEjl+UXvQefiY+lY8Zr9HkjyePHJz2XfRDlO6rxydHMgx5LwunCgIriuT+kaeGMiSofpHhOZ6M9+yeLj2SFevK46KRY8PjmLSQssvuhfDVMiAtG0QL5jcOeba2jTNJ4LT6pGoihlmlpxUe6JVa9FpBWUY7AtaHPTK6tZuNlDiUTJcKmd5NDr1ARFIM3wuRS4FuFQkLrJUhoqxERXld+KrsbUNSVc90ou/niLz/pn0DjFhyFlp/sZQRgwaiMfLpTzzaCykV9RxbCnuZQ6XA8ffb6Ct19azdffnvY75a1QyKZb1+/xxDl8O64bV/SazrqNERKTXHK2+vF7c3n+1VYcd3Sy6hm/LSfCO2/OpXXrIznp5Ay8EnNSB12sWZImoIhXJKUxz724jHdf28CgYQ04+8yGKj3QufM3TJ50VrQqS3Nb9z52SnOv8le7hzZLMcDeYCDmuu1r8ZT5WPoX/IIQUU1efX0+Lz5frLzAx5+qT6d24hlWAISDOsGluvYCfHd9sop2R52rUjCmReiiPUWi96vGTDHgUP4n05LO4gAbfDx/Cw98UcK8ofX1IS7sdClXFuMa3TYCaMKGi9+RBIPJDe9vJBGHJ3vVUV0JY939dArk77F08k53jc1hzOw8VjzaSFUxyW7XND39/6UBnCgNcV8juCduiOb49ybORxU0tfnTBMcYz0lVrESHIxojimnDRYMtsfPtwOd0X+9S3r8XJ/HCF9dwZ49MWteLVw5bkWvTbvgauh2fxINnVVUpmDemZfH57B08fFkdTqiZqAiEpSMRPY5VDCpaJSEjJSTLiGuxOS+oRJuS4rxUSvQoaXBFGhWZ5902ioLLijSrpauDOIydvZMBX4RpXdVldL9M/PsstY2lGOC2jzYw6lddApxGIUsebrDPBMX/N47/qgiCXvi6HGrjthAX9viOb77rRlqaJgHGru07bU7vMpXTzkzmgaEn8NBDP/Pl2J2Y3hCdOlenT/8jqVFNyChyqIgWvJRs6bIeQZZ/dEljD6lwWLxsB1ddOZcmTTy89U5nTLeEYDiBs8/4jgkTu1YUGJR3R5fp92Sz6c6YH3y0hMcfzVVy1o88Wo/u3WrffJpdAAAgAElEQVRrQxHNR5fpYytuPrxHQLUOFpJehMU5Yc58fBtfDkinabqFYcXq9CWyESPtSVgYVu4M0P/DHOqmuTzWswapft058HC4xOPv/d42Ji3OZ8UjjZCmfBXXgY9AmAjdn1rCF7cdQ4I0glK9m1xmry3mune3kpHq4pbA8U0SGdo9nVSfX2ve7Gv8o+hLqzFrknppPaiqzNDRs1itjoroRKPKqqGgkux2KMFH95GrWb3Vw6yBtagjrTH/9IqlGOC2D9YzerGsYQEIRSwZIVUM+370P/r4fxVAkBdULFGp8g3bDL57IvcN7kjl9F0AQUzHU08s4P33cnnkv03o0knUDU3y8m0SkixFKpGwviLpKBaplAB5lb65Lo/644mSjnMSuhs+fAGff1HAWx805egjK6tIw9QZa3n3zXW89kaHCoBw4Ht7Pz4h2pjFNflq/AaGDlqrAj5DBtfn3HNrRvOs+1KK24+vqbjl8BqBUoAQUjX41726nvyIxchLMqmdJsBA925w8CqfeFF2gE/mFPPxD1u5rmsl+rSrRoJHGPz7sgKH6rUl5QiXv7mFH1YGWDGigRYwOlwe71ANw1/wPdIb5MLnl/FUzzrUqRKvFBXDpolXWpoXRpi6rICjasRxbFWtG6GMupSN/umzCDrQfDJFPo+WSKiSTdUHQpdtStpNF8iIpdFQYUteiPV5QVZmwdx1RfywxCYr4HJ0FYuvb6uCX0TBygAQxiwWxUyTShSydEQDVdpdHqLovw4gqOCbIt6EcSWcuBdrORhyaNv6KyJuPGNGn0SDhim7SiBFZcz1a7GhGGtHFwrvRWr7fd5f1kLYdji96xSSkn2M/fxklYCwXS//1955wFdRbWv8PzPnnHQIkBBa6E1RQREsFBEBBeyK5drFCj4VxY4gqCBYsCB2bNeODctFxAJKU1GKBZAaUkglkHbazLzf2nMCoWiIQU3CzPu9K8ope9beZ/a31/rW940e/T3JDXXuGNPd/W3/DT/2PT8yIuKimXy7uIgbR6xUPfTXXduc4Ve2jcxBhba5f2RM7pf83RFwlBecUp88oDeX+Lnhv7kszwwwuFsUvdonI92WKzbkMm9dmJyCEEe1ieHu81rQ0tDQPRHpczkE1JBNWJ4rZ07fyLJMWH1fS8ccqIaM7e+ez7/z88UMb+rXWfyeo/PAmQ2o55NODg9hTxjDlq4yyRyXk21ls68go/8nA1OYQG350gLqFGWckpBGQanJdn+I/CLIDmgsXpXP2lyTnzaECYVlXnUMn01yrEFK/TADD4nh8t6N1ZxXnjnaewahnlXEmgdESfGvlcnqHkCI+MjbZgh0h7UckW5R07ppYxFnnvmdyg58s6A/0dESuEgLidr3g8ot0VkdojwmtZwKIkR/QKayLJv1ads558zvObJHAs9MPwr0EnLyvZx28hc8+nhXjurZ9F+rZf6dP7aa99nl7HiTFb+FuPSCJVi2zrlnxXL7XUJajdRG3QdtzZu6ao7IUvqJqqFSkb6kVp5eZPLiN1nMX+kw7A9u4+XkLjEMOjhJ9bR7hOgnq0KZDEmWsOYsDDl5Dn1sPavzDFbdKwDBBbbVXCLq7ZbK+Brc83E2H/+Sz/Ce9TmpZxOidAuP8AzkYBnhBTiZAIc14LArIjTO8nKCylw7WUtTcQxsSoM6363OZXNeGUs3aPySFaaUaDy6TbRIfYuJk8cmOc6gV0cvbZNtjjusOSnRjhS803ki3T46muF0puzkwUQOqOXnVDUOpSGqVB9veDNdcRBkX4szt7NmclulmPlX1nXdAwi7rx51+JeTgaR3NJ59dgXTn97G4EHRTJpyxA5jmeouOnEP3Jzp5/TTvqV1mxjeeLMPCxdkcudtK+new+DRqSfg+QP+QnW/233/3nIIjkvaps2lnHbGd+qHNuhEmDSxL7pi1ksJyY3cgRSBcnJe7Zl22XBg4NQMsrYGWD6hHb7aM/gavbTUdirujJZOXhhmfbeFbzdYrFi7lRJRmFSNgeJbEQEHto1XWItqP4m0hkbmwvGfcM7olqiAKMlkjbhYL13b+WifFKZzSn2O6pBInGEhLtby91Fi2qSAyO6T6pDglX5IhM6oOirMsBLtCmmaMhczxYSqQteKFNdFIvz6mZm8/aN0MZj4zBCrJzYnRv9rwLfOAwTFv1VPBpk6OGXwPLbkwvRnu3L04SKaE/E7r+ZyFqQvJiWXX7SElb+FMXQD2y7k8EPimTqtD/GxRkQSuZpf5L59nyLgkBR1MrJKOfnUxWiWl969DB57/Fh0IZ66Tgz7FEf3Rf9mBETVQOOEh9LIKzZVR4YLEPbXfDjW1EoDIrK1q2LADsnGCDDY0TIqLaI7ZKR2/Fk5lkumQcpaIv4t7bTK10Jq/rLjRNx61bDLzaycskPETFsJclW8lMep4tIpj0mlbbAx32TpxlzCYYvGcVEcdVAScR5h0wiB3mlBkXHI/dz5YSavLBGyroCgACvvSSUx+q8pIdR5gKCSzYqh6gCEQf1mUVoaw6w5fWmcGK1SPfulhUn1GtlsySnhvQ/SyMsuolevVPr0aYLPZyoTEEd01L3+iQg4IjEamdllDB26QHFLOrX18Po7RyvU/tcqcv/EyN3vcCOwMwLy7O83ZSOFfo2lY1sqzVX3qn4EFOVc7Qsi7iWbvGPLtcN8SpH6/qRzIEJc3GMkFcsO6nQvujflyh+qTWGn7tYORdfykkXkzZZFkW7w3g/ZzP05yPJMg+yyELopTpMOoIn1QNeWGhccEcXQbuIKKaMPY+ke7p+dz+PfavjCJppeytI7W5IS/8cE+z+LZp0HCE5KSNraDIQnsGlTMekZ2+nVq5lK84glZkQtvFqrTnUk26KELXKzTu3I0RQJO6Yzwmp1c9rVinFV3iwAQX52mTl+BRBs00fDhACfzztBKevtn7xRVUbkvtaNQNUjIM+V4yZvpDiks2RMC4ek6F7Vj0DEwMnRHnD0M5SmQ0STwzlA7BDtcM7/FbBZ+R8dYqxcO3kJSv5e/bdyVwxHqcJpcHTKBjv+rwLfXRR+Bbh8vbaI+z/aypo8Ly3qhwkbPgrz/Vx3UgPqxxik5QeZv6aI37doBLQYDknazogT6nPqYckKJExfUML4/wWIEjUoo5hFt7RQDql/5YBa9wHCXpbSH+oOVWPZ7dHX8Hd8STXGd6C9VfUg2xq5eQGGDl5A0PLi1YpZ9N0QPMJB2IX0c6BFx73f2hEBJ2UsAKHM1ll8eyoe95Cxf6ZuN56fI4RQ/exMlXkuEU0OVVawTF5fVsyEj4opDni4caCPq3o34MRHNtOxXpAXr26FbjgiSyFLY+GGIqbPLWbBRvVfGDc0jiuOacTLK7cz5o0gYUNcUIPMG51Eu4ZRTptlFW/xgAQI+2eFuZ9SkyNQDhDytwYZMmgBAdPAq5Xx6Zz+JDfSsZUEqnu5EajJEXAAQt8HNhLSPSy4tbkLEGrydP2FsQmgUIRJy6SgzOL859dQYiZiWkGeu6g5v2b5uX7mNv57eRL9WvjweJ0yiBTMhYRtGmFWbdU477F88sKlzB7RhA15Jte8VaxSHoZlMefGhhySIh19Vc8+uQDhL0yq+5aaHwF1QLChsMjPSQMW4g8ayvL5lde70+WgRMfXoubfhjvCAzoCDqmtz6SNWL4o5t/UVEktu1cdi0CkNF2mmTzyyTYeXxAkyhIdnyABLZ4oNJ64MJqTOicQpebfsecW3Qal2KjBks3FnPp0Nsc0jWP4oHpc81IBlrRr2jrvXFOPXqk+tErlmveMqwsQ6thac2/HiYBTV9TYVhJgUL9vCZhiiBJg+tNdOKqnqGe6AMFdKzU9Ai5AqOkztD/Gp9zGNYu120xOmpjBzOsb0zrRw/aQxnFTMjm7q48Hz0oiZHjwCpnScrqwxCNElBulyVJMsm56O5u3lplc0UdjxjeOQqM4Qb5yRRwD20Xt0S2xL2N3AcK+RMl9TS2MgKOmV1waYFD/rykLRinhk3vv7cjQIU0jbs9VT7nVwkC4Q661EXAAQt9JG7B80cy7OQXhsbtX3YqAZVkETZ3Bj6xhcNcEbjwxWUk+f7DKz4hXi5g/uhEdGop0skj/RzzTZfNXHRICFkT4SWNLSYAekwrp0sTPyiwdzY4mrGtMPy+esw6V51/V144LEOrWWnPvZkcEnIer3x/mhH6zKQ3GqVzcTTc25eKLOir07XQKu5cbgZoagXKA4JQYXIBQU+epOuOyEdnnpVllXPRcLt/e3YpGHlNpG9w7O5+5K4LMua050btv7tKeqYSZdNVGKVoJJWGdQyZs4LDmPpalSVYhnpBhcsfxNqNOSP5LHiMuQKjO3LrvrcERcPjE4TD06/sxJf4EhbSvvLwpI67tqJRK3LbTGjx97tBUoUxa4vpO2ojpjeKbm5u4JMU6uC5Cls09/0tnS57GsxenOHdoe7ng5Y0YejSvXpyyy+a+k9gYwtQ9irRYHDK5651cPvqlhMnnJHHHmwX4qUfYsLm0WwmTz26l2rurerkAoaoRc19fOyIQcVKzbIP+fWexvbg+pq5x2pD6TBh/qErPuQChdkzlgTtKR0nxuEkbKcNQbY6Vm/YcuNGqrXcetKHXA6uZfFYyx3eIxxQ5LNvirvc2Ui8umjsGpaAZyp1hx2WZ0hgpZdQwy/Lg6hfTyC+NYUS/GG7sl0Tn8RsoDicolYbBHf28eMlf64BxAUJtXVXuuP88AkpJ0VRSpacOmUvmlihMTaf3MTbTpvVSzmlVx9Nu0N0I/JMRiACEyRspLLP5aVwbFyD8k+H/J77LhrAV5oh7N/PghY0Z1DoG2xD3SE0ZP2ki5KcchXdKGMimXxYSUmOI0f9NZ/WWWJK9pbx8fVMObqQTsqM46bF1/JJXX5mVHZIY4vPRKXh3k3Tel9tzAcK+RMl9TS2LQLlciUNUvPrq71n6fRmmBt0O0Xnh5T4YAiDEss293AjU1AhEjOb6PpxJVoHFr/e1wvcX0sQ19fbccTkRMC2TN37cxgMf5/Hxje1Jqu/YO3ttYRYIz0A0f4VnAJ8sy+W1b0uVu2dhUKNlvRKmXNyKbilRJOhCXHQ6HEa8lc57K73qORenh1h1r2Sfqs65cgGCu0rraATKRdE1Jk9ZwdtvblUAoVljk48+PV7REzUXINTRua87t2US4rTHs/k5I8Tqya1UT3yV5fDqTjjq3J2oDgTLImxaTPs2l8c+L6F5fR9J8R7ivSLdr1EWNsjfHiaryMZLEf0OS+CMrkl0SPGQmujDMB2zYnmmCUAQ3srETzJ4fFEUHtvCa5bx832tqf8X6lMuQKhzS869IScCjka6bem8/OqPPDG1mLDyYvezYMkgDFFWdQGCu1hqeATEIfbalwv4368BfhqfSlJ01U+BNfwWD+jhOS4NjmaLeAVtLChhZZZFfrFJmakjDs+xURYJsTodkzU6pSQQLe2NynnaeXd5sVR5RdgCEAze+mEb//dBUGUQvKafebel0L5hVJVj7QKEKofMfUOtiIAtPcPiwW0w+4sN3HXrZkLixW5ZfP51bxom+BzI7V5uBGpwBGyCTJydw/R5Fl+OakSnxnE1eLTu0P5KBMRYTkjTKAEkkUgst5CST3O2f2llVEceZSYVRieii6DySY6plONIKYZPBt9vDjDk6SI8to3PDjLruni6t6hf5eG5AKHKIXPfUCsiIABBqZx72JDu5+xTl0T81II8/3JXDu/SCM1w7bdrxVweqIMUfIvFc99u5r5PbN4f2YAeqfXcEkMdXA9OQdRxlVQdVs6/7lJN2qsRVLmmvPrnTk7ViuwAA6cWY+tBPDa8cWUcx7VNqPLacQFCHVxs7i1JBASNWyqDEELj2B5fYtke5EQ2+eE2DOzXBk3ydO7lRqCmRkBtFhZv/7CFUTND/Hd4Q/q3T3ApCDV1vmrQuNZvDXLc5AwCerx6Fk47N45hXeOr3LnlAoQaNKnuUPZnBCIAwfIgmmPH9fqCsoBXZRVGXteS4Ze1/kva5PtzhO5nuRGoLAK2bbIix+akx7KZcnosF/ZsUOWHfGXf4f593YtAZlGQIyemE9Aa4MPPfSfHcPmxiVVeOy5AqHtrw70jlZ6Tul6EhgCcOOAr8reK2IjNqafW4557DkPDLTG4i6VmR8C2QxTbXtqNyWTsSXGM7Fu/yg/5mn2H7uj+jggU+k26jN9EmZ6Az7S5vr+POwa5AOHviLX7mbUxApH6nTxgLdPDaad8SVqO+KN76d0nliceO1yJJbmXG4GaGgHH5M/Gr9kcNHYLJx9i8ei5LZwWXVv4NcYe5QaH2W6iibhOOZSQUoUednrhJOGsiG5i9OOoiar3KM6O43Aq4jruL6Omrop9G1fYtml/51qK9UQ172d3KWX6BalOk+wfrJ29fbKbQdi3eLuvqnURsNQPw9bE+MTgvGHzWLXJxjANOnYJ88arx6G5AKHWzeqBNOCICzB+3eSYB7bQtpHJ21ekKn0vh8RW/ocKUZG9Xv2V9NDrzkavHP8M5KegwIACBQ6pzRZWHDYeTUTFTGxNzH8i4MLVEau1y03gXt9HMliT68XSNXqn+nn36hZ/vnb2crcuQKi1S8Ad+B9HQMmPgG04PcYaXHvlQhYuNTFsk6ap8NEHx6teYvdyI1CjIyBOfZrFcQ+nU1RssHRsU7xKDMejtDzUVXEjV5kA22l5U52+AgY0pQGS7/fzw8YwC9cWsmV7gJKAhwSvRcsGMQw+NJ5DU+ORTnkhRup/QZa3RsfxABuc5JfGzNrMS4s8hDSDJtEBfry7OT5N5LuNva8dFyAcYKvkgL5deVCWIwCLJ6et4vkZOaqf2IgKs3BBfzyGixAO6CVSG25eCd/onPLUZpanwfL7WtDQsLA1R35XU6ZkuyAEJS+uEgVWkKChk19i8/LiQp6aU0S0z6Jxgxh6pHro1syPrWuszvcy59cQvVvA/WelEOXzYuiuV0ltWB5/NEZ5+r373RZGvi+vMPDaZSy7N5VGRhh07x+snT0/zc0g1OZV4I69kghE6rTA53PXc8uta9HtaJVW/eR/R9MsperKYm7Ia3YEHOrJTi8OVXdXafRK8uWqpXDPA/m/ebdOi7tTIrvolTS+WKPz1pUx9G5dX2ECS3M4AzvvVzEIIncfptTy8OJXGTww149BFOcfbXPnKS2J1yTDoCvhHclC6ELotYJc8/YmmsfFcffJyeiGdPwoab7KY1flIJXPz+7pjyp/kPuGP4iAtHhnlWh0nZinQKTHDjLz6niOaSVtj/Kb2DcA6AIEd4kdEBHYXmzRr+8XmJoXn2Vx75RUThrYISLJ7Orb141FYCvNC6/U0tGVuY30rZSLz+hSi9/jZCzKGKajS2d71GtrkgS3QyDUuHdONk99ZfHYudGc3bUBmhZSREQpJYiwjiHGPppH7ecBNNbnFnP5jCLSC7dzfvd4bhzSmGbRXmxDlPoVRbHClDvEhYCmMezRtdx+SjLHtqunShOizOeArP2xQixs9VliQuRRngG7mhjvj+9wP6M8AgUhm27js/BbUo4yeeo/Pk4/RObVq8pPQjWpbFpdgOCupwMiAsLqHTJwAVsKTHy2xSXDm/B/13V0mODqqliSOCBCUgdv0iZMEI8ZBXpIpdrlpG3iUWRVj2lENsgKm6M8KCUSuqler85VNcgxsRwgvL1sCze+ZTOyt8HtJzfAI+kOS0i4TolBrMwNLEK2xhOfbeLJ+dG0Ti5h0jnNOLypF68QdiPsRgcg7NwaFE/H0rB0P4s3hnl7SQ6PnNNKEdpE11/KcuqqbDepbEUpC3YBNE4XhWaFQUBNDYp3ZbdQm/6+yLToPiGDbaEo1fZ9Sz+Nm05MQrc0bF3gWeVt3i5AqE0z7o71L0fAskwuvWQxK34Jq7Rq9yN1nn22t3NKUino/fEE/MvDc9+4PyJgQ1gL4TE95IZsPvgul9O6NyApygCPhWZ7Izr3FTdHKUM5xl6EBUgE0PXo6m+G++N+Khj5rMzxc+KjeQzpEs1TFyTijZy9w5pAXBPLtikOhBn9fi6zV4a5qGcstw1Oop6hXqDuUbINRqTVseKmLPu2434eImQanP3077w2shNxhFUZw2mr3J3rUPUbdGBBWAEx05YOC1txHdzr74lAyDLpcX86WWXR6jl3QXedB89MUv4Mlr6jx+VPv9wFCH/P3LifWsMiYFs24yes4P1Z+ehWFO3a+nnnnRNAkLQCCJWj6Rp2S+5wdo+APPiEvS/p1Pk5TJhtcfGRMOm0JuCRvn/JD+y60SloaDmbZ5llsmJTMUe3TawxOgBSLBFAWwp0vmszBzWHT65NxaOyBrbSMpB8cU6Jzc3vZLB4Ldw91Mt5RzXBi61eIytb7t3WI77ASuu/HCQ5bY5mRBcBy+TWD9O5uFcyhySLoZls485mXm3UZNuENA2vGebzDWXkF4Y458iGNSbWde0HJW2rx07azIaiaMU56dc2zOvDm0hOyCm76U4R6c8uFyDUtVXh3s9eIyBcrzmfb+T2O9erinPzRn4+mj0AQ5rDdfmZuCeZ2r501BYWFk6fzfR5+Uz71qR9YikfjGyjKt6SksfYtZSk0uumqG7qFIZtzp+2llmj2imDG12zCWoGvv2wN/7l2CpFUJOwqdH74Sy2lXlYMTYZr3AsNPCaNttCJsNfzuS3LRbTL2zMce0cx8dy8qIqtQh50dkVlN+fbkoB2sKU9S8aCegETPAafr78rZQj2sST5POgqU4fh9RY2S/EtuSTwdAjbZh7uA0pdxTC4o3yQAYFJUFW3dcGXxWDoyoVqn3ZATdqmxMAVJ4JEiBY2WCr+J218eUSpzOf3MiCTMkgeDisaRn/uy4VX6TUI4ejyiSxXIBQG2feHXOVIyAlhrKgTt9eswkTRbzXZt6i41UtVx3CVF3UzSJUObA16A0O698irGl8/EMmTy0NU5Crs+DOpvjUidvY+wxbIhigU4rF0AfX8fgFzTi4mQ/DFpGZyh6hf3MAIgDBND2c9exGvkvX+O7ulrSIFuc/nTLT4pIX1vPj5ihevzaJHk0NNL3ilisbqNPZYNkGhqxz4V1oNiVhjU0FIWbM28R7P0mZAqI0gz6HeLh+QFM6NfKAxyBGWadXRie0KQ1bxGhhNF1eK2TE3U+nFrals3prkBOmpCPYY+2ktlUECI7qo8qLaFI2kvjLd0X0HyL8Chfwy3zDhE+3MP1bmW8PKVFl/DCuBdFSOlIQs/LLBQiVx8h9RR2IgGXJY9Jk+MXfs/zXMgzLwydf9CalQSTdKlK0Lqe6ds90xH9DTqhp28Nc+Ew2GQUWv05qQbwCDsYfzLDIEBsENTj/qc30aOXjpsHJ+ITmvQ+nrL8zaLIVKjFkW+eWd7N4banF0+dHcXqXegR0g+GvZDPvtzAzLm1A/87RSkp8zwYFeb+UWIqxiVWZh4+XbWPcx3lkBRJVN4TuKcUyo4k2QwRl8zDCtIsrZdrlTejSOAqvCCdVQlL8bFk6nVo1oFViXCRjUbGUoWo5BG2dqV+n8/BnBl2blfHJ9VUDCA7QkexBENuOwrZtlQUM2yId5XH4DbqN90BPIYhVuGbx+sJMRn9kKIAQZQX4eVIL6ml+bKId8mklc+oChL/z1+1+do2JgByCJFX75BOrmfFijkpM3nZHE84b1k4a4yK98vuCqWvMLbkD2WsEQqprIWjB9W9t4pPlHj69MYmuKdHOaXMvT8UwITyWV9Xrb363gLT8Ut6+MhVDdQjIBv3vrYswYRSssUymflnAlC8srjzKYvwpTZm+MJOHPw0x9ow4LurRUNWWVWlhj4O7Y1wWMmFVYQm3vJpFoRbH5m1e7EAQbzioFPaKPRqPnNuIYEmAqXOLyS+JIkozuflEH9cc1xj9z7oNbPghvZCZ32/lgTPagGzg+Hbdf2wIYnHyY5tYX+DjrK4B7jurrfz6qnRJKUMUIoOGxYLVBeQVBkhuFEuPtg2IEz6JoaG7AIGQZrJsY5BTnt0aUd4M89HIRI5sHuO07qjl4nIQqrT43BfXzQhIuk3Ia4uWZDNy5K8KUffoGsuzL3RD0+QRteMXUzcDcMDclWSCDOU9tHhzCRc8m89D5/g4rWtTDFNkNHefZ2mNtBx2v2YxZlY+7y0Pseyupnilzw+hCXrUe01DEtsRqVrkBOtV5Eb5MtmcpbRrCs3BNJESv0o+qOevQ/ILa7riNsgnKJ8QKV+oNkvNMUjai7WCqXQUbZUvnr26kMteDdCnLUw8rQknTM3k7MPhvjNbEBMhnMl4doEz8laBw5rGsk3ZbNoSIt+O5qVvi6ine7lhUAI9OiYQ7w0y+rUcQh544pwWFIdM3lq8jfGzyxSR7bkrEhnaJkr9bhyi556gaVl6EZNn5/D6cAHdOzsgdiw9kY3GpNekTJol65zcOcClfdrumtVRypGK9cCm7WESo6JI9IVVF4VteB1ynW2xbnuYMW9u4LBWCbRsHMWGzBDLN23l8Yvb0izeh7a37ghVKnFGI58hWRkpLYr0sMzyyvQScooDJOjQrX0jonTRaRCKpnTHaIr9X1taMhU7wzYpCht0GpeJLVkiLB4/R2NYt5QIc6NyfQs3g3DAPDgP7BtV2TTLpiRoM7D/55T6o0iILuGr+YPwiGpcpDe7MkR9YEexdt29CCX1mpTO/w3QuaBHM6UY6GwQFU9NzkYhNXn5+3Gf5PHqkjI+v7ExbRvGKNajYvHbpuIwyFHc8UAQfwPBG6IhYClA4Mgbi3hRmNKgvEQnziOEORExcvQEZKMzNY2QDZty/KpzolOTWKIECKja/a4nOqcBV07MNuu2mfSZnE2TepDoCZJRbPP1ra1JjhVuhaTdHd+FPRMIQlDUVAbho5+3MWZmAZf3juGa/kkkGEJQlL+3ePzLXH5IC/PSpalKFyGs2bz/03au/yBIM8825tzcmqQ4ASARcLAbSFi2eRsTZuUxc0Q7NC0ARO0xFmkmv/cAACAASURBVL9l0XNiGr07aPRvY3FGzza78EIcKwmT+etKuPmtTcRFx/F/J9Xn9C4NMfQQ2F7W5vsZ8dImRg9twQmdRBlVeBUenlmcx6qNAR7/T/M9MwgCMJRTpRMdIaZKCj6z2OS1JUXM/LGMgnwIqMn1cHBjP0+e35hOjb3qACHmV06bbO34DZSrcIqGZqexWfhN6VywGT1AZ3T/ZLUe9kVg1AUItWO+3VFWMwLOD0bObiZ33LqcOV8WEeMJMfuLvtSPk5ORCIf8e6nkat6e+/a9REByCec8s5He7eIYNSDZUQXcY44dpUAr0jJ43/+yWZJZxrAuUVzcswm2IWRAx/VQAQkC/Lg5wOGpUUq+WM678neSgZA/a3aIj1YGeGj2FkyC3DCwGWd1a6g0Bix8GPhZnG4x9p0cfs3R8Go2nRuU8OQVrWnbUGr3u14OT1+Ah0lQ0+l6zybyQwl49CBvX1WP3qmSLnYMyQSQ7AEQIiduObm//UMJD36cxRMXNuXoDvWcNkglhOR0H5z08AaGHBHLDf2bqNOmlDVkzKdO/43vtyTy2OmxnNe9vhKVckDCrqP9YdNW7v0kn/euba9AktcWEaSd9yP3UWbaHDlxLYO7xHJOtyh6tk3aFa7ZEjWdUa9v5sTD6tO9RTQnPbiOxWM6EhNjUBYKc+HTGZx1TDznd6+P1/JgGUFF2CwIwoCH1rPozo5Eq+xPhSsCzGQNyMYoBZAvfyvhhje2UWKKLkM0lmES5wkQY/goLDPp0dLijatSidHFPluyMI60dW24nDVjEdR1ut+fQU6JEFdtzj44xBMXCljeS7pqLzfmAoTaMNvuGKsfgXItJBs+mZ3OnWPW4dPgg0+PonlSNLYhneBuF0P1A11zPkE2vUtnrCUptj5Tz0tW5YK9daqok6Wc4C2dqZ9nkO3XyC4M8+JFqYqz4LTRyT4sG4mfG97IoWOKyfX9W6MrxUYRag6hW162BEIcMyWd+aNTaRBncOGTv3DzkFSObZ2ASZiv1we5ckYppl7CsC4W44a1wesVFoz252x+KV9gcd6MLcxbb9AlsYA5ozrjVc7M5WyzPbcvGb0I5nywrJT7P8plzp1taeAFb6T8IZLNlu2jwB/mqPuyeP/6JA5NltEYmJqk1iGvxKbn/QX0bVXIq1e1VafzvYmTf7amhOe/yuHNq9pgaZZSb9wTIJh0vy+Ns7rHcPGRUXRs0mDXfdySNkgYNGUVH93WCZ8Wpusda5g/rgONPF4mzsllba6fZy5sgQ+dsOHMqMQ/ZOscMmY9K+9tR8xuJQZnjqXLNaA4KvPWF3H+i0VoZgwNoovo3cHL6MEptEo0CGk64SC8u2ANFx3XHsPQlVSxgBBVB6oVlyOfLYTUvg+msW5rjCqBHd/G5I2rUjBEhbPyCoMAI6er1L3cCNTpCChJe1OlgFevy+Xcc39RJjhPPd+FYw5v6AKEOjj5AgeufHUDphnPS5cko4lIwm6nWrlteZ2cpUWK+b8/ZBPSopixYBtfjWqlHB3UZii+B5J/sj2kbfVz/0eZPH9JK6WfIA9iKTWEdJ2pc9LQDJvR/Zpjah5+zyvj9rc2MnPkwWwqsuj5cC6xoRCTh8VxdrdE5QEhx39JresKn1ZUeZR/c9oSLSVYBLe+m8PLS8M8eLrOpUc0wPJE7ciJOO8UxsFOIx55z9ert3LzzDy+ur010bqw2UVd0VE0lO1V1CdHvrCejNJoPhzRXIkjGSpWUvO38WvQc1IWBcUBVo4XgLFTcKnisnn5++18vryQV65IjWgw7GkIVGaG6X5vDmd2t7mqT0Na1hfVyp33LHkWmY9e92/kqztaEo/O/LU59G7bmK2WRt9xq3n3xpZ0So5CU3LBMkZT4Bkr0os496k8lk9sS1wEMyl4F9FNcCywQ2zVfPS/P4PsEh+DDy7l8fObE6d5lHCQ41IRJqwUJ8X2WlLz0hnhqEXUFnigFqWtEdJsTnx0MytzotUqP6JxmI9vTMFrGUp6u7L7cQFCHXwwure0lwg4OTf1sC0LQb9enxCyEjnvvGhuueVIVWIQNXv3qjsRkBPjre/lkLG1lNeGt0a3I9r/u91i+dIIaRaf/riZpKQGXPNCHt+Pb6WKAirdXqHeLp/76S85dEiqR/vGwtR3zlgBU6fnPb/x9d2daeSVTcXCtOCsp9fx9GXtGHzvWjL0JK7rHeTOAclEef5cW8Api8knC8ERgpZF7/vWk1mawIgTTO7u3wyM3R7yqr1NSh6mAh1i3HTO4+uYNrwNzeI0SnVIEH6BLhuhpX4SP+ZYXPDoRt69vRVd6kc5JQ11urSwbOEiaAydmsbPORofXpXAkW2kNXJPvt5zC7cyf3UJr17awtEWKU9s7Ii3TZllccyEDI7urDHx9KY0jN41BrYdxm9D3wmbmTeuFdGicKbKPwY3zkwnvwxeuKSV+qVKCl1KHSHdJG1rmIufzaVVgzJeuaK9whwRdkWErB8ihIFh6ry1IofRbxv0bFfCK5ekkuARkqhAjKpKNtXw30okgzDsyTS+zYhVYKBjYjHzbm2tsin7IgDmAoQaPsfu8PZTBMp3AXmA2ho33biIefNNGjcqYvbcIWiSXXABwn4Kds34GJnyx+YX8s2v23nnmpaKWb83/8CKAOHj7zfQt1sbjhy3gfdHJNG1hVgr78pdkH8LmhYPf/gLVw7qSFKcT22Gq3NLOe/pbBbd1ZoYXdLzNoGwwcCHN3JV/wRGzwrSFD9f3tWcRl4d3aO2uT8MVvm4FETQLN74sZAb3gsLBYAjU4v5+NqWaCrtUDHrEMkg2Da/5pfyyCf55JbqPHp+I5asKubbNYWMP7sty9flc1DbhpQETc6dlsb5vRK4/rjGROmOaqKjYCAETjmD61z1SgazVutMPyeOM7vVjxA+d812TPl8K5vy/Dx5XtM9YubcpE3YhmMmZpDSEN6/unmkU6RCCMwwfh2GPJrBW9e0oFG0rgCKIPs+kzdz60kJnNY1UY0rfbvF579s56ufAyzKCNGmXoDnL29Jm3pi1iXVgCDYvp2S1EIM3ebnjGl5pJVFMW6AwYjjGyik41FApDIxqJqxrvdtFNK+4mhCXPrcZmZvEGt7nWZxAb6/s4WqlEhHTWUpBBcg7Fu03VfVgQhI65TUES3CfPBBOvdOSMNDGZ992Y8G9T2Rh20duFH3FnZE4IVFhby5qIjPRqU6J9G9PBHLCaxBzWbJ71s5pn0iQ6alcVRLL2NPbeZozu2xjwcI2j6enZvGVSe0wKMZ/G91CY9+lMns0e3RbREc8jDx4xy2+U2+3hRk89Z4njvPy5mHJKrsgpx+/yzFW55BkIqA9P5f9EomizYYlIQ8tE4oYuEdrR1d/YrzrZJkAdbkm1zxYg6HtfbSs3UsS1YVMW9dmJsHWqzK1YiNimXebyUUB6OJ9enMHZWC1xZHRyEgelRHhHM5RlZPzs/hntk2Ywd5GdkvSREbd8+q3PR2BolxUYwdmoS+N76HLZkQjdMe/p20Eh9Lx7RSPKCKNyCilqYW5NZ38+ja3MthqV4K/Rarcw0mzvLTu7NJOBji91yD7CKhUIbp2kJj6GH1GdajHolRkjeQrhFN+Ut4TKdDpci0+XJ5NoZH5/p3PLRuWobwO2cMb4bHMlQJofZQEPflB+6UGOTeb3ojm9dXCodGJ9YTYtWE5kp7Qny8KrtcgFBZhNy/rzMRUCxzSx6oYdasK+W8c39UrPM3Z/agfZv6aLWGgFRnpuRvvhGbt5YW8cTcbcy7tZk61eqKg7B7K6Hj+SydiQt+zafvwY24/9NMZq8oZd4dHR3t+t3fE6FuLd9SQl5BCccf3JhxszKQqsHdQ5qzpSjM1NmZ/F4QZuKwVIZM3oLl8/L9HY1IiRPegvTg70vXjCOVVBrW6D4hnd4dfcz9pYz60Ro/3N2caIe4sPOywE+Ikx5Yz5AecVx6dLLKcHz2eykPf5TF/0a1V13/xabGyDcyWJNtYIaKuW1oMqd3jcdje1Utfnfo8uridEbPMrjteC83DWjk7OoVwqj4Hq9spHvbeK7tLQBhL8qktk1A05j2WQYPf22x9K6mNI3f9dRu2ibfrvXz6NytLEmziNctUhI0LJ/B2lydHs10mjXSSU2wOKqNxjEHJROl2k3DCtioedLkl244stu2xY8ZpSxclsU5fVOJ8nk58v513H1GCtM+ymPJuHZEKY6BRLmqkk1/8/Kt1sc7AAEtxENfbOehudK34chTrxnfhHr72LHpAoRqTYL75toZAZvc3DJOPGmhYjE/+nQ7evdMcQFC7ZzMPxm1zTebirjtv/nMuasNcaofQa7dAEKE4r58SyE+LDo3S2TuujJGvZbJojHtqbeHuJJjjyy98cUlFu/9kM2gI5tw08wMerTwomte/rugkFO6RnPrqamkZRfR/9EiYvUilo5tR5xPdAvkfFvJU1p9h7Tw+Xh/RR7XvVnKpDPjeOqL7RSWefhubAviI8RG0fiwlU6Ajx+yA0x4M5PXRrQkxuPYmV/+chbHd7K56OhmhEIa172VxcqMMmZd14qCkMWpD2Yy+6YmtEqKFmfsSNukw66QaL2yKI3bZnm5eUAUo49vEHEC3AlwBCBc/uJaTjw0nvOPTELbCxlUdYqY8NaKfEa9FeDtK+vRq22CY0ZlaWwz4YYXN/F7rsbgrjHMWVnE7DvaEyM23jYcdPdGpl/QiJM6xzslEAXoHX0DpXGh/ixaFY4Q0uZtQaZ/kUmzejojT2yN5BQKi20Om5zBOyObcsETq1l13yGOWoMmbA1Jw9edy1mjFm8tzWXUTBNLE9Bk89G1iRyRGu0IVFWSRXABQt1ZD+6dVCECpaVheveZDVYcl17egOtHdHO9mqoQv9rxUpsVGds566lclt3XhjhL5A33HLm0H4o3x1PzN3OpnDI1m9/yAgyaupll97Qjebc8eLk2AZQp86EyvNw7cy3vrExALJ+u76czvF9LYjEJaR7yi0yOeGALXt1g+V2NSYypkMyuNM0rio0+JH3/5k8Wn49uzBNzt/DVKpMf725NvLhTWh4l2iSXadscfuevvH9bRzrWL2eyaxx8xwa+vKc9yR6Tc57axKb8IJ/c1I5m8U7J7ZEvtjB7ucVnN7fGo8rxTg5BleWA6Qtyufdjm9sGGdx4XPIeJlYKIMz4nSGHJTDsSClB7KqBIGOTYoUVslhdVMpZT+QwckAC1x0r2Qgd07IZ/NivdGrRgAeGNSXKsrnylU1cMyCFo1K9IobNmY9mss0sZc71bfF4bLxmANuIcwCBtKPafsK2QVapzV2vbWJ9Vglv3NSF1HgROxLQY5LntznmnmyeG5nCFU+ks2pyS2VgJS2qdU4GRXU62sxZXcClLweU0JcAqalnmAzr0dwFCLXjIeaO8t+IgKDrXr1m4S9L4JhesUx7vPsehK9/Y1zud+6/CMgcF5s2Xe7eyOJxbWjqtbCNXW2L5QEqhDdRDnzm201c0TsVj6aRG7A5YvwmHh6WwLAjkirU5NU2DCFdbZK/55dw3YwNdOrUiFlL/My/tQ0tGyj+f0R4y1adDH0fXENmcRTf3dGMlFgnlb2zzr/3e1bUSMskpBuc9XQ2v2z28/N9qUz9JIcXvguxbGwL4iRrrCSeLQzTYmlumBHPbWDBHQeheRzgI7mKYU+vJr0whhIzmsZxBbxyRQeax4tngZwyNcoC0H3SGt69pjWdU3SVBXFsHx2jpxFvZvPhSo0pZ0RzUY9ERxq6wrAdgLCGEw+rx7lHNo5IV+96X3I/qzYXkJpSn7Of20qMEeKtq5so7kN6SRnHTdzMbxPa4/PqSvX0kbmFGDEBbujdRBENV+eFGPZYGh6fwXWDYjn3qBQlQx20bb5bkcfslSYLNoTxasVMvaw9hzb1ECuti5JqV//Q2O4Pcvj9mfQ6zMO6tX7m3dFGlXq8ijNRx0iKqo0V1hba9J2cQVj3KYBw86Awo/tJya1SdOrqIOy/x5H7SbUqAjZcPWIB3y22iY0t4Jv5p6DvC2unVt2kO1ipQR8/ZQNX9o3hwqOFXb9rW6CyQjY1/LoQFAs4rr2caG0lMHPCxI20a+HjxUta7LIZiviyZmoszy/mpS8yuGVIKxJifBx69wa+vLMtLeuBT+knGCo1rtlhbv8wize+i2benY1okyC0R2m5rKyLwfmeMsNm0MOZxHosPrq+Bf/7tYxRr29j2fgUEtSaddLspm1xxrR13HZ6C3qnlvsmgBD/MsqCvDMvn2ZN4jmtSzQxXtkwhcBnKA0HSfH3f+B3LjuhIRcd1UgR2BTMESa8pnHqExtZkenjv1fEcHz7xD0UGxUH4aV1HHdQHBcc1WSvDPmioMncH9M4uWdrnvs6hylzhDzalPYpUazbavHwZ7lMP7epUwjSynh/eYj3vtvGa1dKB4qM0eS3fIspszL5do2uQIPXFrVAmwaxNmd3j+XkLvEcmpogdl1giZSSmDc5du7KScMO8sDHW3n+mxLGnVGPi49qgC5qjJ66lkBwuhhk4RZbNp3GZBCUpl1bY8ghIV44X0qqlbd1uyUG9xl6wEZg2rQlPD8jgAc/H3/amyZNYg/YWNTVG5fNcfT769lW7OX5C1OViNHuXgymrTP31y20SYmjQ8M4ZY+EHmDy7DxmzC/mt/s74a1w2JLtuDhoc90zy3j0isNIiDEIWjYHjVnD0W10Xr+8g5PSVvoFGss3FdAupT4/biyjb6fYiBVx5VK3SuRHwIsRpu8DWXRKMZlxSSu+3VDC8BeK+WFCYxrqGrY4Plk6K3NKuOz5HL65qy3RCGlPWOyaQgimbqBbUrd3/AxU3V4JFTj/H0RjwodpbCry8dJ/UtBFREd1/AQps30MfHATm7dqfDYqmYMaxzil6woxUZoT72aQ4PNx5ylJeOyI+qTKUDgCZV+t3sKxnZNFjYDCoMnxUzYy9NBY7j29MZlbTS55JosvbktVgEVG9f7yUl5amMeska0U50B5bSmxdJ3sbRbpRaUqxs0TYkmu73VAzQ5CqTPPYsIknyc7pbxWdB0EWKzLKaF9cqxSRpQlIXHaF8po7fmdKJcuJYYUtC0OuSeLwpBX3etBKcV8eUMrNAVQ//xyAUJlEXL/vo5GwObjjzYw5p40pUs+48XOdOuaUkfv9cC9Lduy+XB1Gfe/t5kFt3fCJ5tphe4BdfK2Qtzw7BoevvpgotRmIWdYm1/ybU55aD0/jG1Do0hZQCIpZ9EnZ6cxsGcTOiZGqdOpKAAOfmQL0XEeHj23Pm3kv9smK7P8rM8u4sxDU3B0kff9KtdB8Osm3cfn0Kt9mKf+05xlmQGGTc/ju/HNaGQYEbMinRnf5TP3p1JeuSZV+SwIOXHvjZ27jUEdNm2e/zaNp+aGWTKu3GFRNvkgfs3HoRPSMcJhlk1oRbRyh9y1VCOf+NzCAr75bRsvDm+lNmfZl3UxObK8bNhayuLfcjivV2tlxiQjmzQnl9cWBHnv/xrTvL6HYyZt4KUrmtGtaYxSeHx8Xh6bsuDxC5L2PWjuK3dGQKyvdQdY9X0oi3VbPcowLLV+MQtvax0Bqi5AcJeMG4G9RMBic6bNKUO/UQehe+9tx9CTRSLWvepKBNTZ2A6zJifMqU9tYemYFsQr8t3Os6JsYuu3+8nKK+PYtolq8xKpYfFl2OoPcOTENL65rRXNEnaq7MkDt+fYJSy8uwc+r4AJHcuyeX3Zdsa+t5VBB2k89p9U1uSFmPbRWh6/rAuGZuKpshCPkyYu1qHr3RmcfBg8cnZT1hX4FRj5YXxLEhVA0MQNmpFvrOew5jGM6Jui6u7K3XFfBMCUWmOYl77L5b73i/h1Uke8TmuA4mf8uCXESdMKOKWTzfMXSd3fKTvsrhvwzbpiJnyYxWej2jpthqLoaDkp7ulfrOP6Ae2J1gIE9Sh8pkWJrnPRs6KOWMbH17ZlVYGfq57L4tj20cTFhvn4Rz8vDG/GMa3q15Ul+c/eR8SB1LJtTpuexvcZTuaneWwJC0XMy+Ug/LPz4X5b7YpAUVmYfr0WqN7ga0e0YfhwaYVyr7oUAUsEiywv3e7+mfdv7kynRp5dUslBGy59fCVPXXMQ9b2y2ZYbOjmp6D7jf+LdUV1oJup8kStk2/S8czWLJnYg2tKxDFt1MwRsPyc/mcOvWVEkmNnoMbG8dlVTjpDSlWgL7JPuQcXoO06TJRocelcmJx+uMfWsJmRsDTDg4XR+GN+OehHejBg5Xfnqevp38HLhManqfVVZzGJ29NLCbMZ/GOD3yW0dG2skM+Lh7GmbWJLhY+qwOM4/vN5OSYiKPxYbygQ4TVjJV3ccTEND+A3iQKnx1JzNDOmeQueGXiwZry2kgLDK3AVtjdveyiBv63aevuZglfmY9XMeuVtL6XVwEw5rEF23uIP/0I/LEdkyCSuLcpuLZ6Tz+TpnDTf1lbLw7lbE7wPnyi0x/EMT5n5NzYuAPxjm+L6LKQv4GTggjilTjok8/PZBg7Tm3Y47oj0iIDVnS0kHPzA7jVVpIV65qt0OLQQpwa/ILWHF2kLOPUbavsp76W1MTRz8LD74KYdeHRqQkiBmN84lCfLb31zPTUOb0zjOMQ1yevh0QhZc+sJqBnZtyBlHNqK+R5QBNXWS1o2qVbmllCGZAFF47Dp2C707hpSL4fYy6DPpNxaP60Sc4dTWxcnw/17ZSKfUWEb1l1KZY6ikKJmVoF7H2DHEs/MzmfSpye+TWuJFXA1tCktsuk3MQAt7mTM6gYMaxamOCVEo3EWKT5Idts3na0uZ/G46793WHonYhJnr6d6hHqd1bYxlh/HJhqWXYdkO30d1kYTFVChMtO4lqJn4RKXRtrF0j+rQ0HdzZnQXeuURqAgQZH3cNDOPN36UdW3T2AiweGyqWpuVLQ4XIFQea/cVdTECNgRCQQYNnM+27R46tNN5++0+SiFmd+39unj7B8o92bYIxOhkbQ/RZ1Ia825vRWqsheUxyC+1ufr5Nbx8/cHEy54k1sGR1jDJKkl7n5Da5AErpL3yS8oS2f4Qt7+4gYcvb0eieCeLRTA2X/6yjU4t42hdXxj0VQMEe5sT8TYUZ8FjHkinc4rJi5eJw6RFz3E/s2DsoUTvyCBo3PdpFj9tCPPWiBaO5I/iIJRnLv4YJTiikCGG/zebpRtD/DBGiIICMXRGzUzjvaUJ9OlQymuXNcbWfeqUr0T6drs/0SEIWRqf/xbkv99m0aQeDOuVQo+WCXi1IJYdXXvckmv5D0TRPJXUsiMvf88neTy9wFQW3vUMi2VjG1NvHzgxLkCo5QvBHf5fj0DYNDlp0BzyC+LxeYr5duFJSoBFPfjU89TNJPz16P7771T7njJylm4AmzHvZpETMHnigpaELJvRb27i2uOS6dZctlPH1UC0DcplhpVRkTrB7ra52hZl0l+eG+Drpenk+31Eey1aNDLo0qI+h7WQjVDp81XzkjsQ8Z8YjnsoQ6AC80e3VC6FR09czoJbuuDxiviNPPgNPl9VxK3vFbLkzlQlHyxAV2UvKrEplnsUYeR+k9Po3NTiqYtb4bEsvlrv55IZBdimwSc3N6RrssexyxalaE3gw66kS1OSFlI6EAhjS4lB5Iuli0JH8zg2zh7XEK2aa2Jf3+4ABMkYSCnn2YXbGPdxGWHNRzRlLBvfhCQXIOxrMN3XHYgRCFsWp508m8ysBDQtyOtvHE7HjvWdk1/EQa6udUcfUPMcUZJT7eBWgCJ8jJyxkdKgB9M0Gdo9jstEyc8WQl0AwzawlVFRxSjtCRIjNgyK4R/WvJiRU5pkHXxhQ2UiBJjsixDNn86H+uoQpu3lvOnpLE63+X5MU5KjDf7z4ipevqQzHq9SW1AbclZRmN6TNvHOiCZ0bx7rSBHbJpoSPfrjS06b/rDJERO3MPKEaK49pj6/55ucPT2d7EAsF/ewmXJ6U9W5oCSiVZZlT46DZGsEkMiJVXIn6hSrWinFA0OCIv9e/azKAbWGq3OzFkphU7csZq8qYPirAcJaDIYdYsGYxrSLqxzCuhmE6kyA+95aHAFH6+4/53zN6t+lLhpgygMdOGGAiOLIQ0wegG4GoRZPsJM/iPTUizJfSB6WtsX3m0tIbRBDSrwHjxLQEeJikDCOsI6w73dYf+9lCUhOQjMFCIQwMZR3gSUbo+IURvwelGVyNS9J8wv4wGbq7DwenGfy6NlRnH14Q56Y+wvXDuhClBJ+ErknuQ+bhz7P4b2FJcwZIwTGck+lP9+U5X3Lsks5/bFs5oxqQkyUl0ufz2BlbhyHNixUkszRCmw4fA5VctkLQHA0B4QuKTLLAiQiapLyO1IAoXI+RDUj5r69YgRMCBs2QpFZkV3K0MfzCWhR6LaXly8yGHxw5d0hLkBwl9QBGwFhuN82egWff71dnXqGX96EkSM6qQegCIxU+wF/wEa2Bt54ubldxcJRhf+mJIUjm21lxC0HeTgKvipTUGGlKHGjHTyGasZBeDIaRBFk/TaNvlOyGdAenrm0OR8s/o3TjzpIAQR1RcayPWRz+qOrObpjA+4YnEysR8PYjeSnMiAq6+GMvjgc5j8PLeemYe04KCWBs5/LYlWBl+aGxZw7mpIcJeYMUspQ+tB/Xnhz6jpqPC68rub8V/ft5SrTtk2ZBQfdlUaZSI2b8dw8sJhb+qfublK6xze6AKG6k+C+v9ZGQE6Czz29iunPZaPZBiefnMCEew6P9I/v0zZRa+/dHXgtiYAtss8amhlm2HNZLNqsM/+mRmwvyOPI9kniqrSLh4DoIWhhk+XbgmxYn87JPdriUaf+ilKQIZUhc7QKTLSwjl/XWFVQyn+eyGZr2EOcBe/enMShSV51AlXf4yLmWrJodh2mZNFkDfV5IJP1RRq6GcUZhxbz1AUiYf3nlwsQauWUu4PeHxGQH87Md35h4gO5iqTW/QiLZ57th6FLunY/pIj3xyDdzzhgI+CYUsJNJQAABMNJREFUNan+SUK6zle/bueyV0ro0TLEG1e1JFpJCuxuPiXhCmNLSl8RFcMRSd2dW4G0fmqWruyhw9JGaerc9e4GZi2PYbvupanXz0tXJ3N4Y5Evjig1Viy7HLAzUntvXJlpvbSRT9bEKjpuq6gtLBx3SKX2VC5AqL1z7o68mhGQduuFizK4/ro1igXevo3G2zP7oItYjhJzqeYXuG93I1CNCDgAIazIgeLIKOWLa17N4pPVGqP72Ywa2Bhjd5tikTFWZAhZvBF+xW7EQDF1khZOYS7M/KGQR78uYX2hV7HdT2ofYsJZTUhNkKyBgAhdlRacSob7g6jGdP6rb5Vyz0Nz83nwCyGtakSZ21g9sT0xlah/uwDhX50298v/1QjYJjn5MHjgPAUQ6sWH+Wre8eL5FnHa+1dH5365GwGww4Q0D17lX2CxscDktCfy2R6w+L8BCVzVrx5xahN3dnEpmzkCSRHipEhHK4DgAAZpTvSHbT78qZAXF5WwcosQB6Np6MnmlsFNOa9HAlGGNCc67b6qVVIaGneYILmTUlsj8N6y7Vz7VonKlorb5bK7UkiK90YMrmR17anc4QKE2jrb7rirHwE7RMj2cmzPuYTMKAy9jEVLBuETlZh90Cmv/gDcT3AjsO8RUA2DNizNLOPy57eQ79c5ujlcPbAhPdtEkyAtj6LbgGgQOARERyrJojiosyarmC/XBHl5URlbAx5MvCR6yjjpkCjuOi2JxoaJ5nG6DVyK7r7PS2155fKMYgZN34Ym3taEWXxrMq0biMdIuWLInrPuAoTaMrvuOPd/BOwwpu1h8IlfkpPrQdeDfPRxP5o3Uxqk7uVGoIZFQDwfpI3QID1octX0DH7OjUezy4jylHLiIdH06diQVsnSvmlSGjb4ZWMhSzaW8c1qP6UkYtteRPgxLrGMQW3D3DM0lYbxgiYERohghIFHZR2q5jxZwwLlDmePCNgUhWwOGpdGkDiVmZpzQ0O6pXhVCUsuaUvdXafCBQjuUjqAIyACMx7OO3cua373KgOZF549hO5HNo40r7mNWgfw4qiRtx62Ub4Owi4QT4RFG8q4880sNpU0wK9koQOqfVH0CpxMgGQUDAw7gNdr09qTw6jTWzOkSwMM3dHmN4S2JuZMaoPQ1HtdOaMaOf3VGJRN2DY5ZVom32fHo1shXrw0kcEdfWru1Zy7AKEa8XXfWgcj4LC9R9/yHV98UaYEch6c3IoTBraJPFxdgFAHJ73W3lJ5IlicF+2wF1uXqrFNAJ3t/hBrcy2+/DmPDbmQs82gXiy0axykQ/ME+naoR6JPIy7Gg2aZyohK08WeKiK0JMBANUzK/zqiyC4psdYulb3kD0DIqRNmZTBtiXQyBBndN8hNJ7ZU/BYxxpLG192VY90MQt1ZA+6dVDkC8iDUWLQom2tHrkTHw4QJzTn55PaRT3LTrFUOqfuGfy0C5RpF5f9UaePIaNz+g39tWmrMF1u2yYer/FzzShFhA849NMi0c5orGWzxzdCUpsaulwsQasz0uQP55yMQBstDyLI4/9wFrF8fZOw9zTn9tA4R4o7LRfjn58T9RjcCbgT+jgiIV8Z3mSHOfCKPgO7l8KQAn4xqgVdJYIuy5p6t3f8PwLADQhRqMnQAAAAASUVORK5CYII=;" parent="eyhm42ZrMHMS2FB7j-Ck-1" vertex="1">
                    <mxGeometry x="110" y="100" width="555.49" height="313" as="geometry"/>
                </mxCell>
            </root>
        </mxGraphModel>
    </diagram>
    <diagram id="R2lEEEUBdFMjLlhIrx00" name="MLD/MCD">
        <mxGraphModel dx="1469" dy="1664" grid="1" gridSize="10" guides="1" tooltips="1" connect="1" arrows="1" fold="1" page="1" pageScale="1" pageWidth="850" pageHeight="1100" math="0" shadow="0" extFonts="Permanent Marker^https://fonts.googleapis.com/css?family=Permanent+Marker">
            <root>
                <mxCell id="0"/>
                <mxCell id="1" parent="0"/>
                <mxCell id="5iMKEWB1oobzEetKgtpb-26" style="edgeStyle=orthogonalEdgeStyle;rounded=0;orthogonalLoop=1;jettySize=auto;html=1;fontSize=19;entryX=1;entryY=0.5;entryDx=0;entryDy=0;exitX=0;exitY=0.5;exitDx=0;exitDy=0;" parent="1" source="C-vyLk0tnHw3VtMMgP7b-3" target="LBOhDVB2qn10HRNZYW3n-4" edge="1">
                    <mxGeometry relative="1" as="geometry">
                        <mxPoint x="350" y="260" as="targetPoint"/>
                        <Array as="points"/>
                    </mxGeometry>
                </mxCell>
                <mxCell id="5iMKEWB1oobzEetKgtpb-27" value="Crée" style="edgeLabel;html=1;align=center;verticalAlign=middle;resizable=0;points=[];fontSize=16;" parent="5iMKEWB1oobzEetKgtpb-26" vertex="1" connectable="0">
                    <mxGeometry x="-0.1143" y="2" relative="1" as="geometry">
                        <mxPoint x="-9.5" y="-2.03" as="offset"/>
                    </mxGeometry>
                </mxCell>
                <mxCell id="N560TEkfA6cxXD-4JirZ-32" value="0.n" style="edgeLabel;html=1;align=center;verticalAlign=middle;resizable=0;points=[];fontSize=16;" parent="5iMKEWB1oobzEetKgtpb-26" vertex="1" connectable="0">
                    <mxGeometry x="0.8203" y="-3" relative="1" as="geometry">
                        <mxPoint as="offset"/>
                    </mxGeometry>
                </mxCell>
                <mxCell id="N560TEkfA6cxXD-4JirZ-33" value="1.1" style="edgeLabel;html=1;align=center;verticalAlign=middle;resizable=0;points=[];fontSize=16;" parent="5iMKEWB1oobzEetKgtpb-26" vertex="1" connectable="0">
                    <mxGeometry x="-0.8203" y="-2" relative="1" as="geometry">
                        <mxPoint as="offset"/>
                    </mxGeometry>
                </mxCell>
                <mxCell id="N560TEkfA6cxXD-4JirZ-28" style="edgeStyle=orthogonalEdgeStyle;rounded=0;orthogonalLoop=1;jettySize=auto;html=1;entryX=0.808;entryY=1.033;entryDx=0;entryDy=0;entryPerimeter=0;fontSize=16;" parent="1" source="C-vyLk0tnHw3VtMMgP7b-2" target="LBOhDVB2qn10HRNZYW3n-4" edge="1">
                    <mxGeometry relative="1" as="geometry">
                        <Array as="points">
                            <mxPoint x="645" y="480"/>
                            <mxPoint x="297" y="480"/>
                        </Array>
                    </mxGeometry>
                </mxCell>
                <mxCell id="N560TEkfA6cxXD-4JirZ-29" value="Like" style="edgeLabel;html=1;align=center;verticalAlign=middle;resizable=0;points=[];fontSize=16;" parent="N560TEkfA6cxXD-4JirZ-28" vertex="1" connectable="0">
                    <mxGeometry x="0.0556" y="-3" relative="1" as="geometry">
                        <mxPoint x="79" as="offset"/>
                    </mxGeometry>
                </mxCell>
                <mxCell id="N560TEkfA6cxXD-4JirZ-30" value="0.n" style="edgeLabel;html=1;align=center;verticalAlign=middle;resizable=0;points=[];fontSize=16;" parent="N560TEkfA6cxXD-4JirZ-28" vertex="1" connectable="0">
                    <mxGeometry x="-0.8743" y="3" relative="1" as="geometry">
                        <mxPoint as="offset"/>
                    </mxGeometry>
                </mxCell>
                <mxCell id="N560TEkfA6cxXD-4JirZ-31" value="0.n" style="edgeLabel;html=1;align=center;verticalAlign=middle;resizable=0;points=[];fontSize=16;" parent="N560TEkfA6cxXD-4JirZ-28" vertex="1" connectable="0">
                    <mxGeometry x="0.8958" y="-3" relative="1" as="geometry">
                        <mxPoint as="offset"/>
                    </mxGeometry>
                </mxCell>
                <mxCell id="C-vyLk0tnHw3VtMMgP7b-2" value="Users" style="shape=table;startSize=30;container=1;collapsible=1;childLayout=tableLayout;fixedRows=1;rowLines=0;fontStyle=1;align=center;resizeLast=1;" parent="1" vertex="1">
                    <mxGeometry x="520" y="140" width="250" height="240" as="geometry"/>
                </mxCell>
                <mxCell id="C-vyLk0tnHw3VtMMgP7b-3" value="" style="shape=partialRectangle;collapsible=0;dropTarget=0;pointerEvents=0;fillColor=none;points=[[0,0.5],[1,0.5]];portConstraint=eastwest;top=0;left=0;right=0;bottom=1;" parent="C-vyLk0tnHw3VtMMgP7b-2" vertex="1">
                    <mxGeometry y="30" width="250" height="30" as="geometry"/>
                </mxCell>
                <mxCell id="C-vyLk0tnHw3VtMMgP7b-4" value="PK" style="shape=partialRectangle;overflow=hidden;connectable=0;fillColor=none;top=0;left=0;bottom=0;right=0;fontStyle=1;" parent="C-vyLk0tnHw3VtMMgP7b-3" vertex="1">
                    <mxGeometry width="30" height="30" as="geometry"/>
                </mxCell>
                <mxCell id="C-vyLk0tnHw3VtMMgP7b-5" value="user_id int NOT NULL " style="shape=partialRectangle;overflow=hidden;connectable=0;fillColor=none;top=0;left=0;bottom=0;right=0;align=left;spacingLeft=6;fontStyle=5;" parent="C-vyLk0tnHw3VtMMgP7b-3" vertex="1">
                    <mxGeometry x="30" width="220" height="30" as="geometry"/>
                </mxCell>
                <mxCell id="5iMKEWB1oobzEetKgtpb-1" style="shape=partialRectangle;collapsible=0;dropTarget=0;pointerEvents=0;fillColor=none;points=[[0,0.5],[1,0.5]];portConstraint=eastwest;top=0;left=0;right=0;bottom=1;" parent="C-vyLk0tnHw3VtMMgP7b-2" vertex="1">
                    <mxGeometry y="60" width="250" height="30" as="geometry"/>
                </mxCell>
                <mxCell id="5iMKEWB1oobzEetKgtpb-2" style="shape=partialRectangle;overflow=hidden;connectable=0;fillColor=none;top=0;left=0;bottom=0;right=0;fontStyle=1;" parent="5iMKEWB1oobzEetKgtpb-1" vertex="1">
                    <mxGeometry width="30" height="30" as="geometry"/>
                </mxCell>
                <mxCell id="5iMKEWB1oobzEetKgtpb-3" value="forename varchar(100) NOT NULL" style="shape=partialRectangle;overflow=hidden;connectable=0;fillColor=none;top=0;left=0;bottom=0;right=0;align=left;spacingLeft=6;fontStyle=0;" parent="5iMKEWB1oobzEetKgtpb-1" vertex="1">
                    <mxGeometry x="30" width="220" height="30" as="geometry"/>
                </mxCell>
                <mxCell id="5iMKEWB1oobzEetKgtpb-4" style="shape=partialRectangle;collapsible=0;dropTarget=0;pointerEvents=0;fillColor=none;points=[[0,0.5],[1,0.5]];portConstraint=eastwest;top=0;left=0;right=0;bottom=1;" parent="C-vyLk0tnHw3VtMMgP7b-2" vertex="1">
                    <mxGeometry y="90" width="250" height="30" as="geometry"/>
                </mxCell>
                <mxCell id="5iMKEWB1oobzEetKgtpb-5" value="&#10;&#10;&lt;span style=&quot;color: rgb(0, 0, 0); font-family: helvetica; font-size: 12px; font-style: normal; font-weight: 400; letter-spacing: normal; text-align: left; text-indent: 0px; text-transform: none; word-spacing: 0px; background-color: rgb(248, 249, 250); display: inline; float: none;&quot;&gt;forename varchar(100) NOT NULL&lt;/span&gt;&#10;&#10;" style="shape=partialRectangle;overflow=hidden;connectable=0;fillColor=none;top=0;left=0;bottom=0;right=0;fontStyle=0;" parent="5iMKEWB1oobzEetKgtpb-4" vertex="1">
                    <mxGeometry width="30" height="30" as="geometry"/>
                </mxCell>
                <mxCell id="5iMKEWB1oobzEetKgtpb-6" value="surname varchar(100) NOT NULL" style="shape=partialRectangle;overflow=hidden;connectable=0;fillColor=none;top=0;left=0;bottom=0;right=0;align=left;spacingLeft=6;fontStyle=0;" parent="5iMKEWB1oobzEetKgtpb-4" vertex="1">
                    <mxGeometry x="30" width="220" height="30" as="geometry"/>
                </mxCell>
                <mxCell id="5iMKEWB1oobzEetKgtpb-7" style="shape=partialRectangle;collapsible=0;dropTarget=0;pointerEvents=0;fillColor=none;points=[[0,0.5],[1,0.5]];portConstraint=eastwest;top=0;left=0;right=0;bottom=1;" parent="C-vyLk0tnHw3VtMMgP7b-2" vertex="1">
                    <mxGeometry y="120" width="250" height="30" as="geometry"/>
                </mxCell>
                <mxCell id="5iMKEWB1oobzEetKgtpb-8" style="shape=partialRectangle;overflow=hidden;connectable=0;fillColor=none;top=0;left=0;bottom=0;right=0;fontStyle=1;" parent="5iMKEWB1oobzEetKgtpb-7" vertex="1">
                    <mxGeometry width="30" height="30" as="geometry"/>
                </mxCell>
                <mxCell id="5iMKEWB1oobzEetKgtpb-9" value="mail varchar(200) NOT NULL" style="shape=partialRectangle;overflow=hidden;connectable=0;fillColor=none;top=0;left=0;bottom=0;right=0;align=left;spacingLeft=6;fontStyle=0;" parent="5iMKEWB1oobzEetKgtpb-7" vertex="1">
                    <mxGeometry x="30" width="220" height="30" as="geometry"/>
                </mxCell>
                <mxCell id="5iMKEWB1oobzEetKgtpb-10" style="shape=partialRectangle;collapsible=0;dropTarget=0;pointerEvents=0;fillColor=none;points=[[0,0.5],[1,0.5]];portConstraint=eastwest;top=0;left=0;right=0;bottom=1;" parent="C-vyLk0tnHw3VtMMgP7b-2" vertex="1">
                    <mxGeometry y="150" width="250" height="30" as="geometry"/>
                </mxCell>
                <mxCell id="5iMKEWB1oobzEetKgtpb-11" style="shape=partialRectangle;overflow=hidden;connectable=0;fillColor=none;top=0;left=0;bottom=0;right=0;fontStyle=1;" parent="5iMKEWB1oobzEetKgtpb-10" vertex="1">
                    <mxGeometry width="30" height="30" as="geometry"/>
                </mxCell>
                <mxCell id="5iMKEWB1oobzEetKgtpb-12" value="password varchar(500) NOT NULL" style="shape=partialRectangle;overflow=hidden;connectable=0;fillColor=none;top=0;left=0;bottom=0;right=0;align=left;spacingLeft=6;fontStyle=0;" parent="5iMKEWB1oobzEetKgtpb-10" vertex="1">
                    <mxGeometry x="30" width="220" height="30" as="geometry"/>
                </mxCell>
                <mxCell id="5iMKEWB1oobzEetKgtpb-13" style="shape=partialRectangle;collapsible=0;dropTarget=0;pointerEvents=0;fillColor=none;points=[[0,0.5],[1,0.5]];portConstraint=eastwest;top=0;left=0;right=0;bottom=1;" parent="C-vyLk0tnHw3VtMMgP7b-2" vertex="1">
                    <mxGeometry y="180" width="250" height="30" as="geometry"/>
                </mxCell>
                <mxCell id="5iMKEWB1oobzEetKgtpb-14" style="shape=partialRectangle;overflow=hidden;connectable=0;fillColor=none;top=0;left=0;bottom=0;right=0;fontStyle=1;" parent="5iMKEWB1oobzEetKgtpb-13" vertex="1">
                    <mxGeometry width="30" height="30" as="geometry"/>
                </mxCell>
                <mxCell id="5iMKEWB1oobzEetKgtpb-15" value="avatar blob " style="shape=partialRectangle;overflow=hidden;connectable=0;fillColor=none;top=0;left=0;bottom=0;right=0;align=left;spacingLeft=6;fontStyle=0;" parent="5iMKEWB1oobzEetKgtpb-13" vertex="1">
                    <mxGeometry x="30" width="220" height="30" as="geometry"/>
                </mxCell>
                <mxCell id="5iMKEWB1oobzEetKgtpb-16" style="shape=partialRectangle;collapsible=0;dropTarget=0;pointerEvents=0;fillColor=none;points=[[0,0.5],[1,0.5]];portConstraint=eastwest;top=0;left=0;right=0;bottom=1;" parent="C-vyLk0tnHw3VtMMgP7b-2" vertex="1">
                    <mxGeometry y="210" width="250" height="30" as="geometry"/>
                </mxCell>
                <mxCell id="5iMKEWB1oobzEetKgtpb-17" style="shape=partialRectangle;overflow=hidden;connectable=0;fillColor=none;top=0;left=0;bottom=0;right=0;fontStyle=1;" parent="5iMKEWB1oobzEetKgtpb-16" vertex="1">
                    <mxGeometry width="30" height="30" as="geometry"/>
                </mxCell>
                <mxCell id="5iMKEWB1oobzEetKgtpb-18" value="avatar_mimeType varchar(500)" style="shape=partialRectangle;overflow=hidden;connectable=0;fillColor=none;top=0;left=0;bottom=0;right=0;align=left;spacingLeft=6;fontStyle=0;" parent="5iMKEWB1oobzEetKgtpb-16" vertex="1">
                    <mxGeometry x="30" width="220" height="30" as="geometry"/>
                </mxCell>
                <mxCell id="XbCBR4yuYiCGIkhd7Y-F-6" style="edgeStyle=orthogonalEdgeStyle;rounded=0;orthogonalLoop=1;jettySize=auto;html=1;" parent="1" source="C-vyLk0tnHw3VtMMgP7b-23" target="9Uhs_JBRigqurWvKPJwh-1" edge="1">
                    <mxGeometry relative="1" as="geometry"/>
                </mxCell>
                <mxCell id="XbCBR4yuYiCGIkhd7Y-F-7" value="0.n" style="edgeLabel;html=1;align=center;verticalAlign=middle;resizable=0;points=[];fontSize=16;" parent="XbCBR4yuYiCGIkhd7Y-F-6" vertex="1" connectable="0">
                    <mxGeometry x="-0.7591" y="1" relative="1" as="geometry">
                        <mxPoint as="offset"/>
                    </mxGeometry>
                </mxCell>
                <mxCell id="XbCBR4yuYiCGIkhd7Y-F-8" value="1.n" style="edgeLabel;html=1;align=center;verticalAlign=middle;resizable=0;points=[];fontSize=16;" parent="XbCBR4yuYiCGIkhd7Y-F-6" vertex="1" connectable="0">
                    <mxGeometry x="0.6453" y="-1" relative="1" as="geometry">
                        <mxPoint as="offset"/>
                    </mxGeometry>
                </mxCell>
                <mxCell id="N560TEkfA6cxXD-4JirZ-22" value="Appartient" style="edgeLabel;html=1;align=center;verticalAlign=middle;resizable=0;points=[];fontSize=16;" parent="XbCBR4yuYiCGIkhd7Y-F-6" vertex="1" connectable="0">
                    <mxGeometry x="-0.1192" y="-3" relative="1" as="geometry">
                        <mxPoint x="3" y="14" as="offset"/>
                    </mxGeometry>
                </mxCell>
                <mxCell id="C-vyLk0tnHw3VtMMgP7b-23" value="Links" style="shape=table;startSize=30;container=1;collapsible=1;childLayout=tableLayout;fixedRows=1;rowLines=0;fontStyle=1;align=center;resizeLast=1;" parent="1" vertex="1">
                    <mxGeometry x="95" y="160" width="250" height="210" as="geometry">
                        <mxRectangle x="90" y="140" width="60" height="30" as="alternateBounds"/>
                    </mxGeometry>
                </mxCell>
                <mxCell id="C-vyLk0tnHw3VtMMgP7b-24" value="" style="shape=partialRectangle;collapsible=0;dropTarget=0;pointerEvents=0;fillColor=none;points=[[0,0.5],[1,0.5]];portConstraint=eastwest;top=0;left=0;right=0;bottom=1;" parent="C-vyLk0tnHw3VtMMgP7b-23" vertex="1">
                    <mxGeometry y="30" width="250" height="30" as="geometry"/>
                </mxCell>
                <mxCell id="C-vyLk0tnHw3VtMMgP7b-25" value="PK" style="shape=partialRectangle;overflow=hidden;connectable=0;fillColor=none;top=0;left=0;bottom=0;right=0;fontStyle=1;" parent="C-vyLk0tnHw3VtMMgP7b-24" vertex="1">
                    <mxGeometry width="30" height="30" as="geometry"/>
                </mxCell>
                <mxCell id="C-vyLk0tnHw3VtMMgP7b-26" value="link_id int NOT NULL " style="shape=partialRectangle;overflow=hidden;connectable=0;fillColor=none;top=0;left=0;bottom=0;right=0;align=left;spacingLeft=6;fontStyle=5;" parent="C-vyLk0tnHw3VtMMgP7b-24" vertex="1">
                    <mxGeometry x="30" width="220" height="30" as="geometry"/>
                </mxCell>
                <mxCell id="X2fl5yDLgqm1KheMuh2c-20" style="shape=partialRectangle;collapsible=0;dropTarget=0;pointerEvents=0;fillColor=none;points=[[0,0.5],[1,0.5]];portConstraint=eastwest;top=0;left=0;right=0;bottom=1;" parent="C-vyLk0tnHw3VtMMgP7b-23" vertex="1">
                    <mxGeometry y="60" width="250" height="30" as="geometry"/>
                </mxCell>
                <mxCell id="X2fl5yDLgqm1KheMuh2c-21" style="shape=partialRectangle;overflow=hidden;connectable=0;fillColor=none;top=0;left=0;bottom=0;right=0;fontStyle=1;" parent="X2fl5yDLgqm1KheMuh2c-20" vertex="1">
                    <mxGeometry width="30" height="30" as="geometry"/>
                </mxCell>
                <mxCell id="X2fl5yDLgqm1KheMuh2c-22" value="url varchar(500) NOT NULL" style="shape=partialRectangle;overflow=hidden;connectable=0;fillColor=none;top=0;left=0;bottom=0;right=0;align=left;spacingLeft=6;fontStyle=0;" parent="X2fl5yDLgqm1KheMuh2c-20" vertex="1">
                    <mxGeometry x="30" width="220" height="30" as="geometry"/>
                </mxCell>
                <mxCell id="X2fl5yDLgqm1KheMuh2c-23" style="shape=partialRectangle;collapsible=0;dropTarget=0;pointerEvents=0;fillColor=none;points=[[0,0.5],[1,0.5]];portConstraint=eastwest;top=0;left=0;right=0;bottom=1;" parent="C-vyLk0tnHw3VtMMgP7b-23" vertex="1">
                    <mxGeometry y="90" width="250" height="30" as="geometry"/>
                </mxCell>
                <mxCell id="X2fl5yDLgqm1KheMuh2c-24" style="shape=partialRectangle;overflow=hidden;connectable=0;fillColor=none;top=0;left=0;bottom=0;right=0;fontStyle=1;" parent="X2fl5yDLgqm1KheMuh2c-23" vertex="1">
                    <mxGeometry width="30" height="30" as="geometry"/>
                </mxCell>
                <mxCell id="X2fl5yDLgqm1KheMuh2c-25" value="title varchar(100) NOT NULL" style="shape=partialRectangle;overflow=hidden;connectable=0;fillColor=none;top=0;left=0;bottom=0;right=0;align=left;spacingLeft=6;fontStyle=0;" parent="X2fl5yDLgqm1KheMuh2c-23" vertex="1">
                    <mxGeometry x="30" width="220" height="30" as="geometry"/>
                </mxCell>
                <mxCell id="X2fl5yDLgqm1KheMuh2c-26" style="shape=partialRectangle;collapsible=0;dropTarget=0;pointerEvents=0;fillColor=none;points=[[0,0.5],[1,0.5]];portConstraint=eastwest;top=0;left=0;right=0;bottom=1;" parent="C-vyLk0tnHw3VtMMgP7b-23" vertex="1">
                    <mxGeometry y="120" width="250" height="30" as="geometry"/>
                </mxCell>
                <mxCell id="X2fl5yDLgqm1KheMuh2c-27" style="shape=partialRectangle;overflow=hidden;connectable=0;fillColor=none;top=0;left=0;bottom=0;right=0;fontStyle=1;" parent="X2fl5yDLgqm1KheMuh2c-26" vertex="1">
                    <mxGeometry width="30" height="30" as="geometry"/>
                </mxCell>
                <mxCell id="X2fl5yDLgqm1KheMuh2c-28" value="description varchar(1000) " style="shape=partialRectangle;overflow=hidden;connectable=0;fillColor=none;top=0;left=0;bottom=0;right=0;align=left;spacingLeft=6;fontStyle=0;" parent="X2fl5yDLgqm1KheMuh2c-26" vertex="1">
                    <mxGeometry x="30" width="220" height="30" as="geometry"/>
                </mxCell>
                <mxCell id="X2fl5yDLgqm1KheMuh2c-29" style="shape=partialRectangle;collapsible=0;dropTarget=0;pointerEvents=0;fillColor=none;points=[[0,0.5],[1,0.5]];portConstraint=eastwest;top=0;left=0;right=0;bottom=1;" parent="C-vyLk0tnHw3VtMMgP7b-23" vertex="1">
                    <mxGeometry y="150" width="250" height="30" as="geometry"/>
                </mxCell>
                <mxCell id="X2fl5yDLgqm1KheMuh2c-30" style="shape=partialRectangle;overflow=hidden;connectable=0;fillColor=none;top=0;left=0;bottom=0;right=0;fontStyle=1;" parent="X2fl5yDLgqm1KheMuh2c-29" vertex="1">
                    <mxGeometry width="30" height="30" as="geometry"/>
                </mxCell>
                <mxCell id="X2fl5yDLgqm1KheMuh2c-31" value="creation_date datetime NOT NULL" style="shape=partialRectangle;overflow=hidden;connectable=0;fillColor=none;top=0;left=0;bottom=0;right=0;align=left;spacingLeft=6;fontStyle=0;" parent="X2fl5yDLgqm1KheMuh2c-29" vertex="1">
                    <mxGeometry x="30" width="220" height="30" as="geometry"/>
                </mxCell>
                <mxCell id="LBOhDVB2qn10HRNZYW3n-4" style="shape=partialRectangle;collapsible=0;dropTarget=0;pointerEvents=0;fillColor=none;points=[[0,0.5],[1,0.5]];portConstraint=eastwest;top=0;left=0;right=0;bottom=1;" parent="C-vyLk0tnHw3VtMMgP7b-23" vertex="1">
                    <mxGeometry y="180" width="250" height="30" as="geometry"/>
                </mxCell>
                <mxCell id="LBOhDVB2qn10HRNZYW3n-5" value="FK" style="shape=partialRectangle;overflow=hidden;connectable=0;fillColor=none;top=0;left=0;bottom=0;right=0;fontStyle=1;" parent="LBOhDVB2qn10HRNZYW3n-4" vertex="1">
                    <mxGeometry width="30" height="30" as="geometry"/>
                </mxCell>
                <mxCell id="LBOhDVB2qn10HRNZYW3n-6" value="user_id NOT NULL" style="shape=partialRectangle;overflow=hidden;connectable=0;fillColor=none;top=0;left=0;bottom=0;right=0;align=left;spacingLeft=6;fontStyle=0;" parent="LBOhDVB2qn10HRNZYW3n-4" vertex="1">
                    <mxGeometry x="30" width="220" height="30" as="geometry"/>
                </mxCell>
                <mxCell id="9Uhs_JBRigqurWvKPJwh-1" value="Tags" style="shape=table;startSize=30;container=1;collapsible=1;childLayout=tableLayout;fixedRows=1;rowLines=0;fontStyle=1;align=center;resizeLast=1;" parent="1" vertex="1">
                    <mxGeometry x="95" y="560" width="250" height="120" as="geometry">
                        <mxRectangle x="90" y="140" width="60" height="30" as="alternateBounds"/>
                    </mxGeometry>
                </mxCell>
                <mxCell id="9Uhs_JBRigqurWvKPJwh-2" value="" style="shape=partialRectangle;collapsible=0;dropTarget=0;pointerEvents=0;fillColor=none;points=[[0,0.5],[1,0.5]];portConstraint=eastwest;top=0;left=0;right=0;bottom=1;" parent="9Uhs_JBRigqurWvKPJwh-1" vertex="1">
                    <mxGeometry y="30" width="250" height="30" as="geometry"/>
                </mxCell>
                <mxCell id="9Uhs_JBRigqurWvKPJwh-3" value="PK" style="shape=partialRectangle;overflow=hidden;connectable=0;fillColor=none;top=0;left=0;bottom=0;right=0;fontStyle=1;" parent="9Uhs_JBRigqurWvKPJwh-2" vertex="1">
                    <mxGeometry width="30" height="30" as="geometry"/>
                </mxCell>
                <mxCell id="9Uhs_JBRigqurWvKPJwh-4" value="tag_id int NOT NULL " style="shape=partialRectangle;overflow=hidden;connectable=0;fillColor=none;top=0;left=0;bottom=0;right=0;align=left;spacingLeft=6;fontStyle=5;" parent="9Uhs_JBRigqurWvKPJwh-2" vertex="1">
                    <mxGeometry x="30" width="220" height="30" as="geometry"/>
                </mxCell>
                <mxCell id="9Uhs_JBRigqurWvKPJwh-5" style="shape=partialRectangle;collapsible=0;dropTarget=0;pointerEvents=0;fillColor=none;points=[[0,0.5],[1,0.5]];portConstraint=eastwest;top=0;left=0;right=0;bottom=1;" parent="9Uhs_JBRigqurWvKPJwh-1" vertex="1">
                    <mxGeometry y="60" width="250" height="30" as="geometry"/>
                </mxCell>
                <mxCell id="9Uhs_JBRigqurWvKPJwh-6" style="shape=partialRectangle;overflow=hidden;connectable=0;fillColor=none;top=0;left=0;bottom=0;right=0;fontStyle=1;" parent="9Uhs_JBRigqurWvKPJwh-5" vertex="1">
                    <mxGeometry width="30" height="30" as="geometry"/>
                </mxCell>
                <mxCell id="9Uhs_JBRigqurWvKPJwh-7" value="name varchar(20) NOT NULL" style="shape=partialRectangle;overflow=hidden;connectable=0;fillColor=none;top=0;left=0;bottom=0;right=0;align=left;spacingLeft=6;fontStyle=0;" parent="9Uhs_JBRigqurWvKPJwh-5" vertex="1">
                    <mxGeometry x="30" width="220" height="30" as="geometry"/>
                </mxCell>
                <mxCell id="9Uhs_JBRigqurWvKPJwh-8" style="shape=partialRectangle;collapsible=0;dropTarget=0;pointerEvents=0;fillColor=none;points=[[0,0.5],[1,0.5]];portConstraint=eastwest;top=0;left=0;right=0;bottom=1;" parent="9Uhs_JBRigqurWvKPJwh-1" vertex="1">
                    <mxGeometry y="90" width="250" height="30" as="geometry"/>
                </mxCell>
                <mxCell id="9Uhs_JBRigqurWvKPJwh-9" style="shape=partialRectangle;overflow=hidden;connectable=0;fillColor=none;top=0;left=0;bottom=0;right=0;fontStyle=1;" parent="9Uhs_JBRigqurWvKPJwh-8" vertex="1">
                    <mxGeometry width="30" height="30" as="geometry"/>
                </mxCell>
                <mxCell id="9Uhs_JBRigqurWvKPJwh-10" value="color varchar(6) NOT NULL" style="shape=partialRectangle;overflow=hidden;connectable=0;fillColor=none;top=0;left=0;bottom=0;right=0;align=left;spacingLeft=6;fontStyle=0;" parent="9Uhs_JBRigqurWvKPJwh-8" vertex="1">
                    <mxGeometry x="30" width="220" height="30" as="geometry"/>
                </mxCell>
                <mxCell id="N560TEkfA6cxXD-4JirZ-3" value="links_tags" style="shape=table;startSize=30;container=1;collapsible=1;childLayout=tableLayout;fixedRows=1;rowLines=0;fontStyle=1;align=center;resizeLast=1;" parent="1" vertex="1">
                    <mxGeometry y="430" width="180" height="90" as="geometry">
                        <mxRectangle x="90" y="140" width="60" height="30" as="alternateBounds"/>
                    </mxGeometry>
                </mxCell>
                <mxCell id="N560TEkfA6cxXD-4JirZ-4" value="" style="shape=partialRectangle;collapsible=0;dropTarget=0;pointerEvents=0;fillColor=none;points=[[0,0.5],[1,0.5]];portConstraint=eastwest;top=0;left=0;right=0;bottom=1;" parent="N560TEkfA6cxXD-4JirZ-3" vertex="1">
                    <mxGeometry y="30" width="180" height="30" as="geometry"/>
                </mxCell>
                <mxCell id="N560TEkfA6cxXD-4JirZ-5" value="PK &#10;FK" style="shape=partialRectangle;overflow=hidden;connectable=0;top=0;left=0;bottom=0;right=0;fontStyle=1;" parent="N560TEkfA6cxXD-4JirZ-4" vertex="1">
                    <mxGeometry width="30" height="30" as="geometry"/>
                </mxCell>
                <mxCell id="N560TEkfA6cxXD-4JirZ-6" value="link_id int NOT NULL " style="shape=partialRectangle;overflow=hidden;connectable=0;top=0;left=0;bottom=0;right=0;align=left;spacingLeft=6;fontStyle=5;" parent="N560TEkfA6cxXD-4JirZ-4" vertex="1">
                    <mxGeometry x="30" width="150" height="30" as="geometry"/>
                </mxCell>
                <mxCell id="N560TEkfA6cxXD-4JirZ-7" style="shape=partialRectangle;collapsible=0;dropTarget=0;pointerEvents=0;fillColor=none;points=[[0,0.5],[1,0.5]];portConstraint=eastwest;top=0;left=0;right=0;bottom=1;" parent="N560TEkfA6cxXD-4JirZ-3" vertex="1">
                    <mxGeometry y="60" width="180" height="30" as="geometry"/>
                </mxCell>
                <mxCell id="N560TEkfA6cxXD-4JirZ-8" value="PK&#10;FK" style="shape=partialRectangle;overflow=hidden;connectable=0;top=0;left=0;bottom=0;right=0;fontStyle=1;" parent="N560TEkfA6cxXD-4JirZ-7" vertex="1">
                    <mxGeometry width="30" height="30" as="geometry"/>
                </mxCell>
                <mxCell id="N560TEkfA6cxXD-4JirZ-9" value="tag_id int NOT NULL" style="shape=partialRectangle;overflow=hidden;connectable=0;top=0;left=0;bottom=0;right=0;align=left;spacingLeft=6;fontStyle=5;" parent="N560TEkfA6cxXD-4JirZ-7" vertex="1">
                    <mxGeometry x="30" width="150" height="30" as="geometry"/>
                </mxCell>
                <mxCell id="N560TEkfA6cxXD-4JirZ-34" value="DTW Database Schéma" style="text;strokeColor=#6c8ebf;fillColor=#dae8fc;html=1;fontSize=24;fontStyle=1;verticalAlign=middle;align=center;" parent="1" vertex="1">
                    <mxGeometry x="-160" y="10" width="355" height="90" as="geometry"/>
                </mxCell>
                <mxCell id="N560TEkfA6cxXD-4JirZ-35" value="likes" style="shape=table;startSize=30;container=1;collapsible=1;childLayout=tableLayout;fixedRows=1;rowLines=0;fontStyle=1;align=center;resizeLast=1;" parent="1" vertex="1">
                    <mxGeometry x="460" y="490" width="180" height="90" as="geometry">
                        <mxRectangle x="90" y="140" width="60" height="30" as="alternateBounds"/>
                    </mxGeometry>
                </mxCell>
                <mxCell id="N560TEkfA6cxXD-4JirZ-36" value="" style="shape=partialRectangle;collapsible=0;dropTarget=0;pointerEvents=0;fillColor=none;points=[[0,0.5],[1,0.5]];portConstraint=eastwest;top=0;left=0;right=0;bottom=1;" parent="N560TEkfA6cxXD-4JirZ-35" vertex="1">
                    <mxGeometry y="30" width="180" height="30" as="geometry"/>
                </mxCell>
                <mxCell id="N560TEkfA6cxXD-4JirZ-37" value="PK &#10;FK" style="shape=partialRectangle;overflow=hidden;connectable=0;top=0;left=0;bottom=0;right=0;fontStyle=1;" parent="N560TEkfA6cxXD-4JirZ-36" vertex="1">
                    <mxGeometry width="30" height="30" as="geometry">
                        <mxRectangle width="30" height="30" as="alternateBounds"/>
                    </mxGeometry>
                </mxCell>
                <mxCell id="N560TEkfA6cxXD-4JirZ-38" value="user_id int NOT NULL " style="shape=partialRectangle;overflow=hidden;connectable=0;top=0;left=0;bottom=0;right=0;align=left;spacingLeft=6;fontStyle=5;" parent="N560TEkfA6cxXD-4JirZ-36" vertex="1">
                    <mxGeometry x="30" width="150" height="30" as="geometry">
                        <mxRectangle width="150" height="30" as="alternateBounds"/>
                    </mxGeometry>
                </mxCell>
                <mxCell id="N560TEkfA6cxXD-4JirZ-39" style="shape=partialRectangle;collapsible=0;dropTarget=0;pointerEvents=0;fillColor=none;points=[[0,0.5],[1,0.5]];portConstraint=eastwest;top=0;left=0;right=0;bottom=1;" parent="N560TEkfA6cxXD-4JirZ-35" vertex="1">
                    <mxGeometry y="60" width="180" height="30" as="geometry"/>
                </mxCell>
                <mxCell id="N560TEkfA6cxXD-4JirZ-40" value="PK&#10;FK" style="shape=partialRectangle;overflow=hidden;connectable=0;top=0;left=0;bottom=0;right=0;fontStyle=1;" parent="N560TEkfA6cxXD-4JirZ-39" vertex="1">
                    <mxGeometry width="30" height="30" as="geometry">
                        <mxRectangle width="30" height="30" as="alternateBounds"/>
                    </mxGeometry>
                </mxCell>
                <mxCell id="N560TEkfA6cxXD-4JirZ-41" value="link_id int NOT NULL" style="shape=partialRectangle;overflow=hidden;connectable=0;top=0;left=0;bottom=0;right=0;align=left;spacingLeft=6;fontStyle=5;" parent="N560TEkfA6cxXD-4JirZ-39" vertex="1">
                    <mxGeometry x="30" width="150" height="30" as="geometry">
                        <mxRectangle width="150" height="30" as="alternateBounds"/>
                    </mxGeometry>
                </mxCell>
                <mxCell id="L0646i-YS1zgxfmoSjft-2" style="edgeStyle=none;html=1;entryX=0.25;entryY=0;entryDx=0;entryDy=0;fontSize=22;exitX=0.047;exitY=0.999;exitDx=0;exitDy=0;exitPerimeter=0;" edge="1" parent="1" source="L0646i-YS1zgxfmoSjft-1" target="C-vyLk0tnHw3VtMMgP7b-2">
                    <mxGeometry relative="1" as="geometry"/>
                </mxCell>
                <mxCell id="L0646i-YS1zgxfmoSjft-3" value="INNER JOIN" style="edgeLabel;html=1;align=center;verticalAlign=middle;resizable=0;points=[];fontSize=22;" vertex="1" connectable="0" parent="L0646i-YS1zgxfmoSjft-2">
                    <mxGeometry x="0.2855" y="-2" relative="1" as="geometry">
                        <mxPoint as="offset"/>
                    </mxGeometry>
                </mxCell>
                <mxCell id="L0646i-YS1zgxfmoSjft-4" style="edgeStyle=none;html=1;entryX=0.5;entryY=0;entryDx=0;entryDy=0;fontSize=22;exitX=0.473;exitY=0.999;exitDx=0;exitDy=0;exitPerimeter=0;" edge="1" parent="1" source="L0646i-YS1zgxfmoSjft-1" target="C-vyLk0tnHw3VtMMgP7b-23">
                    <mxGeometry relative="1" as="geometry"/>
                </mxCell>
                <mxCell id="L0646i-YS1zgxfmoSjft-5" value="INNER JOIN" style="edgeLabel;html=1;align=center;verticalAlign=middle;resizable=0;points=[];fontSize=22;" vertex="1" connectable="0" parent="L0646i-YS1zgxfmoSjft-4">
                    <mxGeometry x="0.7244" y="-1" relative="1" as="geometry">
                        <mxPoint x="57" y="-53" as="offset"/>
                    </mxGeometry>
                </mxCell>
                <mxCell id="L0646i-YS1zgxfmoSjft-1" value="user&amp;nbsp; &amp;nbsp; &amp;nbsp;lienfavori&lt;br&gt;&lt;table style=&quot;font-size: 22px&quot;&gt;&lt;tbody style=&quot;font-size: 22px&quot;&gt;&lt;tr style=&quot;font-size: 22px&quot;&gt;&lt;td style=&quot;font-size: 22px&quot;&gt;96&amp;nbsp; &amp;nbsp;&lt;/td&gt;&lt;td style=&quot;font-size: 22px&quot;&gt;&amp;nbsp; &amp;nbsp; &amp;nbsp;50&lt;/td&gt;&lt;/tr&gt;&lt;tr style=&quot;font-size: 22px&quot;&gt;&lt;td style=&quot;font-size: 22px&quot;&gt;68&lt;/td&gt;&lt;td style=&quot;font-size: 22px&quot;&gt;&amp;nbsp; &amp;nbsp; &amp;nbsp;56&lt;/td&gt;&lt;/tr&gt;&lt;tr style=&quot;font-size: 22px&quot;&gt;&lt;td style=&quot;font-size: 22px&quot;&gt;68&lt;/td&gt;&lt;td style=&quot;font-size: 22px&quot;&gt;&amp;nbsp; &amp;nbsp; &amp;nbsp;100&lt;/td&gt;&lt;/tr&gt;&lt;/tbody&gt;&lt;/table&gt;" style="text;whiteSpace=wrap;html=1;fontSize=22;fillColor=#f5f5f5;fontColor=#333333;strokeColor=#666666;" vertex="1" parent="1">
                    <mxGeometry x="332.5" y="-150" width="230" height="120" as="geometry"/>
                </mxCell>
            </root>
        </mxGraphModel>
    </diagram>
    <diagram id="s6nJhWUFy8JH3_CJRCvF" name="Fontionnalités à ajouter">
        <mxGraphModel dx="1422" dy="832" grid="1" gridSize="10" guides="1" tooltips="1" connect="1" arrows="1" fold="1" page="1" pageScale="1" pageWidth="827" pageHeight="1169" math="0" shadow="0">
            <root>
                <mxCell id="ThLV2iFstpJiH0bsvROb-0"/>
                <mxCell id="ThLV2iFstpJiH0bsvROb-1" parent="ThLV2iFstpJiH0bsvROb-0"/>
                <mxCell id="ThLV2iFstpJiH0bsvROb-2" value="Gérer différents types de rôles (admin, modérateur, utilisateur)." style="text;html=1;strokeColor=none;fillColor=none;align=center;verticalAlign=middle;whiteSpace=wrap;rounded=0;fontSize=19;" parent="ThLV2iFstpJiH0bsvROb-1" vertex="1">
                    <mxGeometry x="20" y="20" width="660" height="50" as="geometry"/>
                </mxCell>
            </root>
        </mxGraphModel>
    </diagram>
</mxfile>